<?xml version="1.0" encoding="UTF-8" standalone="no"?>
<!-- Created with Inkscape (http://www.inkscape.org/) -->

<svg
   xmlns:dc="http://purl.org/dc/elements/1.1/"
   xmlns:cc="http://creativecommons.org/ns#"
   xmlns:rdf="http://www.w3.org/1999/02/22-rdf-syntax-ns#"
   xmlns:svg="http://www.w3.org/2000/svg"
   xmlns="http://www.w3.org/2000/svg"
   xmlns:xlink="http://www.w3.org/1999/xlink"
   xmlns:sodipodi="http://sodipodi.sourceforge.net/DTD/sodipodi-0.dtd"
   xmlns:inkscape="http://www.inkscape.org/namespaces/inkscape"
   width="278"
   height="200"
   id="svg3349"
   version="1.1"
   inkscape:version="0.48.1 r9760"
   sodipodi:docname="teaserPage.svg">
  <defs
     id="defs3351">
    <linearGradient
       id="linearGradient4137">
      <stop
         id="stop4139"
         offset="0"
         style="stop-color:#9c5820;stop-opacity:1;" />
      <stop
         id="stop4141"
         offset="1"
         style="stop-color:#6a4221;stop-opacity:1;" />
    </linearGradient>
    <linearGradient
       inkscape:collect="always"
       xlink:href="#linearGradient4137"
       id="linearGradient4135"
       x1="3.5714285"
       y1="855.57648"
       x2="272.85715"
       y2="1047.7194"
       gradientUnits="userSpaceOnUse" />
    <style
       id="style4221"
       type="text/css">
   
    .fil0 {fill:black;fill-rule:nonzero}
   
  </style>
    <inkscape:path-effect
       is_visible="true"
       id="path-effect3872"
       effect="spiro" />
    <inkscape:path-effect
       is_visible="true"
       id="path-effect2936"
       effect="spiro" />
    <inkscape:path-effect
       is_visible="true"
       id="path-effect2940"
       effect="spiro" />
    <inkscape:path-effect
       effect="spiro"
       id="path-effect2944"
       is_visible="true" />
    <inkscape:perspective
       sodipodi:type="inkscape:persp3d"
       inkscape:vp_x="0 : 0.5 : 1"
       inkscape:vp_y="0 : 1000 : 0"
       inkscape:vp_z="1 : 0.5 : 1"
       inkscape:persp3d-origin="0.5 : 0.33333333 : 1"
       id="perspective4245" />
    <inkscape:perspective
       id="perspective4235"
       inkscape:persp3d-origin="372.04724 : 350.78739 : 1"
       inkscape:vp_z="744.09448 : 526.18109 : 1"
       inkscape:vp_y="0 : 1000 : 0"
       inkscape:vp_x="0 : 526.18109 : 1"
       sodipodi:type="inkscape:persp3d" />
    <clipPath
       id="clipPath3020">
      <path
         id="path3022"
         d="M 0,726.184 0,0 l 3913.5,0 0,726.184 -3913.5,0 z" />
    </clipPath>
  </defs>
  <sodipodi:namedview
     id="base"
     pagecolor="#ffffff"
     bordercolor="#666666"
     borderopacity="1.0"
     inkscape:pageopacity="0.0"
     inkscape:pageshadow="2"
     inkscape:zoom="2.8"
     inkscape:cx="102.85561"
     inkscape:cy="124.73015"
     inkscape:document-units="px"
     inkscape:current-layer="layer1"
     showgrid="false"
     showguides="true"
     inkscape:guide-bbox="true"
     inkscape:window-width="1315"
     inkscape:window-height="711"
     inkscape:window-x="0"
     inkscape:window-y="26"
     inkscape:window-maximized="1" />
  <metadata
     id="metadata3354">
    <rdf:RDF>
      <cc:Work
         rdf:about="">
        <dc:format>image/svg+xml</dc:format>
        <dc:type
           rdf:resource="http://purl.org/dc/dcmitype/StillImage" />
        <dc:title></dc:title>
      </cc:Work>
    </rdf:RDF>
  </metadata>
  <g
     inkscape:label="Ebene 1"
     inkscape:groupmode="layer"
     id="layer1"
     transform="translate(0,-852.36218)">
    <rect
       style="fill:url(#linearGradient4135);fill-opacity:1;stroke-width:5;stroke-miterlimit:4;stroke-dasharray:none"
       id="rect3359"
       width="285.35715"
       height="205.71428"
       x="-3.9285715"
       y="850.2193" />
    <g
       id="g2182"
       transform="matrix(2.088651,0,0,-2.088651,156.48895,1003.3039)"
       style="fill:#ffffff">
      <path
         style="fill:#ffffff;fill-opacity:1;fill-rule:nonzero;stroke:none"
         d="m 88.625,53.9375 c -2.069888,0 -3.75,1.680112 -3.75,3.75 l 0,91.125 c 0,1.01355 0.421992,1.98252 1.15625,2.6875 l 11.3125,10.90625 c 1.448246,1.39869 3.76825,1.39869 5.21875,0 l 11.53125,-11.125 12,11.5625 c 1.4505,1.39869 3.737,1.39869 5.1875,0 l 12,-11.5625 11.96875,11.5625 c 0.72525,0.70047 1.65678,1.03125 2.59375,1.03125 0.93697,0 1.89975,-0.33078 2.625,-1.03125 L 171.3125,152.375 c 0.72975,-0.70723 1.125,-1.6717 1.125,-2.6875 l 0,-76.09375 c 0,-1.004538 -0.37751,-1.951272 -1.09375,-2.65625 L 155.1875,55.03125 c -0.70047,-0.695969 -1.64073,-1.09375 -2.625,-1.09375 l -63.9375,0 z m 38.3125,20.9375 c 3.45053,-0.06776 7.20924,0.843495 9.65625,4.34375 0.0249,-0.0095 4.10022,-1.424703 7.1875,3.90625 0,0 -1.25142,-1.660243 -4.875,-1.875 0,0 4.83007,3.601482 3.5,9.375 0,0 -0.69228,0.390359 -0.875,0 -0.28951,-0.626473 -0.62667,-1.549227 -1.125,-2.5625 0.38087,1.303966 0.59375,2.659269 0.59375,4.09375 0,1.573302 -0.23307,3.091622 -0.6875,4.5 0.78428,0.371375 1.3125,1.216941 1.3125,2.1875 0,1.31464 -1.01011,2.375 -2.25,2.375 l -0.0312,0 c -0.26103,3.49899 -1.91894,6.99053 -4.375,9.40625 l 0,1.8125 c 0,0.12696 -0.006,0.2611 -0.0625,0.375 -0.31917,0.64427 -3.26568,6.28125 -6.96875,6.28125 l -0.0625,0 c -3.71019,-0.0759 -6.64365,-5.6441 -6.96875,-6.28125 -0.0581,-0.11509 -0.0937,-0.24804 -0.0937,-0.375 l 0,-1.8125 c -2.45487,-2.41453 -4.11516,-5.90963 -4.375,-9.40625 l -0.0312,0 c -1.24227,0 -2.25,-1.06036 -2.25,-2.375 0,-0.970559 0.55829,-1.816125 1.34375,-2.1875 -0.45324,-1.408378 -0.71875,-2.926698 -0.71875,-4.5 0,-2.83218 0.8159,-5.456475 2.1875,-7.65625 -2.06095,0.720207 -3.68599,1.736793 -4.125,3.125 0,0 2.51663,-11.779965 13.96875,-11.21875 -2.35283,-0.250352 -4.85067,-0.363021 -8.25,0.28125 0,0 3.93861,-1.72538 8.375,-1.8125 z m -8.0625,41.03125 0.4375,0 c 0.20052,0 0.41577,0.0613 0.59375,0.15625 0,0 -1.80914,4.27104 -2.9375,4.6875 0,0 8.81603,1.50586 10.9375,12.40625 2.12028,-10.90039 10.90625,-12.40625 10.90625,-12.40625 -1.12718,-0.41646 -2.9375,-4.6875 -2.9375,-4.6875 0.1756,-0.0949 0.39323,-0.15625 0.59375,-0.15625 l 0.625,0 c 0.20645,0 0.41459,0.0613 0.59375,0.15625 7.02765,1.75365 13.55157,5.42694 18.90625,10.625 0.23611,0.22899 0.375,0.54634 0.375,0.875 l 0,4.375 c 0,0.67631 -0.54244,1.21875 -1.21875,1.21875 l -27.84375,0 -27.875,0 c -0.67512,0 -1.21875,-0.54244 -1.21875,-1.21875 l 0,-4.375 c 0,-0.32866 0.1377,-0.64601 0.375,-0.875 5.47571,-5.3179 12.19232,-9.04144 19.40625,-10.75 0.0902,-0.0202 0.18752,-0.0312 0.28125,-0.0312 z"
         transform="matrix(0.44398534,0,0,-0.44398534,-70.085608,68.789544)"
         id="path2184"
         inkscape:connector-curvature="0" />
    </g>
    <a
       id="a4774"
       transform="translate(89.753356,4.8064644)">
      <g
         id="g4755">
        <g
           id="g3658"
           transform="matrix(1.1865019,0,0,-1.1865019,27.203727,968.30216)"
           style="fill:#000000" />
        <g
           id="g3662"
           transform="matrix(1.4861938,0,0,-1.4861938,75.592243,978.93361)"
           style="fill:#000000" />
        <g
           id="g3666"
           transform="matrix(1.1865019,0,0,-1.1865019,27.203727,932.06165)"
           style="fill:#000000">
          <g
             id="g4765" />
        </g>
      </g>
    </a>
    <g
       id="g708"
       transform="matrix(0.48902921,0,0,-0.48902921,170.12086,912.97875)"
       style="fill:#ffffff">
      <path
         inkscape:connector-curvature="0"
         d="m 0,0 c 0,-3.648 -2.959,-6.607 -6.607,-6.607 -3.649,0 -6.607,2.959 -6.607,6.607 0,3.65 2.958,6.607 6.607,6.607 C -2.959,6.607 0,3.65 0,0 m -13.191,33.566 c 22.061,0 40.01,-18.046 40.01,-40.23 l 9.539,0 c 0,27.445 -22.228,49.769 -49.549,49.769 l 0,-9.539 z m -0.015,-16.91 c 6.19,0 12.009,-2.418 16.382,-6.816 C 7.557,5.441 9.97,-0.416 9.97,-6.652 l 9.538,0 c 0,18.113 -14.676,32.847 -32.714,32.847 l 0,-9.539 z"
         style="fill:#ffffff;fill-opacity:1;fill-rule:nonzero;stroke:none"
         id="path710" />
    </g>
  </g>
</svg>
