<?xml version="1.0" encoding="utf-8"?>
<!-- Generator: Adobe Illustrator 16.2.0, SVG Export Plug-In . SVG Version: 6.00 Build 0)  -->
<!DOCTYPE svg PUBLIC "-//W3C//DTD SVG 1.0//EN" "http://www.w3.org/TR/2001/REC-SVG-20010904/DTD/svg10.dtd">
<svg version="1.0"
	 id="svg3947" xmlns:dc="http://purl.org/dc/elements/1.1/" xmlns:cc="http://creativecommons.org/ns#" xmlns:rdf="http://www.w3.org/1999/02/22-rdf-syntax-ns#" xmlns:svg="http://www.w3.org/2000/svg" xmlns:sodipodi="http://sodipodi.sourceforge.net/DTD/sodipodi-0.dtd" xmlns:inkscape="http://www.inkscape.org/namespaces/inkscape" inkscape:export-ydpi="70.175438" inkscape:export-xdpi="70.175438" inkscape:export-filename="/home/dennis/.gvfs/SFTP als www-data auf w.dsx.cc/var/www/infrastructure/fallback/www/dr/styles/images/icons/icon-twitter-48.png" sodipodi:docname="icon-twitter.svg" inkscape:version="0.48.1 r9760"
	 xmlns="http://www.w3.org/2000/svg" xmlns:xlink="http://www.w3.org/1999/xlink" x="0px" y="0px" width="61.561px"
	 height="61.561px" viewBox="0 0 61.561 61.561" enable-background="new 0 0 61.561 61.561" xml:space="preserve">
<sodipodi:namedview  inkscape:cy="20.173653" inkscape:cx="42.023984" inkscape:zoom="3.959798" showgrid="false" borderopacity="1.0" pagecolor="#ffffff" bordercolor="#666666" id="base" inkscape:current-layer="g430" inkscape:window-maximized="1" inkscape:window-y="32" inkscape:window-x="0" inkscape:window-height="743" inkscape:window-width="1024" inkscape:pageshadow="2" inkscape:pageopacity="0.0" inkscape:document-units="px" fit-margin-right="0" fit-margin-bottom="0" fit-margin-top="0" fit-margin-left="0">
	</sodipodi:namedview>
<g id="layer1" transform="translate(-340.64982,-426.33596)" inkscape:groupmode="layer" inkscape:label="Ebene 1">
	<g id="g430" transform="matrix(1.25,0,0,-1.25,390.28232,442.44665)">
		<g id="g752" transform="translate(-1.4830004,-12.015448)">
			<path id="path754" inkscape:connector-curvature="0" fill="#9C5820" d="M0,0c-0.297-1.505-1.043-3.074-2.229-4.72
				c-2.568-3.14-5.684-5.215-9.361-6.223h-0.066c-3.786-1.02-7.583-0.932-11.382,0.263c-3.314,1.252-5.991,3.25-8.009,6.014
				c2.008-1.58,3.862-2.369,5.597-2.379l0.044,0.02c2.842-0.188,5.267,0.702,7.276,2.679c0.011,0.01,0.023,0.02,0.032,0.032
				l-0.064,0.076c-1.164-0.053-1.955,0.299-2.394,1.054c-0.121,0.506,0,0.946,0.373,1.319c0.209,0.241,0.528,0.461,0.934,0.659
				c-2.052-0.055-3.467,0.658-4.27,2.148c0.616,0.661,1.405,0.977,2.361,0.924l0.011,0.03c-2.437,0.662-3.721,1.846-3.841,3.57
				c0.626,0.185,1.272,0.285,1.942,0.273v0.033c-1.898,1.077-2.853,2.557-2.843,4.416c1.745-0.541,3.468-1.231,5.169-2.066
				c1.559-0.658,2.908-1.338,4.061-2.051c0.977-0.55,1.789-1.23,2.47-2.043l0.033,0.034l0.175,0.128
				C-13.51,5.98-12.72,7.736-11.59,9.48l0.023,0.057c0.438,0.635,1.009,1.336,1.721,2.096c0.342,0.34,0.737,0.658,1.187,0.953
				c0.088-0.055-0.044-0.361-0.396-0.932c0.945,0.801,1.845,1.205,2.678,1.229c0.188-0.186-0.143-0.549-0.987-1.065
				c0.669,0.254,1.415,0.418,2.227,0.516c0.352-0.043,0.473-0.217,0.373-0.537c-0.285-0.395-1.24-0.758-2.853-1.109
				c-0.01,0-0.022,0-0.031-0.01l0.054-0.12c1.778,0.068,3.324-0.495,4.642-1.668c0.022-0.024,0.044-0.044,0.065-0.055
				c1.559-1.504,2.459-3.16,2.711-4.984c1.384-0.493,2.777-0.484,4.195,0.045C3.633,2.861,2.437,2.24,0.406,2.018
				c-0.011,0.013-0.011,0.013-0.011,0V1.82C2.25,1.457,3.501,1.393,4.137,1.613l0.022-0.035C3.303,0.459,1.92-0.066,0,0
				 M-13.598,24.904c-13.598,0-24.625-11.027-24.625-24.625c0-13.599,11.027-24.623,24.625-24.623
				c13.6,0,24.623,11.024,24.623,24.623C11.025,13.877,0.002,24.904-13.598,24.904"/>
		</g>
	</g>
</g>
</svg>
