<?xml version="1.0" encoding="utf-8"?>
<!-- Generator: Adobe Illustrator 16.2.0, SVG Export Plug-In . SVG Version: 6.00 Build 0)  -->
<!DOCTYPE svg PUBLIC "-//W3C//DTD SVG 1.0//EN" "http://www.w3.org/TR/2001/REC-SVG-20010904/DTD/svg10.dtd">
<svg version="1.0"
	 id="Ebene_3" xmlns:dc="http://purl.org/dc/elements/1.1/" xmlns:cc="http://creativecommons.org/ns#" xmlns:rdf="http://www.w3.org/1999/02/22-rdf-syntax-ns#" xmlns:svg="http://www.w3.org/2000/svg" xmlns:sodipodi="http://sodipodi.sourceforge.net/DTD/sodipodi-0.dtd" xmlns:inkscape="http://www.inkscape.org/namespaces/inkscape" inkscape:export-ydpi="70.173157" inkscape:export-xdpi="70.173157" inkscape:export-filename="/home/dennis/.gvfs/SFTP als www-data auf w.dsx.cc/var/www/infrastructure/fallback/www/dr/styles/images/icons/icon-diaspora-48.png" sodipodi:docname="icon-diaspora.svg" inkscape:version="0.48.1 r9760"
	 xmlns="http://www.w3.org/2000/svg" xmlns:xlink="http://www.w3.org/1999/xlink" x="0px" y="0px" width="61.562px"
	 height="61.562px" viewBox="0 0 61.562 61.562" enable-background="new 0 0 61.562 61.562" xml:space="preserve">
<path id="path3" fill="#9C5820" d="M61.563,30.781c0,17-13.78,30.78-30.78,30.78S0,47.781,0,30.781S13.781,0,30.781,0
	S61.563,13.781,61.563,30.781z"/>
<g>
	<path fill="#FFFFFF" d="M53.061,30.781c0,12.32-9.971,22.289-22.29,22.289c-12.299,0-22.269-9.969-22.269-22.289
		c0-12.299,9.97-22.29,22.269-22.29C43.09,8.492,53.061,18.482,53.061,30.781z M36.365,48.891
		c7.661-2.523,13.214-9.664,13.214-18.109c0-10.384-8.425-18.807-18.808-18.807c-10.361,0-18.785,8.423-18.785,18.807
		c0,8.445,5.572,15.607,13.256,18.109v-3.547c-5.485,1.24-6.639-2.568-6.639-2.568c-0.871-2.242-2.134-2.83-2.134-2.83
		C14.706,38.748,16.6,38.77,16.6,38.77c1.938,0.131,2.96,1.98,2.96,1.98c1.829,3.135,4.854,2.002,5.79,1.545
		c0.283-1.371,1.35-1.654,1.698-1.762c-4.941-0.523-10.23-2.309-10.23-10.862c0-2.395,0.849-4.354,2.242-5.878
		c-0.218-0.565-0.979-2.786,0.218-5.811c0,0,1.85-0.587,6.029,2.242c1.741-0.479,3.613-0.718,5.485-0.74
		c1.85,0.021,3.722,0.261,5.485,0.74c4.18-2.829,6.007-2.242,6.007-2.242c1.198,3.025,0.457,5.246,0.22,5.811
		c1.413,1.524,2.264,3.483,2.264,5.878c0,8.554-5.29,10.317-10.231,10.841c0.892,0.609,1.828,1.762,1.828,3.961V48.891z"/>
</g>
</svg>
