<?xml version="1.0" encoding="UTF-8" standalone="no"?>
<!-- Created with Inkscape (http://www.inkscape.org/) -->

<svg
   xmlns:dc="http://purl.org/dc/elements/1.1/"
   xmlns:cc="http://creativecommons.org/ns#"
   xmlns:rdf="http://www.w3.org/1999/02/22-rdf-syntax-ns#"
   xmlns:svg="http://www.w3.org/2000/svg"
   xmlns="http://www.w3.org/2000/svg"
   xmlns:sodipodi="http://sodipodi.sourceforge.net/DTD/sodipodi-0.dtd"
   xmlns:inkscape="http://www.inkscape.org/namespaces/inkscape"
   width="22"
   height="22"
   id="svg5050"
   version="1.1"
   inkscape:version="0.48.1 r9760"
   sodipodi:docname="icon-comments.svg">
  <defs
     id="defs5052" />
  <sodipodi:namedview
     id="base"
     pagecolor="#ffffff"
     bordercolor="#666666"
     borderopacity="1.0"
     inkscape:pageopacity="0.0"
     inkscape:pageshadow="2"
     inkscape:zoom="15.839192"
     inkscape:cx="0.082967733"
     inkscape:cy="7.5731786"
     inkscape:document-units="px"
     inkscape:current-layer="layer1"
     showgrid="false"
     inkscape:window-width="1315"
     inkscape:window-height="711"
     inkscape:window-x="0"
     inkscape:window-y="26"
     inkscape:window-maximized="1" />
  <metadata
     id="metadata5055">
    <rdf:RDF>
      <cc:Work
         rdf:about="">
        <dc:format>image/svg+xml</dc:format>
        <dc:type
           rdf:resource="http://purl.org/dc/dcmitype/StillImage" />
        <dc:title></dc:title>
      </cc:Work>
    </rdf:RDF>
  </metadata>
  <g
     inkscape:label="Ebene 1"
     inkscape:groupmode="layer"
     id="layer1"
     transform="translate(0,-1030.3622)">
    <g
       id="g218"
       transform="matrix(0.44374127,0,0,-0.44374127,21.803571,1042.7623)"
       style="fill:#612b00;fill-opacity:1">
      <path
         inkscape:connector-curvature="0"
         d="m 0,0 c -0.996,0.997 -26.844,26.845 -26.844,26.845 l -11.199,-0.327 -3.511,-3.51 c 1.03,-1.229 1.999,-2.47 2.741,-3.578 0.625,0.332 1.336,0.521 2.093,0.521 2.474,0 4.479,-2.006 4.479,-4.48 0,-2.473 -2.005,-4.478 -4.479,-4.478 -2.472,0 -4.478,2.005 -4.478,4.478 0,0.541 0.1,1.055 0.275,1.535 -1.101,0.826 -2.356,1.932 -3.566,3.066 l -2.717,-2.717 0,-11.544 26.778,-26.779 c 0,0 0.801,-1.098 1.9,0 L 0,-2.439 c 0,0 0.996,1.443 0,2.439"
         style="fill:#612b00;fill-opacity:1;fill-rule:nonzero;stroke:none"
         id="path220" />
    </g>
    <g
       id="g222"
       transform="matrix(0.44374127,0,0,-0.44374127,4.8302472,1035.5246)"
       style="fill:#612b00;fill-opacity:1">
      <path
         inkscape:connector-curvature="0"
         d="m 0,0 c 0.031,0 0.085,0.003 0.107,0.025 0.635,0.635 -3.285,5.823 -8.571,11.354 -0.146,0.027 -0.448,0.077 -0.791,0.077 -0.448,0 -1.051,-0.085 -1.372,-0.491 C -10.9,10.62 -10.957,10.072 -10.796,9.334 -7.402,5.695 -1.526,0 0,0"
         style="fill:#612b00;fill-opacity:1;fill-rule:nonzero;stroke:none"
         id="path224" />
    </g>
  </g>
</svg>
