<?xml version="1.0" encoding="UTF-8" standalone="no"?>
<!-- Created with Inkscape (http://www.inkscape.org/) -->

<svg
   xmlns:dc="http://purl.org/dc/elements/1.1/"
   xmlns:cc="http://creativecommons.org/ns#"
   xmlns:rdf="http://www.w3.org/1999/02/22-rdf-syntax-ns#"
   xmlns:svg="http://www.w3.org/2000/svg"
   xmlns="http://www.w3.org/2000/svg"
   xmlns:sodipodi="http://sodipodi.sourceforge.net/DTD/sodipodi-0.dtd"
   xmlns:inkscape="http://www.inkscape.org/namespaces/inkscape"
   width="56.029999"
   height="56.029999"
   id="svg4992"
   version="1.1"
   inkscape:version="0.48.1 r9760"
   sodipodi:docname="icon-search.svg"
   inkscape:export-filename="/home/dennis/.gvfs/SFTP als www-data auf w.dsx.cc/var/www/infrastructure/fallback/www/dr/styles/images/icons/icon-search-20.png"
   inkscape:export-xdpi="31.522289"
   inkscape:export-ydpi="31.522289">
  <defs
     id="defs4994" />
  <sodipodi:namedview
     id="base"
     pagecolor="#ffffff"
     bordercolor="#666666"
     borderopacity="1.0"
     inkscape:pageopacity="0.0"
     inkscape:pageshadow="2"
     inkscape:zoom="11.2"
     inkscape:cx="18.856861"
     inkscape:cy="24.79154"
     inkscape:document-units="px"
     inkscape:current-layer="layer1"
     showgrid="false"
     fit-margin-top="0"
     fit-margin-left="0"
     fit-margin-right="0"
     fit-margin-bottom="0"
     units="px"
     inkscape:window-width="1627"
     inkscape:window-height="1001"
     inkscape:window-x="1024"
     inkscape:window-y="24"
     inkscape:window-maximized="1" />
  <metadata
     id="metadata4997">
    <rdf:RDF>
      <cc:Work
         rdf:about="">
        <dc:format>image/svg+xml</dc:format>
        <dc:type
           rdf:resource="http://purl.org/dc/dcmitype/StillImage" />
        <dc:title></dc:title>
      </cc:Work>
    </rdf:RDF>
  </metadata>
  <g
     inkscape:label="Ebene 1"
     inkscape:groupmode="layer"
     id="layer1"
     transform="translate(-364.30289,-261.49317)">
    <path
       inkscape:connector-curvature="0"
       d="m 374.43435,279.56433 c 0,-6.44375 5.245,-11.69125 11.69125,-11.69125 6.4475,0 11.69125,5.2475 11.69125,11.69125 0,6.44875 -5.24375,11.6925 -11.69125,11.6925 -6.44625,0 -11.69125,-5.24375 -11.69125,-11.6925 m 41.55375,31.7875 -13.58125,-18.09 -0.98125,0 -0.98625,0.985 -1.44875,-2.00125 c 3.22,-3.265 5.21125,-7.74125 5.21125,-12.68125 0,-9.96625 -8.1075,-18.07625 -18.07625,-18.07625 -9.9675,0 -18.07625,8.11 -18.07625,18.07625 0,9.96875 8.10875,18.0775 18.07625,18.0775 2.9525,0 5.73625,-0.7275 8.2025,-1.98625 l 1.80875,2.06125 -1.08875,1.09125 0,0.5175 c 0,0 13.3725,16.7925 14.2025,17.62125 0.82875,0.83 2.69375,0.5175 2.69375,0.5175 0,0 2.6975,-1.55625 4.04375,-2.90125 1.34625,-1.34875 0,-3.21125 0,-3.21125"
       style="fill:#eae3d8;fill-opacity:1;fill-rule:nonzero;stroke:none"
       id="path76" />
  </g>
</svg>
