<?xml version="1.0" encoding="UTF-8" standalone="no"?>
<!-- Created with Inkscape (http://www.inkscape.org/) -->

<svg
   xmlns:dc="http://purl.org/dc/elements/1.1/"
   xmlns:cc="http://creativecommons.org/ns#"
   xmlns:rdf="http://www.w3.org/1999/02/22-rdf-syntax-ns#"
   xmlns:svg="http://www.w3.org/2000/svg"
   xmlns="http://www.w3.org/2000/svg"
   xmlns:sodipodi="http://sodipodi.sourceforge.net/DTD/sodipodi-0.dtd"
   xmlns:inkscape="http://www.inkscape.org/namespaces/inkscape"
   width="22"
   height="22"
   id="svg5050"
   version="1.1"
   inkscape:version="0.48.1 r9760"
   sodipodi:docname="icon-date.svg">
  <defs
     id="defs5052" />
  <sodipodi:namedview
     id="base"
     pagecolor="#ffffff"
     bordercolor="#666666"
     borderopacity="1.0"
     inkscape:pageopacity="0.0"
     inkscape:pageshadow="2"
     inkscape:zoom="15.839192"
     inkscape:cx="0.082967733"
     inkscape:cy="11.375126"
     inkscape:document-units="px"
     inkscape:current-layer="layer1"
     showgrid="false"
     inkscape:window-width="1315"
     inkscape:window-height="711"
     inkscape:window-x="0"
     inkscape:window-y="26"
     inkscape:window-maximized="1" />
  <metadata
     id="metadata5055">
    <rdf:RDF>
      <cc:Work
         rdf:about="">
        <dc:format>image/svg+xml</dc:format>
        <dc:type
           rdf:resource="http://purl.org/dc/dcmitype/StillImage" />
        <dc:title></dc:title>
      </cc:Work>
    </rdf:RDF>
  </metadata>
  <g
     inkscape:label="Ebene 1"
     inkscape:groupmode="layer"
     id="layer1"
     transform="translate(0,-1030.3622)">
    <g
       id="g946"
       transform="matrix(0.4410843,0,0,-0.4410843,5.7797606,1047.8297)"
       style="fill:#612b00;fill-opacity:1">
      <path
         inkscape:connector-curvature="0"
         d="m 0,0 c 0.904,-0.594 2.724,-1.286 4.877,-1.286 4.819,0 7.015,3.06 7.015,5.906 0,1.971 -1.054,3.643 -2.746,4.54 1.343,0.951 2.085,2.333 2.085,3.959 0,2.414 -1.752,4.849 -5.668,4.849 -2.146,0 -4.01,-0.786 -4.955,-1.46 -0.279,-0.199 -0.39,-0.563 -0.269,-0.885 l 0.634,-1.689 c 0.083,-0.221 0.264,-0.39 0.489,-0.458 0.226,-0.07 0.471,-0.029 0.663,0.108 0.64,0.458 1.808,0.994 2.989,0.994 1.451,0 2.25,-0.65 2.25,-1.828 0,-1.574 -1.834,-2.146 -3.068,-2.146 l -1.293,0 c -0.419,0 -0.759,-0.339 -0.759,-0.758 l 0,-1.743 c 0,-0.418 0.34,-0.758 0.759,-0.758 l 1.293,0 C 4.905,7.345 7.943,7.216 7.973,4.659 7.984,4.005 7.742,3.377 7.311,2.937 6.768,2.385 5.94,2.104 4.851,2.104 3.404,2.104 2.026,2.701 1.439,3.053 1.245,3.169 1.006,3.193 0.794,3.116 0.58,3.041 0.411,2.872 0.335,2.657 L -0.299,0.89 C -0.417,0.56 -0.294,0.192 0,0"
         style="fill:#612b00;fill-opacity:1;fill-rule:nonzero;stroke:none"
         id="path948" />
    </g>
    <g
       id="g950"
       transform="matrix(0.4410843,0,0,-0.4410843,12.2414,1042.1141)"
       style="fill:#612b00;fill-opacity:1">
      <path
         inkscape:connector-curvature="0"
         d="m 0,0 c 0.058,-0.226 0.216,-0.413 0.43,-0.508 0.215,-0.095 0.459,-0.083 0.666,0.028 l 1.916,1.034 0,-13.749 c 0,-0.418 0.34,-0.758 0.759,-0.758 l 2.244,0 c 0.419,0 0.758,0.34 0.758,0.758 l 0,17.156 C 6.773,4.38 6.434,4.72 6.015,4.72 l -1.981,0 C 3.91,4.72 3.787,4.69 3.677,4.631 L -0.071,2.625 C -0.379,2.46 -0.534,2.107 -0.448,1.77 L 0,0 z"
         style="fill:#612b00;fill-opacity:1;fill-rule:nonzero;stroke:none"
         id="path952" />
    </g>
    <g
       id="g954"
       transform="matrix(0.4410843,0,0,-0.4410843,18.782712,1050.3245)"
       style="fill:#612b00;fill-opacity:1">
      <path
         inkscape:connector-curvature="0"
         d="m 0,0 c 0,-0.897 -0.729,-1.628 -1.628,-1.628 l -32.033,0 c -0.899,0 -1.628,0.731 -1.628,1.628 l 0,30.676 L 0,30.676 0,0 z m -1.628,42.279 -3.811,0 0,-3.482 c 0,-1.324 -1.077,-2.401 -2.401,-2.401 -1.323,0 -2.4,1.077 -2.4,2.401 l 0,3.482 -14.809,0 0,-3.482 c 0,-1.324 -1.077,-2.401 -2.4,-2.401 -1.324,0 -2.401,1.077 -2.401,2.401 l 0,3.482 -3.811,0 c -2.571,0 -4.663,-2.091 -4.663,-4.662 l 0,-37.617 c 0,-2.57 2.092,-4.663 4.663,-4.663 l 32.033,0 c 2.571,0 4.663,2.093 4.663,4.663 l 0,37.617 c 0,2.571 -2.092,4.662 -4.663,4.662"
         style="fill:#612b00;fill-opacity:1;fill-rule:nonzero;stroke:none"
         id="path956" />
    </g>
    <g
       id="g958"
       transform="matrix(0.4410843,0,0,-0.4410843,6.6753078,1033.6016)"
       style="fill:#612b00;fill-opacity:1">
      <path
         inkscape:connector-curvature="0"
         d="m 0,0 c 0.488,0 0.883,0.396 0.883,0.884 l 0,3.482 0,2.051 c 0,0.488 -0.395,0.884 -0.883,0.884 -0.488,0 -0.884,-0.396 -0.884,-0.884 l 0,-2.051 0,-3.482 C -0.884,0.396 -0.488,0 0,0"
         style="fill:#612b00;fill-opacity:1;fill-rule:nonzero;stroke:none"
         id="path960" />
    </g>
    <g
       id="g962"
       transform="matrix(0.4410843,0,0,-0.4410843,15.324654,1033.6016)"
       style="fill:#612b00;fill-opacity:1">
      <path
         inkscape:connector-curvature="0"
         d="m 0,0 c 0.488,0 0.884,0.396 0.884,0.884 l 0,5.533 c 0,0.488 -0.396,0.884 -0.884,0.884 -0.488,0 -0.883,-0.396 -0.883,-0.884 l 0,-5.533 C -0.883,0.396 -0.488,0 0,0"
         style="fill:#612b00;fill-opacity:1;fill-rule:nonzero;stroke:none"
         id="path964" />
    </g>
  </g>
</svg>
