<?xml version="1.0" encoding="utf-8"?>
<!-- Generator: Adobe Illustrator 16.2.0, SVG Export Plug-In . SVG Version: 6.00 Build 0)  -->
<!DOCTYPE svg PUBLIC "-//W3C//DTD SVG 1.0//EN" "http://www.w3.org/TR/2001/REC-SVG-20010904/DTD/svg10.dtd">
<svg version="1.0"
	 id="svg4792" xmlns:dc="http://purl.org/dc/elements/1.1/" xmlns:cc="http://creativecommons.org/ns#" xmlns:rdf="http://www.w3.org/1999/02/22-rdf-syntax-ns#" xmlns:svg="http://www.w3.org/2000/svg" xmlns:sodipodi="http://sodipodi.sourceforge.net/DTD/sodipodi-0.dtd" xmlns:inkscape="http://www.inkscape.org/namespaces/inkscape" inkscape:export-ydpi="69.442215" inkscape:export-xdpi="69.442215" inkscape:export-filename="/home/dennis/.gvfs/SFTP als www-data auf w.dsx.cc/var/www/infrastructure/fallback/www/dr/styles/images/icons/icon-rss-48.png" sodipodi:docname="icon-rss.svg" inkscape:version="0.48.1 r9760"
	 xmlns="http://www.w3.org/2000/svg" xmlns:xlink="http://www.w3.org/1999/xlink" x="0px" y="0px" width="61.562px"
	 height="61.562px" viewBox="0 0 61.562 61.562" enable-background="new 0 0 61.562 61.562" xml:space="preserve">
<sodipodi:namedview  inkscape:cy="33.090609" inkscape:cx="18.018579" inkscape:zoom="2.8" showgrid="false" borderopacity="1.0" pagecolor="#ffffff" bordercolor="#666666" id="base" inkscape:current-layer="layer1" inkscape:window-maximized="1" inkscape:window-y="32" inkscape:window-x="0" inkscape:window-height="743" inkscape:window-width="1024" inkscape:pageshadow="2" inkscape:pageopacity="0.0" inkscape:document-units="px" fit-margin-right="0" fit-margin-bottom="0" fit-margin-top="0" fit-margin-left="0">
	</sodipodi:namedview>
<g id="layer1" transform="translate(-212.19839,-298.72441)" inkscape:groupmode="layer" inkscape:label="Ebene 1">
	<g id="g868" transform="matrix(1.25,0,0,-1.25,253.90589,343.42441)">
		<path id="path870" inkscape:connector-curvature="0" fill="#9C5820" d="M0,0c0,10.867-8.795,19.711-19.605,19.711v4.676
			C-6.218,24.387,4.674,13.445,4.674,0H0z M-8.256,0.004c0,3.057-1.182,5.928-3.329,8.082c-2.143,2.154-4.993,3.342-8.028,3.342
			v4.674c8.84,0,16.03-7.223,16.03-16.098H-8.256z M-16.379,0.025c-1.787,0-3.236,1.452-3.236,3.239
			c0,1.789,1.449,3.238,3.236,3.238c1.788,0,3.238-1.449,3.238-3.238C-13.141,1.477-14.591,0.025-16.379,0.025 M-8.741,35.76
			c-13.601,0-24.625-11.026-24.625-24.625c0-13.602,11.024-24.625,24.625-24.625c13.6,0,24.625,11.023,24.625,24.625
			C15.884,24.734,4.859,35.76-8.741,35.76"/>
	</g>
</g>
</svg>
