<?xml version="1.0" encoding="utf-8"?>
<!-- Generator: Adobe Illustrator 16.2.0, SVG Export Plug-In . SVG Version: 6.00 Build 0)  -->
<!DOCTYPE svg PUBLIC "-//W3C//DTD SVG 1.0//EN" "http://www.w3.org/TR/2001/REC-SVG-20010904/DTD/svg10.dtd">
<svg version="1.0"
	 id="Ebene_3" xmlns:dc="http://purl.org/dc/elements/1.1/" xmlns:cc="http://creativecommons.org/ns#" xmlns:rdf="http://www.w3.org/1999/02/22-rdf-syntax-ns#" xmlns:svg="http://www.w3.org/2000/svg" xmlns:sodipodi="http://sodipodi.sourceforge.net/DTD/sodipodi-0.dtd" xmlns:inkscape="http://www.inkscape.org/namespaces/inkscape" inkscape:export-ydpi="70.173157" inkscape:export-xdpi="70.173157" inkscape:export-filename="/home/dennis/.gvfs/SFTP als www-data auf w.dsx.cc/var/www/infrastructure/fallback/www/dr/styles/images/icons/icon-diaspora-48.png" sodipodi:docname="icon-diaspora.svg" inkscape:version="0.48.1 r9760"
	 xmlns="http://www.w3.org/2000/svg" xmlns:xlink="http://www.w3.org/1999/xlink" x="0px" y="0px" width="61.562px"
	 height="61.562px" viewBox="0 0 61.562 61.562" enable-background="new 0 0 61.562 61.562" xml:space="preserve">
<sodipodi:namedview  inkscape:cy="30.7815" inkscape:cx="30.7815" inkscape:zoom="4.8893004" showgrid="false" guidetolerance="10" gridtolerance="10" objecttolerance="10" borderopacity="1" pagecolor="#ffffff" bordercolor="#666666" id="namedview5" inkscape:current-layer="Ebene_3" inkscape:window-maximized="1" inkscape:window-y="24" inkscape:window-x="1024" inkscape:window-height="1001" inkscape:window-width="1627" inkscape:pageshadow="2" inkscape:pageopacity="0">
	</sodipodi:namedview>
<path id="path3" fill="#9C5820" d="M61.563,30.781c0,17-13.78,30.78-30.78,30.78S0,47.781,0,30.781S13.781,0,30.781,0
	S61.563,13.781,61.563,30.781z M50.554,22.453c-1.125-2.658-2.652-4.948-4.584-6.871c-1.916-1.924-4.199-3.45-6.85-4.582
	c-2.634-1.132-5.394-1.696-8.283-1.696c-2.909,0-5.698,0.564-8.367,1.696c-2.649,1.132-4.941,2.658-6.875,4.582
	c-1.914,1.923-3.442,4.213-4.583,6.871C9.87,25.111,9.3,27.901,9.3,30.825c0,2.921,0.57,5.711,1.712,8.367
	c1.141,2.64,2.669,4.908,4.583,6.814c1.934,1.904,4.226,3.424,6.875,4.553c2.669,1.132,5.458,1.698,8.367,1.698
	c2.891,0,5.649-0.566,8.283-1.698c2.649-1.129,4.934-2.647,6.85-4.553c1.932-1.906,3.459-4.176,4.584-6.814
	c1.139-2.656,1.709-5.446,1.709-8.367C52.263,27.901,51.692,25.111,50.554,22.453 M13.718,30.825c0-2.341,0.441-4.563,1.325-6.676
	c0.9-2.131,2.116-3.96,3.646-5.486c1.527-1.526,3.35-2.742,5.468-3.647c2.115-0.905,4.344-1.356,6.682-1.356
	c3.094,0,5.945,0.764,8.559,2.29c2.636,1.526,4.713,3.609,6.238,6.249c1.529,2.642,2.297,5.517,2.297,8.628
	c0,3.089-0.768,5.955-2.297,8.594c-1.525,2.621-3.604,4.705-6.238,6.252c-2.612,1.523-5.465,2.289-8.559,2.289
	c-2.338,0-4.575-0.451-6.71-1.358c-2.117-0.903-3.939-2.121-5.467-3.646c-1.511-1.546-2.717-3.376-3.617-5.486
	C14.159,35.357,13.718,33.14,13.718,30.825 M27.926,17.227v8.408l-8.741-2.187l-1.602,6.601l8.25,1.975l-5.089,7.778l5.417,3.868
	l5.173-7.819l5.134,7.819l5.416-3.868l-5.172-7.778l8.289-1.975l-1.558-6.601L34.7,25.635v-8.408H27.926"/>
</svg>
