<?xml version="1.0" encoding="utf-8"?>
<!-- Generator: Adobe Illustrator 16.2.0, SVG Export Plug-In . SVG Version: 6.00 Build 0)  -->
<!DOCTYPE svg PUBLIC "-//W3C//DTD SVG 1.0//EN" "http://www.w3.org/TR/2001/REC-SVG-20010904/DTD/svg10.dtd">
<svg version="1.0"
	 id="Ebene_3" xmlns:dc="http://purl.org/dc/elements/1.1/" xmlns:cc="http://creativecommons.org/ns#" xmlns:rdf="http://www.w3.org/1999/02/22-rdf-syntax-ns#" xmlns:svg="http://www.w3.org/2000/svg" xmlns:sodipodi="http://sodipodi.sourceforge.net/DTD/sodipodi-0.dtd" xmlns:inkscape="http://www.inkscape.org/namespaces/inkscape" inkscape:export-ydpi="70.173157" inkscape:export-xdpi="70.173157" inkscape:export-filename="/home/dennis/.gvfs/SFTP als www-data auf w.dsx.cc/var/www/infrastructure/fallback/www/dr/styles/images/icons/icon-diaspora-48.png" sodipodi:docname="icon-diaspora.svg" inkscape:version="0.48.1 r9760"
	 xmlns="http://www.w3.org/2000/svg" xmlns:xlink="http://www.w3.org/1999/xlink" x="0px" y="0px" width="61.562px"
	 height="61.562px" viewBox="0 0 61.562 61.562" enable-background="new 0 0 61.562 61.562" xml:space="preserve">
<path id="path3" fill="#9C5820" d="M61.563,30.781c0,17-13.78,30.78-30.78,30.78S0,47.781,0,30.781S13.781,0,30.781,0
	S61.563,13.781,61.563,30.781z"/>
<g>
	<path fill="#FFFFFF" d="M52.242,30.782c0,11.867-9.605,21.47-21.471,21.47c-11.847,0-21.45-9.604-21.45-21.47
		c0-11.848,9.603-21.471,21.45-21.471C42.637,9.311,52.242,18.934,52.242,30.782z M36.158,48.225
		c7.381-2.43,12.729-9.309,12.729-17.443c0-10.002-8.115-18.116-18.116-18.116c-9.98,0-18.095,8.113-18.095,18.116
		c0,8.134,5.367,15.033,12.769,17.443v-3.416c-5.284,1.195-6.395-2.475-6.395-2.475c-0.839-2.158-2.056-2.725-2.056-2.725
		c-1.698-1.154,0.126-1.133,0.126-1.133c1.867,0.125,2.852,1.908,2.852,1.908c1.762,3.02,4.676,1.928,5.577,1.488
		c0.272-1.322,1.3-1.594,1.636-1.697c-4.76-0.504-9.854-2.225-9.854-10.464c0-2.307,0.817-4.193,2.16-5.662
		c-0.209-0.545-0.943-2.684,0.21-5.598c0,0,1.782-0.565,5.808,2.159c1.677-0.461,3.48-0.692,5.284-0.712
		c1.781,0.021,3.585,0.251,5.285,0.712c4.025-2.725,5.785-2.159,5.785-2.159c1.154,2.914,0.439,5.053,0.211,5.598
		c1.361,1.468,2.182,3.355,2.182,5.662c0,8.239-5.096,9.938-9.855,10.442c0.859,0.588,1.76,1.697,1.76,3.816V48.225z"/>
</g>
</svg>
