<?xml version="1.0" encoding="utf-8"?>
<!-- Generator: Adobe Illustrator 16.2.0, SVG Export Plug-In . SVG Version: 6.00 Build 0)  -->
<!DOCTYPE svg PUBLIC "-//W3C//DTD SVG 1.0//EN" "http://www.w3.org/TR/2001/REC-SVG-20010904/DTD/svg10.dtd">
<svg version="1.0" id="Layer_3" xmlns="http://www.w3.org/2000/svg" xmlns:xlink="http://www.w3.org/1999/xlink" x="0px" y="0px"
	 width="61.562px" height="61.562px" viewBox="0 0 61.562 61.562" enable-background="new 0 0 61.562 61.562" xml:space="preserve">
<path fill="#9C5820" d="M30.781,0C13.781,0,0,13.781,0,30.781s13.782,30.78,30.782,30.78s30.78-13.78,30.78-30.78S47.781,0,30.781,0
	z M30.771,52.252c-11.847,0-21.45-9.604-21.45-21.47c0-11.848,9.603-21.471,21.45-21.471c11.866,0,21.471,9.623,21.471,21.471
	C52.242,42.649,42.637,52.252,30.771,52.252z"/>
<path fill="#9C5820" d="M30.771,12.666c-9.98,0-18.095,8.113-18.095,18.116c0,8.134,5.367,15.033,12.769,17.443v-3.416
	c-5.284,1.195-6.395-2.475-6.395-2.475c-0.839-2.158-2.056-2.725-2.056-2.725c-1.698-1.154,0.126-1.133,0.126-1.133
	c1.867,0.125,2.852,1.908,2.852,1.908c1.762,3.02,4.676,1.928,5.577,1.488c0.272-1.322,1.3-1.594,1.636-1.697
	c-4.76-0.504-9.854-2.225-9.854-10.464c0-2.307,0.817-4.193,2.16-5.662c-0.209-0.545-0.943-2.684,0.21-5.598
	c0,0,1.782-0.565,5.808,2.159c1.677-0.461,3.48-0.692,5.284-0.712c1.781,0.021,3.585,0.251,5.285,0.712
	c4.025-2.725,5.785-2.159,5.785-2.159c1.154,2.914,0.439,5.053,0.211,5.598c1.361,1.468,2.182,3.355,2.182,5.662
	c0,8.239-5.096,9.938-9.855,10.442c0.859,0.588,1.76,1.697,1.76,3.816v4.254c7.381-2.43,12.729-9.309,12.729-17.443
	C48.887,20.78,40.772,12.666,30.771,12.666z"/>
</svg>
