<?xml version="1.0" encoding="UTF-8" standalone="no"?>
<!-- Created with Inkscape (http://www.inkscape.org/) -->

<svg
   xmlns:dc="http://purl.org/dc/elements/1.1/"
   xmlns:cc="http://creativecommons.org/ns#"
   xmlns:rdf="http://www.w3.org/1999/02/22-rdf-syntax-ns#"
   xmlns:svg="http://www.w3.org/2000/svg"
   xmlns="http://www.w3.org/2000/svg"
   xmlns:sodipodi="http://sodipodi.sourceforge.net/DTD/sodipodi-0.dtd"
   xmlns:inkscape="http://www.inkscape.org/namespaces/inkscape"
   width="61.560001"
   height="61.560001"
   id="svg3947"
   version="1.1"
   inkscape:version="0.48.1 r9760"
   sodipodi:docname="icon-twitter.svg"
   inkscape:export-filename="/home/dennis/.gvfs/SFTP als www-data auf w.dsx.cc/var/www/infrastructure/fallback/www/dr/styles/images/icons/icon-twitter-48.png"
   inkscape:export-xdpi="70.175438"
   inkscape:export-ydpi="70.175438">
  <defs
     id="defs3949" />
  <sodipodi:namedview
     id="base"
     pagecolor="#ffffff"
     bordercolor="#666666"
     borderopacity="1.0"
     inkscape:pageopacity="0.0"
     inkscape:pageshadow="2"
     inkscape:zoom="3.959798"
     inkscape:cx="42.023984"
     inkscape:cy="20.173653"
     inkscape:document-units="px"
     inkscape:current-layer="g430"
     showgrid="false"
     fit-margin-top="0"
     fit-margin-left="0"
     fit-margin-right="0"
     fit-margin-bottom="0"
     inkscape:window-width="1024"
     inkscape:window-height="743"
     inkscape:window-x="0"
     inkscape:window-y="32"
     inkscape:window-maximized="1" />
  <metadata
     id="metadata3952">
    <rdf:RDF>
      <cc:Work
         rdf:about="">
        <dc:format>image/svg+xml</dc:format>
        <dc:type
           rdf:resource="http://purl.org/dc/dcmitype/StillImage" />
        <dc:title></dc:title>
      </cc:Work>
    </rdf:RDF>
  </metadata>
  <g
     inkscape:label="Ebene 1"
     inkscape:groupmode="layer"
     id="layer1"
     transform="translate(-340.64982,-426.33596)">
    <g
       id="g430"
       transform="matrix(1.25,0,0,-1.25,390.28232,442.44665)">
      <g
         id="g752"
         transform="translate(-1.4830004,-12.015448)">
        <path
           inkscape:connector-curvature="0"
           d="m 0,0 c -0.297,-1.504 -1.043,-3.074 -2.229,-4.719 -2.568,-3.14 -5.684,-5.215 -9.361,-6.224 l -0.065,0 c -3.786,-1.02 -7.583,-0.932 -11.382,0.263 -3.314,1.252 -5.991,3.25 -8.01,6.014 2.008,-1.58 3.863,-2.369 5.597,-2.379 l 0.044,0.02 c 2.842,-0.188 5.267,0.703 7.276,2.679 0.011,0.01 0.023,0.02 0.032,0.032 l -0.064,0.076 c -1.164,-0.053 -1.955,0.299 -2.394,1.054 -0.121,0.506 0,0.946 0.373,1.319 0.208,0.24 0.528,0.461 0.933,0.658 -2.052,-0.055 -3.467,0.658 -4.27,2.148 0.616,0.661 1.405,0.977 2.361,0.924 l 0.011,0.031 c -2.437,0.661 -3.721,1.846 -3.841,3.569 0.626,0.185 1.272,0.285 1.942,0.273 l 0,0.033 c -1.898,1.077 -2.853,2.557 -2.843,4.415 1.745,-0.541 3.468,-1.231 5.169,-2.065 1.559,-0.658 2.908,-1.338 4.061,-2.051 0.977,-0.55 1.789,-1.23 2.47,-2.043 l 0.033,0.034 0.175,0.128 c 0.472,1.791 1.262,3.547 2.392,5.291 l 0.023,0.057 c 0.438,0.635 1.009,1.336 1.721,2.096 0.342,0.34 0.737,0.658 1.187,0.953 0.088,-0.055 -0.044,-0.361 -0.396,-0.932 0.945,0.801 1.844,1.205 2.678,1.229 0.187,-0.186 -0.143,-0.549 -0.987,-1.065 0.669,0.254 1.415,0.418 2.227,0.516 0.352,-0.043 0.473,-0.217 0.373,-0.537 -0.285,-0.395 -1.24,-0.758 -2.853,-1.109 -0.01,0 -0.022,0 -0.031,-0.01 l 0.054,-0.121 C -5.816,10.625 -4.27,10.063 -2.952,8.889 -2.93,8.865 -2.908,8.846 -2.887,8.834 -1.328,7.33 -0.429,5.674 -0.176,3.85 1.207,3.357 2.601,3.367 4.018,3.896 3.633,2.861 2.437,2.24 0.406,2.018 0.395,2.031 0.395,2.031 0.395,2.018 l 0,-0.198 C 2.25,1.457 3.501,1.393 4.137,1.613 L 4.159,1.578 C 3.303,0.459 1.92,-0.066 0,0 m -13.598,24.904 c -13.599,0 -24.625,-11.027 -24.625,-24.625 0,-13.599 11.026,-24.623 24.625,-24.623 13.6,0 24.623,11.024 24.623,24.623 0,13.598 -11.023,24.625 -24.623,24.625"
           style="fill:#9c5820;fill-opacity:1;fill-rule:nonzero;stroke:none"
           id="path754" />
      </g>
    </g>
  </g>
</svg>
