<?xml version="1.0" encoding="UTF-8" standalone="no"?>
<!-- Created with Inkscape (http://www.inkscape.org/) -->

<svg
   xmlns:dc="http://purl.org/dc/elements/1.1/"
   xmlns:cc="http://creativecommons.org/ns#"
   xmlns:rdf="http://www.w3.org/1999/02/22-rdf-syntax-ns#"
   xmlns:svg="http://www.w3.org/2000/svg"
   xmlns="http://www.w3.org/2000/svg"
   xmlns:sodipodi="http://sodipodi.sourceforge.net/DTD/sodipodi-0.dtd"
   xmlns:inkscape="http://www.inkscape.org/namespaces/inkscape"
   width="61.310001"
   height="61.310001"
   id="svg6888"
   version="1.1"
   inkscape:version="0.48.1 r9760"
   sodipodi:docname="icon-delete.svg">
  <defs
     id="defs6890" />
  <sodipodi:namedview
     id="base"
     pagecolor="#ffffff"
     bordercolor="#666666"
     borderopacity="1.0"
     inkscape:pageopacity="0.0"
     inkscape:pageshadow="2"
     inkscape:zoom="3.959798"
     inkscape:cx="10.394105"
     inkscape:cy="36.377992"
     inkscape:document-units="px"
     inkscape:current-layer="layer1"
     showgrid="false"
     fit-margin-top="0"
     fit-margin-left="0"
     fit-margin-right="0"
     fit-margin-bottom="0"
     inkscape:window-width="1315"
     inkscape:window-height="711"
     inkscape:window-x="0"
     inkscape:window-y="26"
     inkscape:window-maximized="1" />
  <metadata
     id="metadata6893">
    <rdf:RDF>
      <cc:Work
         rdf:about="">
        <dc:format>image/svg+xml</dc:format>
        <dc:type
           rdf:resource="http://purl.org/dc/dcmitype/StillImage" />
        <dc:title></dc:title>
      </cc:Work>
    </rdf:RDF>
  </metadata>
  <g
     inkscape:label="Ebene 1"
     inkscape:groupmode="layer"
     id="layer1"
     transform="translate(-330.88773,-501.70794)">
    <g
       id="g4103"
       transform="matrix(1.2280667,0,0,-1.2280667,388.84634,515.22773)"
       style="fill:#9c5820;fill-opacity:1">
      <path
         inkscape:connector-curvature="0"
         d="m 0,0 c 0,0.221 -0.179,0.402 -0.4,0.402 l -43.666,0 c -0.222,0 -0.401,-0.181 -0.401,-0.402 l 0,-27.905 c 0,-0.223 0.179,-0.402 0.401,-0.402 l 43.666,0 c 0.221,0 0.4,0.179 0.4,0.402 L 0,0 z m -47.195,-27.905 0,27.905 c 0,1.726 1.404,3.129 3.129,3.129 l 43.666,0 C 1.324,3.129 2.729,1.726 2.729,0 l 0,-27.905 c 0,-1.726 -1.405,-3.13 -3.129,-3.13 l -43.666,0 c -1.725,0 -3.129,1.404 -3.129,3.13"
         style="fill:#9c5820;fill-opacity:1;fill-rule:nonzero;stroke:none"
         id="path4105" />
    </g>
    <g
       id="g4107"
       transform="matrix(1.2280667,0,0,-1.2280667,361.21607,538.9148)"
       style="fill:#9c5820;fill-opacity:1">
      <path
         inkscape:connector-curvature="0"
         d="m 0,0 c -0.331,0 -0.662,0.109 -0.936,0.327 l -18.413,14.682 c -0.647,0.516 -0.754,1.46 -0.237,2.108 0.518,0.648 1.461,0.754 2.108,0.237 L 0.013,3.408 17.924,17.315 c 0.654,0.51 1.597,0.39 2.104,-0.264 0.508,-0.655 0.39,-1.597 -0.264,-2.105 L 0.92,0.315 C 0.649,0.104 0.324,0 0,0"
         style="fill:#9c5820;fill-opacity:1;fill-rule:nonzero;stroke:none"
         id="path4109" />
    </g>
  </g>
</svg>
