<?xml version="1.0" encoding="UTF-8" standalone="no"?>
<!-- Created with Inkscape (http://www.inkscape.org/) -->

<svg
   xmlns:dc="http://purl.org/dc/elements/1.1/"
   xmlns:cc="http://creativecommons.org/ns#"
   xmlns:rdf="http://www.w3.org/1999/02/22-rdf-syntax-ns#"
   xmlns:svg="http://www.w3.org/2000/svg"
   xmlns="http://www.w3.org/2000/svg"
   xmlns:sodipodi="http://sodipodi.sourceforge.net/DTD/sodipodi-0.dtd"
   xmlns:inkscape="http://www.inkscape.org/namespaces/inkscape"
   width="61.5625"
   height="61.5625"
   id="svg4792"
   version="1.1"
   inkscape:version="0.48.1 r9760"
   sodipodi:docname="icon-rss.svg"
   inkscape:export-filename="/home/dennis/.gvfs/SFTP als www-data auf w.dsx.cc/var/www/infrastructure/fallback/www/dr/styles/images/icons/icon-rss-48.png"
   inkscape:export-xdpi="69.442215"
   inkscape:export-ydpi="69.442215">
  <defs
     id="defs4794" />
  <sodipodi:namedview
     id="base"
     pagecolor="#ffffff"
     bordercolor="#666666"
     borderopacity="1.0"
     inkscape:pageopacity="0.0"
     inkscape:pageshadow="2"
     inkscape:zoom="2.8"
     inkscape:cx="18.018579"
     inkscape:cy="33.090609"
     inkscape:document-units="px"
     inkscape:current-layer="layer1"
     showgrid="false"
     fit-margin-top="0"
     fit-margin-left="0"
     fit-margin-right="0"
     fit-margin-bottom="0"
     inkscape:window-width="1024"
     inkscape:window-height="743"
     inkscape:window-x="0"
     inkscape:window-y="32"
     inkscape:window-maximized="1" />
  <metadata
     id="metadata4797">
    <rdf:RDF>
      <cc:Work
         rdf:about="">
        <dc:format>image/svg+xml</dc:format>
        <dc:type
           rdf:resource="http://purl.org/dc/dcmitype/StillImage" />
        <dc:title></dc:title>
      </cc:Work>
    </rdf:RDF>
  </metadata>
  <g
     inkscape:label="Ebene 1"
     inkscape:groupmode="layer"
     id="layer1"
     transform="translate(-212.19839,-298.72441)">
    <g
       id="g868"
       transform="matrix(1.25,0,0,-1.25,253.90589,343.42441)">
      <path
         inkscape:connector-curvature="0"
         d="m 0,0 c 0,10.867 -8.795,19.711 -19.605,19.711 l 0,4.676 C -6.218,24.387 4.674,13.445 4.674,0 L 0,0 z m -8.256,0.004 c 0,3.057 -1.182,5.928 -3.329,8.082 -2.143,2.154 -4.993,3.342 -8.028,3.342 l 0,4.674 c 8.84,0 16.03,-7.223 16.03,-16.098 l -4.673,0 z m -8.123,0.021 c -1.787,0 -3.236,1.452 -3.236,3.239 0,1.789 1.449,3.238 3.236,3.238 1.788,0 3.238,-1.449 3.238,-3.238 0,-1.787 -1.45,-3.239 -3.238,-3.239 m 7.638,35.735 c -13.601,0 -24.625,-11.026 -24.625,-24.625 0,-13.602 11.024,-24.625 24.625,-24.625 13.6,0 24.625,11.023 24.625,24.625 0,13.599 -11.025,24.625 -24.625,24.625"
         style="fill:#9c5820;fill-opacity:1;fill-rule:nonzero;stroke:none"
         id="path870" />
    </g>
  </g>
</svg>
