<?xml version="1.0" encoding="UTF-8" standalone="no"?>
<!-- Created with Inkscape (http://www.inkscape.org/) -->

<svg
   xmlns:dc="http://purl.org/dc/elements/1.1/"
   xmlns:cc="http://creativecommons.org/ns#"
   xmlns:rdf="http://www.w3.org/1999/02/22-rdf-syntax-ns#"
   xmlns:svg="http://www.w3.org/2000/svg"
   xmlns="http://www.w3.org/2000/svg"
   xmlns:sodipodi="http://sodipodi.sourceforge.net/DTD/sodipodi-0.dtd"
   xmlns:inkscape="http://www.inkscape.org/namespaces/inkscape"
   width="58"
   height="58"
   id="svg4991"
   version="1.1"
   inkscape:version="0.48.1 r9760"
   sodipodi:docname="Neues Dokument 3">
  <defs
     id="defs4993" />
  <sodipodi:namedview
     id="base"
     pagecolor="#ffffff"
     bordercolor="#666666"
     borderopacity="1.0"
     inkscape:pageopacity="0.0"
     inkscape:pageshadow="2"
     inkscape:zoom="7.9195959"
     inkscape:cx="21.324407"
     inkscape:cy="29.696215"
     inkscape:document-units="px"
     inkscape:current-layer="g358"
     showgrid="false"
     units="px"
     fit-margin-top="0"
     fit-margin-left="0"
     fit-margin-right="0"
     fit-margin-bottom="0"
     inkscape:window-width="1627"
     inkscape:window-height="1001"
     inkscape:window-x="1024"
     inkscape:window-y="24"
     inkscape:window-maximized="1" />
  <metadata
     id="metadata4996">
    <rdf:RDF>
      <cc:Work
         rdf:about="">
        <dc:format>image/svg+xml</dc:format>
        <dc:type
           rdf:resource="http://purl.org/dc/dcmitype/StillImage" />
        <dc:title></dc:title>
      </cc:Work>
    </rdf:RDF>
  </metadata>
  <g
     inkscape:label="Ebene 1"
     inkscape:groupmode="layer"
     id="layer1"
     transform="translate(-327.73813,-503.36343)">
    <g
       id="g358"
       transform="matrix(1.25,0,0,-1.25,375.25,555.60218)">
      <path
         inkscape:connector-curvature="0"
         d="m 0,0 c 0,-0.887 -0.722,-1.609 -1.609,-1.609 l -26.401,0 c -0.887,0 -1.609,0.722 -1.609,1.609 l 0,37.185 c 0,0.887 0.722,1.608 1.609,1.608 l 17.602,0 0,-10.419 c 0,-0.392 0.317,-0.708 0.708,-0.708 l 9.624,0 L 0,27.583 0,0 z m -1.385,29.083 -7.606,0 0,8.233 7.606,-8.233 z m 3.987,0.105 -11.2,12.124 c -0.284,0.307 -0.683,0.481 -1.102,0.481 l -18.31,0 c -2.541,0 -4.609,-2.067 -4.609,-4.608 l 0,-37.185 c 0,-2.542 2.068,-4.609 4.609,-4.609 l 26.401,0 C 0.932,-4.609 3,-2.542 3,0 l 0,28.17 c 0,0.378 -0.142,0.741 -0.398,1.018"
         style="fill:#9c5820;fill-opacity:1;fill-rule:nonzero;stroke:none"
         id="path360" />
    </g>
  </g>
</svg>
