<?xml version="1.0" encoding="UTF-8" standalone="no"?>
<!-- Created with Inkscape (http://www.inkscape.org/) -->

<svg
   xmlns:dc="http://purl.org/dc/elements/1.1/"
   xmlns:cc="http://creativecommons.org/ns#"
   xmlns:rdf="http://www.w3.org/1999/02/22-rdf-syntax-ns#"
   xmlns:svg="http://www.w3.org/2000/svg"
   xmlns="http://www.w3.org/2000/svg"
   xmlns:sodipodi="http://sodipodi.sourceforge.net/DTD/sodipodi-0.dtd"
   xmlns:inkscape="http://www.inkscape.org/namespaces/inkscape"
   width="61.310001"
   height="61.310001"
   id="svg6888"
   version="1.1"
   inkscape:version="0.48.1 r9760"
   sodipodi:docname="Neues Dokument 3">
  <defs
     id="defs6890" />
  <sodipodi:namedview
     id="base"
     pagecolor="#ffffff"
     bordercolor="#666666"
     borderopacity="1.0"
     inkscape:pageopacity="0.0"
     inkscape:pageshadow="2"
     inkscape:zoom="3.959798"
     inkscape:cx="10.394105"
     inkscape:cy="36.377992"
     inkscape:document-units="px"
     inkscape:current-layer="layer1"
     showgrid="false"
     fit-margin-top="0"
     fit-margin-left="0"
     fit-margin-right="0"
     fit-margin-bottom="0"
     inkscape:window-width="1315"
     inkscape:window-height="711"
     inkscape:window-x="0"
     inkscape:window-y="26"
     inkscape:window-maximized="1" />
  <metadata
     id="metadata6893">
    <rdf:RDF>
      <cc:Work
         rdf:about="">
        <dc:format>image/svg+xml</dc:format>
        <dc:type
           rdf:resource="http://purl.org/dc/dcmitype/StillImage" />
        <dc:title></dc:title>
      </cc:Work>
    </rdf:RDF>
  </metadata>
  <g
     inkscape:label="Ebene 1"
     inkscape:groupmode="layer"
     id="layer1"
     transform="translate(-330.88773,-501.70794)">
    <path
       inkscape:connector-curvature="0"
       d="m 376.49749,558.86044 -25.635,0 0,-35.09 25.635,0 0,35.09 z m -9.33125,-46.155 -5.68,6.9075 -6.77875,0 12.45875,-6.9075 z m -13.9675,-1.01 c -0.0987,-0.17625 -0.0337,-0.39875 0.14,-0.49875 l 10.24875,-5.67875 c 0.175,-0.0975 0.39875,-0.0313 0.49625,0.1425 l 1.29125,2.33125 -10.8825,6.035 -1.29375,-2.33125 z m 25.3775,7.9175 -1.3325,0 -9.9625,-6.97 11.2875,-6.26 c 1.20375,-0.66625 1.64,-2.185 0.97125,-3.39125 -0.6675,-1.20375 -2.1875,-1.64 -3.39,-0.9725 l -7.86625,4.35875 -1.29125,-2.33 c -0.98875,-1.78125 -3.24,-2.42625 -5.0175,-1.44 l -10.25,5.68125 c -1.77875,0.98625 -2.4225,3.23625 -1.43625,5.0175 l 1.29375,2.3325 -7.86625,4.36125 c -1.20625,0.6675 -1.64,2.185 -0.9725,3.39125 0.455,0.82125 1.3075,1.2875 2.185,1.2875 0.40875,0 0.82375,-0.1025 1.2075,-0.31375 l 0.56875,-0.31625 0,36.89125 c 0,1.1475 0.93125,2.0775 2.0775,2.0775 l 29.79375,0 c 1.14875,0 2.07875,-0.93 2.07875,-2.0775 l 0,-39.25 c 0,-1.1475 -0.93,-2.0775 -2.07875,-2.0775"
       style="fill:#9c5820;fill-opacity:1;fill-rule:nonzero;stroke:none"
       id="path2662" />
  </g>
</svg>
