<?xml version="1.0" encoding="UTF-8" standalone="no"?>
<!-- Created with Inkscape (http://www.inkscape.org/) -->

<svg
   xmlns:dc="http://purl.org/dc/elements/1.1/"
   xmlns:cc="http://creativecommons.org/ns#"
   xmlns:rdf="http://www.w3.org/1999/02/22-rdf-syntax-ns#"
   xmlns:svg="http://www.w3.org/2000/svg"
   xmlns="http://www.w3.org/2000/svg"
   xmlns:sodipodi="http://sodipodi.sourceforge.net/DTD/sodipodi-0.dtd"
   xmlns:inkscape="http://www.inkscape.org/namespaces/inkscape"
   width="22"
   height="22"
   id="svg5050"
   version="1.1"
   inkscape:version="0.48.1 r9760"
   sodipodi:docname="icon-date.svg">
  <defs
     id="defs5052" />
  <sodipodi:namedview
     id="base"
     pagecolor="#ffffff"
     bordercolor="#666666"
     borderopacity="1.0"
     inkscape:pageopacity="0.0"
     inkscape:pageshadow="2"
     inkscape:zoom="15.839192"
     inkscape:cx="0.082967733"
     inkscape:cy="11.375126"
     inkscape:document-units="px"
     inkscape:current-layer="layer1"
     showgrid="false"
     inkscape:window-width="1315"
     inkscape:window-height="711"
     inkscape:window-x="0"
     inkscape:window-y="26"
     inkscape:window-maximized="1" />
  <metadata
     id="metadata5055">
    <rdf:RDF>
      <cc:Work
         rdf:about="">
        <dc:format>image/svg+xml</dc:format>
        <dc:type
           rdf:resource="http://purl.org/dc/dcmitype/StillImage" />
        <dc:title></dc:title>
      </cc:Work>
    </rdf:RDF>
  </metadata>
  <g
     inkscape:label="Ebene 1"
     inkscape:groupmode="layer"
     id="layer1"
     transform="translate(0,-1030.3622)">
    <g
       id="g132"
       transform="matrix(0.43854403,0,0,-0.43854403,4.9897541,1048.4572)"
       style="fill:#612b00;fill-opacity:1">
      <path
         inkscape:connector-curvature="0"
         d="m 0,0 c 0.583,0.896 1.194,1.842 1.677,2.707 l 0.147,0.277 c 0.403,0.75 0.749,1.398 0.797,2.357 0.056,0.575 -0.29,1.628 -1.195,2.051 -5.71,2.939 -9.112,7.631 -9.102,12.552 0,0.079 -10e-4,0.146 0.004,0.219 0.089,8.153 9.527,14.786 21.038,14.786 0.225,0 0.435,-0.003 0.644,-0.012 11.713,-0.252 21.162,-7.183 21.065,-15.456 L 35.074,19.229 C 34.982,11.096 25.546,4.479 14.033,4.479 c -0.22,0 -0.447,0.002 -0.679,0.008 C 12.295,4.511 11.235,4.591 10.239,4.719 10.174,4.733 10.024,4.747 9.856,4.745 8.763,4.672 7.969,4.246 6.966,3.708 L 6.323,3.366 C 5.112,2.692 3.67,1.809 2.275,0.955 1.448,0.448 0.619,-0.06 -0.172,-0.53 -0.272,-0.59 -0.372,-0.648 -0.469,-0.707 -0.313,-0.47 -0.157,-0.232 0,0 m 38.774,19.652 c -0.207,10.356 -10.994,18.68 -24.637,18.985 -0.154,0.009 -0.314,0.01 -0.469,0.01 l -0.302,-10e-4 c -13.554,0 -24.421,-8.07 -24.738,-18.366 -0.006,-0.106 -0.006,-0.233 -0.006,-0.337 C -11.365,13.999 -7.656,8.344 -1.429,4.736 -1.846,3.974 -2.593,2.779 -3.58,1.296 -4.168,0.397 -4.779,-0.549 -5.262,-1.402 l -0.175,-0.33 c -0.385,-0.722 -0.718,-1.346 -0.762,-2.246 -0.132,-0.715 0.52,-2 1.526,-2.215 l 0.128,-0.034 c 0.195,-0.044 0.363,-0.063 0.564,-0.063 l 0.015,0 0.016,0.001 c 1.112,0.07 1.95,0.512 3.011,1.071 l 0.58,0.303 c 1.307,0.72 2.855,1.666 4.351,2.583 0.739,0.451 1.473,0.9 2.175,1.321 1.165,0.704 2.098,1.239 2.769,1.585 0.368,0.186 0.681,0.327 0.905,0.416 0.038,0.015 0.073,0.029 0.103,0.038 1.075,-0.133 2.167,-0.214 3.34,-0.246 l 0.749,-0.007 c 13.554,0.004 24.421,8.077 24.739,18.377 l 0.001,0.027 c 10e-4,0.027 0.002,0.057 0.002,0.088 l 0.013,0.385 -0.014,0 z"
         style="fill:#612b00;fill-opacity:1;fill-rule:nonzero;stroke:none"
         id="path134" />
    </g>
  </g>
</svg>
