<?xml version="1.0" standalone="no"?>
<!DOCTYPE svg PUBLIC "-//W3C//DTD SVG 1.1//EN" "http://www.w3.org/Graphics/SVG/1.1/DTD/svg11.dtd" >
<svg xmlns="http://www.w3.org/2000/svg">
<metadata>
This is a custom SVG webfont generated by Font Squirrel.
Copyright   : Copyright  2012 by Librerias Gandhi SA de CV All rights reserved
Designer    : Cristobal Henestrosa  Raul Plancarte in collaboration with David Kimura  Gabriela Varela
Foundry     : Cristobal Henestrosa  Raul Plancarte in collaboration with David Kimura  Gabriela Varela
Foundry URL : httpwwwgandhicommx
</metadata>
<defs>
<font id="GandhiSansBold" horiz-adv-x="1126" >
<font-face units-per-em="2048" ascent="1567" descent="-481" />
<missing-glyph horiz-adv-x="471" />
<glyph unicode=" "  horiz-adv-x="471" />
<glyph unicode="&#x09;" horiz-adv-x="471" />
<glyph unicode="&#xa0;" horiz-adv-x="471" />
<glyph unicode="!" horiz-adv-x="602" d="M137 1372h328l-80 -944h-170zM143 123q0 61 45 105t109 44q66 0 110 -43t44 -108q0 -61 -45.5 -105.5t-108.5 -44.5q-66 0 -110 43t-44 109z" />
<glyph unicode="&#x22;" horiz-adv-x="921" d="M119 1323h295l-70 -459h-154zM508 1323h295l-70 -459h-153z" />
<glyph unicode="#" d="M66 336v196h192l31 187h-197v196h230l47 285h194l-47 -285h197l47 285h194l-47 -285h168v-196h-201l-30 -187h205v-196h-238l-47 -285h-195l47 285h-196l-47 -285h-195l47 285h-159zM453 532h196l31 187h-197z" />
<glyph unicode="$" d="M131 76l33 219q160 -98 334 -109v396l-23 12q-84 41 -128 67.5t-94 71.5t-71.5 103.5t-21.5 136.5q0 164 95 257t251 116v221h153v-217q170 -10 285 -86l-39 -226q-135 86 -246 97v-363q180 -90 257 -172t77 -233q0 -150 -94 -253.5t-248 -131.5v-215h-153v206 q-115 6 -214.5 36t-152.5 67zM408 995q0 -45 19 -75.5t79 -67.5v270q-98 -29 -98 -127zM651 209q92 42 92 153q0 51 -20.5 82t-71.5 62v-297z" />
<glyph unicode="%" horiz-adv-x="1642" d="M57 1022q0 154 94.5 242t248 88t246.5 -89.5t93 -228.5q0 -158 -95 -245t-251 -87q-147 0 -241.5 87.5t-94.5 232.5zM276 1024q0 -61 27 -110.5t92 -49.5q125 0 125 166q0 158 -121 158q-123 0 -123 -164zM293 84l915 1268l148 -111l-918 -1270zM903 289 q0 154 94.5 241.5t248 87.5t246.5 -89t93 -228q0 -158 -95 -245t-251 -87q-147 0 -241.5 87t-94.5 233zM1122 291q0 -61 27 -110.5t92 -49.5q125 0 125 166q0 158 -121 158q-123 0 -123 -164z" />
<glyph unicode="&#x26;" horiz-adv-x="1390" d="M51 336q0 129 85 245.5t218 180.5q-63 76 -90.5 136t-27.5 134q0 150 110.5 227.5t265.5 77.5q164 0 264.5 -77.5t100.5 -217.5q0 -188 -260 -337l178 -203q98 131 152 237h270q-106 -184 -279 -399l56 -61q49 -55 78.5 -72t70.5 -17h41v-190q-66 -10 -154 -10 q-127 0 -229 127l-27 30q-172 -176 -401 -176q-195 0 -308.5 99.5t-113.5 265.5zM301 352q0 -82 52 -123t130 -41q139 0 254 121l-241 287q-195 -106 -195 -244zM487 1032q0 -55 91 -166q147 90 147 172q0 39 -30.5 64.5t-82.5 25.5q-55 0 -90 -25.5t-35 -70.5z" />
<glyph unicode="'" horiz-adv-x="532" d="M119 1323h295l-70 -459h-154z" />
<glyph unicode="(" horiz-adv-x="917" d="M109 643q0 674 608 967l82 -166q-445 -258 -445 -801t445 -801l-82 -166q-608 293 -608 967z" />
<glyph unicode=")" horiz-adv-x="917" d="M119 -158q444 258 444 801t-444 801l82 166q608 -293 608 -967t-608 -967z" />
<glyph unicode="*" horiz-adv-x="884" d="M57 920l332 75l-332 80l123 223l232 -256l-97 330h252l-96 -332l234 258l122 -223l-327 -80l327 -75l-122 -222l-234 250l96 -325h-252l97 321l-232 -246z" />
<glyph unicode="+" d="M102 522v197h359v358h201v-358h362v-197h-362v-356h-201v356h-359z" />
<glyph unicode="," horiz-adv-x="512" d="M37 -199q111 137 110 250q0 76 -28 158h264q23 -53 23 -125q-1 -203 -226 -375z" />
<glyph unicode="-" horiz-adv-x="716" d="M72 428v172h573v-172h-573z" />
<glyph unicode="." horiz-adv-x="512" d="M102 123q0 61 45.5 105t108.5 44q66 0 110 -43t44 -108q0 -61 -45.5 -105.5t-108.5 -44.5q-66 0 -110 43t-44 109z" />
<glyph unicode="/" horiz-adv-x="1138" d="M18 -481l897 2068h205l-897 -2068h-205z" />
<glyph unicode="0" d="M94 662q0 317 122 503.5t347 186.5q229 0 349 -189.5t120 -500.5q0 -332 -126 -511.5t-343 -179.5q-215 0 -342 178.5t-127 512.5zM362 662q0 -463 201 -463q104 0 152.5 110.5t48.5 352.5q0 66 -2 114.5t-13.5 119.5t-32 116t-59.5 78.5t-94 33.5q-100 0 -150.5 -107.5 t-50.5 -354.5z" />
<glyph unicode="1" d="M203 0v186l260 17v897l-260 -33v193l387 75h135v-1132l252 -17v-186h-774z" />
<glyph unicode="2" d="M98 0v129q260 233 429 454.5t169 372.5q0 80 -50 124t-130 44q-143 0 -299 -147l-108 194q72 78 188.5 129.5t237.5 51.5q188 0 301.5 -99.5t113.5 -263.5q0 -178 -117.5 -367.5t-332.5 -408.5h487l-12 -213h-877z" />
<glyph unicode="3" d="M115 131l149 191q113 -131 260 -132q102 0 149.5 51.5t47.5 118.5q0 98 -82 150.5t-236 52.5h-84v191q344 25 345 227q0 68 -40 108.5t-116 40.5q-66 0 -145.5 -39.5t-133.5 -101.5l-98 180q160 182 424 183q160 0 261.5 -85t101.5 -245q0 -242 -256 -328 q135 -16 221 -105t86 -222q-2 -176 -123 -286t-342 -110q-233 0 -389 160z" />
<glyph unicode="4" d="M55 317v144l676 874h170v-809h143v-209h-143v-317h-252v317h-594zM385 526h264v340z" />
<glyph unicode="5" d="M123 133l147 189q115 -131 267 -132q102 0 149 52.5t47 132.5q0 109 -79 166t-275 57h-191l62 725h649l-14 -211h-426l-23 -307h23q233 0 377.5 -103.5t144.5 -308.5q0 -188 -125 -305t-330 -117q-236 0 -403 162z" />
<glyph unicode="6" d="M117 504q0 330 221 559t557 289l55 -209q-395 -80 -520 -348q90 29 176 28q193 0 302.5 -107.5t109.5 -291.5q0 -186 -122 -319.5t-327 -133.5q-215 0 -333.5 144.5t-118.5 388.5zM371 496q0 -74 16 -138.5t67.5 -118t131.5 -53.5q84 0 137 60.5t53 161.5q1 213 -194 213 q-115 0 -207 -33q-4 -61 -4 -92z" />
<glyph unicode="7" d="M129 1112l14 211h863v-156l-498 -1167h-291l526 1112h-614z" />
<glyph unicode="8" d="M127 332q0 242 217 362q-96 72 -137 141.5t-41 178.5q0 162 114.5 250t282.5 88q182 0 294 -81t112 -245q0 -213 -197 -338q115 -72 170 -146.5t55 -189.5q0 -168 -124.5 -274.5t-305.5 -106.5q-207 0 -323.5 96.5t-116.5 264.5zM373 342q0 -74 52 -114t136 -40 q106 0 148.5 54.5t42.5 103.5q0 68 -37 104.5t-138 95.5q-18 11 -28 17q-82 -31 -129 -89t-47 -132zM416 993q0 -88 162 -192q141 80 141 203q0 70 -41 101.5t-105 31.5q-157 -1 -157 -144z" />
<glyph unicode="9" d="M109 899q0 186 121.5 319.5t326.5 133.5q215 0 334 -144.5t119 -388.5q0 -330 -221.5 -559t-557.5 -289l-55 209q395 82 520 346q-84 -27 -176 -26q-193 0 -302 107.5t-109 291.5zM350 901q0 -76 43 -137.5t152 -61.5q123 0 205 31q6 45 6 94q0 74 -16.5 138.5t-67.5 118 t-131 53.5q-88 0 -139.5 -63.5t-51.5 -172.5z" />
<glyph unicode=":" horiz-adv-x="512" d="M102 123q0 61 45.5 105t108.5 44q66 0 110 -43t44 -108q0 -61 -45.5 -105.5t-108.5 -44.5q-66 0 -110 43t-44 109zM102 707q0 61 45.5 105t108.5 44q66 0 110 -43t44 -108q0 -61 -45.5 -105.5t-108.5 -44.5q-66 0 -110 43t-44 109z" />
<glyph unicode=";" horiz-adv-x="512" d="M37 -199q111 137 110 250q0 76 -28 158h264q23 -53 23 -125q-1 -203 -226 -375zM102 707q0 61 45.5 105t108.5 44q66 0 110 -43t44 -108q0 -61 -45.5 -105.5t-108.5 -44.5q-66 0 -110 43t-44 109z" />
<glyph unicode="&#x3c;" d="M143 573v103l754 399l86 -174l-557 -276l557 -277l-86 -174z" />
<glyph unicode="=" d="M102 313v197h922v-197h-922zM102 735v197h922v-197h-922z" />
<glyph unicode="&#x3e;" d="M143 348l557 277l-557 276l86 174l754 -399v-103l-754 -399z" />
<glyph unicode="?" horiz-adv-x="868" d="M78 1300q57 41 156.5 71t199.5 30q172 0 274.5 -88t102.5 -236q0 -74 -36 -139.5t-87 -113.5t-102 -92t-87 -96t-36 -106q0 -55 8 -102h-229q-18 55 -19 127q0 78 33 144.5t80 111.5t94 86t80 86t33 92q0 109 -137 109q-117 0 -248 -76zM213 123q0 61 45 105t109 44 q66 0 109.5 -43t43.5 -108q0 -61 -45 -105.5t-108 -44.5q-66 0 -110 43t-44 109z" />
<glyph unicode="@" horiz-adv-x="1927" d="M72 451q0 397 250.5 659t674.5 262q129 0 246 -23.5t228.5 -81t193.5 -144.5t131 -221t49 -304q0 -283 -148.5 -453t-381.5 -170q-47 0 -93 10.5t-89 41t-48 77.5q-51 -57 -133 -95t-168 -38q-113 0 -182.5 59.5t-69.5 162.5q0 55 21.5 103t53.5 81t85 62.5t95 46 t106.5 34t100.5 23.5t91 16v107q0 68 -33.5 95t-119.5 27q-143 0 -326 -75l-39 182q98 57 220 87t206 30q186 0 264 -76.5t78 -228.5v-523q0 -29 14.5 -45t36.5 -16q129 0 213 140t84 329q0 166 -56 292t-154.5 197.5t-218 106.5t-259.5 35q-342 0 -552 -208t-210 -564 q0 -360 213 -560t596 -200q160 0 314.5 52t263.5 134l82 -123q-123 -94 -301 -153.5t-357 -59.5q-473 0 -722.5 249t-249.5 661zM791 233q0 -35 22.5 -57t58.5 -22q45 0 107.5 33.5t105.5 86.5v146q-117 -20 -205.5 -67.5t-88.5 -119.5z" />
<glyph unicode="A" horiz-adv-x="1349" d="M37 0l559 1372h160l557 -1372h-266l-132 332h-479l-131 -332h-268zM518 543h313l-155 395z" />
<glyph unicode="B" horiz-adv-x="1191" d="M150 0v1372h434q450 0 450 -342q0 -106 -59.5 -182t-153.5 -105q143 -25 218 -111.5t75 -223.5q0 -197 -125 -302.5t-344 -105.5h-495zM412 238h176q250 0 250 186q0 100 -70 144t-217 44h-139v-374zM412 831h116q113 0 173.5 42t60.5 118q0 143 -174 144h-176v-304z" />
<glyph unicode="C" horiz-adv-x="1249" d="M88 668q0 360 185.5 546.5t500.5 186.5q229 0 379 -86l-41 -228q-158 86 -326 87q-227 0 -329.5 -136.5t-102.5 -347.5q0 -225 112 -358t339 -133q182 0 330 88l36 -219q-74 -45 -186.5 -71t-214.5 -26q-317 0 -499.5 183.5t-182.5 513.5z" />
<glyph unicode="D" horiz-adv-x="1413" d="M150 0v1372h481q694 0 694 -684q0 -139 -35 -258t-109.5 -218t-204.5 -155.5t-306 -56.5h-520zM412 238h188q449 0 449 450q0 446 -439 447h-198v-897z" />
<glyph unicode="E" horiz-adv-x="1067" d="M150 0v1372h804v-237h-540v-299h434v-230h-434v-368h551v-238h-815z" />
<glyph unicode="F" horiz-adv-x="1009" d="M150 0v1372h802v-237h-538v-308h430v-231h-430v-596h-264z" />
<glyph unicode="G" horiz-adv-x="1384" d="M88 668q0 346 185.5 539.5t529.5 193.5q231 0 407 -90l-47 -226q-145 88 -348 89q-217 0 -338 -124t-121 -382q0 -201 116 -335t343 -134q96 0 166 26v262h-236v230h496v-668q-198 -78 -450 -78q-317 0 -510 183.5t-193 513.5z" />
<glyph unicode="H" horiz-adv-x="1431" d="M150 0v1372h262v-526h608v526h262v-1372h-262v612h-608v-612h-262z" />
<glyph unicode="I" horiz-adv-x="561" d="M150 0v1372h262v-1372h-262z" />
<glyph unicode="J" horiz-adv-x="575" d="M-41 -45q141 66 176 133.5t35 255.5v1028h256v-1036q0 -250 -79 -373t-279 -199z" />
<glyph unicode="K" horiz-adv-x="1302" d="M150 0v1372h264v-1372h-264zM422 711l481 661h318l-514 -649l360 -494q27 -35 45 -47t55 -12h41v-170q-72 -16 -155 -16q-137 0 -222 122z" />
<glyph unicode="L" horiz-adv-x="1054" d="M150 0v1372h264v-1134h559v-238h-823z" />
<glyph unicode="M" horiz-adv-x="1677" d="M150 0v1372h288l408 -913l395 913h287v-1372h-254v831l-373 -831h-123l-372 836v-836h-256z" />
<glyph unicode="N" horiz-adv-x="1413" d="M150 0v1372h282l574 -823v823h258v-1372h-189l-665 973v-973h-260z" />
<glyph unicode="O" horiz-adv-x="1443" d="M88 686.5q0 319.5 160 517t471 197.5q317 0 477 -198.5t160 -514.5q0 -324 -162 -520.5t-475 -196.5t-472 198t-159 517.5zM354 686q0 -485 365 -485q186 0 278.5 117.5t92.5 369.5q0 483 -371 483q-365 0 -365 -485z" />
<glyph unicode="P" horiz-adv-x="1144" d="M150 0v1372h462q444 0 445 -385q0 -201 -130 -319.5t-392 -118.5h-121v-549h-264zM414 774h125q254 0 254 207q0 90 -52.5 122t-152.5 32h-174v-361z" />
<glyph unicode="Q" horiz-adv-x="1443" d="M88 686q0 319 160 517t471 198q317 0 477 -198.5t160 -514.5q0 -258 -104.5 -439t-307.5 -245q121 -160 191.5 -218t150.5 -58h33v-193q-45 -16 -141 -16q-70 0 -142.5 39t-145.5 116.5t-120 139t-117 159.5q-281 20 -423 216t-142 497zM354 686q0 -485 365 -485 q186 0 278.5 117.5t92.5 369.5q0 483 -371 483q-365 0 -365 -485z" />
<glyph unicode="R" horiz-adv-x="1259" d="M150 0v1372h452q451 0 451 -387q0 -129 -79 -230.5t-239 -129.5q61 -20 93 -48t65 -83l143 -254q41 -70 94 -70h58v-170q-49 -16 -168 -16q-135 0 -211 139l-203 364q-27 49 -53.5 62.5t-73.5 13.5h-65v-563h-264zM414 788h164q208 0 208 185q0 98 -54 130t-171 32h-147 v-347z" />
<glyph unicode="S" horiz-adv-x="999" d="M63 76l33 223q74 -49 174.5 -80t182.5 -31q94 0 152.5 48.5t58.5 119.5q0 70 -58.5 125.5t-143.5 98.5t-169 92t-142.5 134t-58.5 198q0 186 122 291.5t306 105.5q199 0 357 -88l-39 -223q-139 88 -297 88q-86 0 -141.5 -37t-55.5 -105q0 -59 60.5 -108t145.5 -91 t170 -94.5t145.5 -142.5t60.5 -209q0 -186 -130 -303t-339 -117q-213 0 -394 105z" />
<glyph unicode="T" horiz-adv-x="1308" d="M92 1133v239h1125v-239h-431v-1133h-264v1133h-430z" />
<glyph unicode="U" horiz-adv-x="1421" d="M139 492v880h264v-833q0 -328 306 -328q156 0 232.5 86t76.5 223v852h264v-899q0 -236 -163.5 -369t-413.5 -133q-242 0 -404 131t-162 390z" />
<glyph unicode="V" horiz-adv-x="1310" d="M37 1372h270l350 -932l347 932h270l-541 -1372h-160z" />
<glyph unicode="W" horiz-adv-x="1894" d="M37 1372h270l279 -919l229 723l-63 196h270l266 -919l299 919h271l-490 -1372h-166l-264 803l-272 -803h-166z" />
<glyph unicode="X" horiz-adv-x="1337" d="M68 0l417 721l-376 651h288l273 -485l272 485h287l-379 -649l420 -723h-295l-303 567l-307 -567h-297z" />
<glyph unicode="Y" horiz-adv-x="1212" d="M37 1372h280l291 -579l287 579h281l-441 -821v-551h-262v547z" />
<glyph unicode="Z" horiz-adv-x="1253" d="M98 0v182l668 951h-629v239h985v-188l-678 -946h701v-238h-1047z" />
<glyph unicode="[" horiz-adv-x="872" d="M139 -322v1942h635v-176h-397v-1589h397v-177h-635z" />
<glyph unicode="\" horiz-adv-x="1138" d="M18 1587h205l897 -2068h-205z" />
<glyph unicode="]" horiz-adv-x="872" d="M98 -145h398v1589h-398v176h635v-1942h-635v177z" />
<glyph unicode="^" d="M113 598l399 754h102l400 -754l-174 -86l-277 557l-276 -557z" />
<glyph unicode="_" d="M-10 -176h1147v-172h-1147v172z" />
<glyph unicode="`" horiz-adv-x="819" d="M209 1475l276 65l125 -352l-102 -45z" />
<glyph unicode="a" horiz-adv-x="1040" d="M72 193q0 55 21.5 103t53 81t85 62.5t95.5 46t106.5 34t100 23.5t91.5 16v107q0 68 -34 95t-120 27h-4q-143 0 -322 -75l-39 182q98 57 220.5 87t205.5 30q186 0 264 -77t78 -228v-547q0 -29 13.5 -40t46.5 -11h55v-107q-114 -22 -207 -22h-8q-74 0 -107.5 27.5 t-41.5 96.5q-51 -57 -133 -95t-168 -38q-113 0 -182.5 59.5t-69.5 162.5zM330 233q0 -35 22.5 -57t59.5 -22q45 0 107.5 33.5t105.5 86.5v146q-117 -20 -206 -67.5t-89 -119.5z" />
<glyph unicode="b" horiz-adv-x="1122" d="M127 -29v1465l250 51v-594q106 119 274 119q180 0 290 -135.5t110 -370.5q0 -246 -127.5 -390.5t-350.5 -144.5q-72 0 -140 24.5t-105 53.5l-60 -78h-141zM377 236q86 -58 186 -58q106 0 169 79t63 230q0 133 -48.5 219.5t-152.5 86.5q-123 0 -217 -117v-440z" />
<glyph unicode="c" horiz-adv-x="925" d="M72 492q0 244 132 382t331 138q182 0 311 -88l-47 -185q-119 55 -224 56q-123 0 -185 -83t-62 -220q0 -303 252 -304q125 0 245 64l39 -186q-51 -39 -142 -67t-181 -28q-207 0 -338 130t-131 391z" />
<glyph unicode="d" horiz-adv-x="1122" d="M72 475q0 242 118 389.5t347 147.5q123 0 208 -49v473l250 51v-1487h-250v90q-106 -119 -282 -119q-174 0 -282.5 134.5t-108.5 369.5zM328 479q0 -289 188 -289q141 0 229 117v441q-83 57 -196 57q-221 0 -221 -326z" />
<glyph unicode="e" horiz-adv-x="1030" d="M72 463q0 256 132 402.5t369 146.5q174 0 274.5 -95.5t100.5 -273.5v-9q0 -110 -24 -181h-596v-2q0 -127 69.5 -196t198.5 -69q156 0 311 84l39 -186q-55 -41 -168.5 -77t-218.5 -36q-215 0 -351 122t-136 370zM340 618h348q2 6 2 52q0 131 -135 131q-164 0 -215 -183z " />
<glyph unicode="f" horiz-adv-x="645" d="M20 791v192h142v84q0 117 34.5 202t94 131t125 66.5t137.5 20.5q78 0 113 -12l-29 -199h-25q-121 0 -160.5 -54.5t-39.5 -160.5v-78h202v-192h-202v-791h-250v791h-142z" />
<glyph unicode="g" horiz-adv-x="1122" d="M72 469q0 276 129 409.5t356 133.5q225 0 438 -103v-946q0 -233 -125 -338.5t-381 -105.5q-98 0 -206.5 22.5t-169.5 52.5l49 205q176 -63 317 -63q129 0 197.5 47t68.5 178v129q-119 -119 -282 -119q-184 0 -287.5 140.5t-103.5 357.5zM328 479q0 -289 188 -289 q141 0 229 117v451q-83 47 -196 47q-221 0 -221 -326z" />
<glyph unicode="h" horiz-adv-x="1124" d="M127 0v1438l250 49v-619q127 143 323 144q152 0 231 -94.5t79 -245.5v-672h-250v608q0 84 -40 129t-114 45q-117 0 -229 -116v-666h-250z" />
<glyph unicode="i" horiz-adv-x="503" d="M92 1320.5q0 65.5 46 112t114 46.5q70 0 118 -46.5t48 -112t-48 -110.5t-118 -45q-68 0 -114 45t-46 110.5zM127 0v961l250 51v-1012h-250z" />
<glyph unicode="j" horiz-adv-x="503" d="M-127 -289h43q121 0 166 62.5t45 179.5v1008l250 51v-1065q0 -219 -101.5 -322.5t-302.5 -103.5q-51 0 -86 10zM92 1329.5q0 65.5 46 111.5t114 46q70 0 118 -46t48 -111.5t-48 -110.5t-118 -45q-68 0 -114 45t-46 110.5z" />
<glyph unicode="k" horiz-adv-x="1097" d="M127 0v1438l250 49v-1487h-250zM385 537l350 446h301l-374 -440l262 -371q47 -63 153 -63v-107q-63 -25 -170 -25q-139 0 -211 103z" />
<glyph unicode="l" horiz-adv-x="503" d="M127 0v1438l250 49v-1487h-250z" />
<glyph unicode="m" horiz-adv-x="1691" d="M127 0v963l250 49v-144q135 143 311 144q193 0 260 -150q137 150 334 150q137 0 216 -92.5t79 -247.5v-672h-250v616q0 166 -139 166q-121 0 -205 -112v-670h-250v616q0 166 -139 166q-109 0 -217 -116v-666h-250z" />
<glyph unicode="n" horiz-adv-x="1124" d="M127 0v963l250 49v-144q127 143 323 144q152 0 231 -94.5t79 -245.5v-672h-250v608q0 84 -40 129t-114 45h-2q-115 0 -227 -116v-666h-250z" />
<glyph unicode="o" horiz-adv-x="1093" d="M72 483q0 258 120.5 393.5t352.5 135.5q233 0 355 -133.5t122 -389.5q0 -264 -126 -391t-351 -127q-219 0 -346 129t-127 383zM328 485q0 -139 54 -224t165 -85q113 0 166 86t53 223q0 156 -55.5 239t-163.5 83q-111 0 -165 -84t-54 -238z" />
<glyph unicode="p" horiz-adv-x="1122" d="M127 -453v1424l250 41v-119q106 119 274 119q180 0 290 -135.5t110 -370.5q0 -246 -127.5 -390.5t-350.5 -144.5q-98 0 -196 47v-471h-250zM377 236q86 -57 186 -58q106 0 169 79t63 230q0 133 -48.5 219.5t-152.5 86.5q-123 0 -217 -117v-440z" />
<glyph unicode="q" horiz-adv-x="1122" d="M72 469q0 276 129 409.5t356 133.5q225 0 438 -103v-1362h-250v543q-119 -119 -282 -119q-184 0 -287.5 140.5t-103.5 357.5zM328 479q0 -289 188 -289q141 0 229 117v451q-83 47 -196 47q-221 0 -221 -326z" />
<glyph unicode="r" horiz-adv-x="765" d="M127 0v963l250 49v-195q137 195 258 195q61 0 90 -29l-29 -215q-20 6 -51 6q-98 0 -268 -188v-586h-250z" />
<glyph unicode="s" horiz-adv-x="884" d="M61 61l50 197q59 -35 153 -60.5t170 -25.5q57 0 92 21.5t35 62.5q0 51 -39 78.5t-172 79.5q-137 53 -198.5 111.5t-61.5 179.5q0 145 104.5 226t268.5 81q178 0 313 -76l-49 -195q-115 57 -248 58q-135 0 -135 -82q0 -37 40 -59.5t144 -61.5q143 -53 214 -127.5 t71 -189.5q0 -145 -111.5 -226.5t-275.5 -81.5q-90 0 -194.5 26t-170.5 64z" />
<glyph unicode="t" horiz-adv-x="784" d="M41 793v190h143l121 244h127v-244h266v-190h-266v-508q0 -98 78 -99q70 0 174 37l29 -184q-102 -68 -248 -68q-281 0 -281 293v529h-143z" />
<glyph unicode="u" horiz-adv-x="1105" d="M106 311v672h250v-618q0 -174 148 -175q111 0 225 115v678h250v-983h-250v102q-127 -131 -313 -131q-152 0 -231 94.5t-79 245.5z" />
<glyph unicode="v" horiz-adv-x="1021" d="M31 983h266l215 -588l213 588h266l-389 -983h-184z" />
<glyph unicode="w" horiz-adv-x="1527" d="M31 983h262l184 -569l205 569h166l207 -565l182 565h260l-358 -983h-162l-219 580l-215 -580h-158z" />
<glyph unicode="x" horiz-adv-x="1081" d="M31 0l368 496l-346 487h307l195 -285l199 285h290l-360 -471l367 -512h-308l-211 305l-213 -305h-288z" />
<glyph unicode="y" horiz-adv-x="1040" d="M10 -442l41 180q55 -25 127 -25q82 0 135.5 79t112.5 247l-389 944h266l240 -616l211 616h256l-404 -1096q-63 -174 -153.5 -271t-249.5 -97q-117 0 -193 39z" />
<glyph unicode="z" horiz-adv-x="1044" d="M82 0v164l508 610h-479v209h833v-166l-512 -610h531v-207h-881z" />
<glyph unicode="{" horiz-adv-x="970" d="M78 573v150q150 27 199 81t49 200v284q0 190 93 261t275 71h178v-176h-124q-109 0 -147 -29t-38 -151v-267q0 -150 -55 -228.5t-197 -117.5q141 -43 196.5 -121.5t55.5 -226.5v-311q0 -61 26.5 -93t60.5 -38t98 -6h124v-177h-157q-199 0 -294 67t-95 245v307 q0 143 -49.5 196.5t-198.5 79.5z" />
<glyph unicode="|" horiz-adv-x="614" d="M207 -481v2068h201v-2068h-201z" />
<glyph unicode="}" horiz-adv-x="970" d="M98 -145h125q63 0 97 6t61 37.5t27 93.5v311q0 147 55 226t196 122q-141 39 -196 118t-55 228v267q0 123 -38 151.5t-147 28.5h-125v176h178q182 0 275.5 -70.5t93.5 -261.5v-284q0 -145 49 -199.5t199 -81.5v-150q-150 -27 -199 -80t-49 -196v-307q0 -178 -95 -245 t-294 -67h-158v177z" />
<glyph unicode="~" d="M102 502q31 113 87.5 192.5t144.5 79.5q76 0 234.5 -59.5t199.5 -59.5q45 0 70 27t41 84l145 -43q-31 -113 -87 -192.5t-144 -79.5q-76 0 -235 59t-200 59q-45 0 -69.5 -26.5t-40.5 -83.5z" />
<glyph unicode="&#xa1;" horiz-adv-x="602" d="M137 -389l80 944h170l78 -944h-328zM152 862q0 61 45 105.5t108 44.5q66 0 110 -43t44 -109q0 -61 -45 -105t-109 -44q-66 0 -109.5 43t-43.5 108z" />
<glyph unicode="&#xa2;" d="M143 492q0 223 118 358t304 158v206h154v-208q135 -16 239 -82l-49 -185q-90 39 -190 52v-601q113 8 217 62l41 -186q-94 -70 -258 -89v-210h-154v208q-188 20 -305 149.5t-117 367.5zM399 492q0 -246 166 -291v579q-166 -59 -166 -288z" />
<glyph unicode="&#xa3;" d="M125 0v162q158 74 223.5 147.5t65.5 175.5q0 47 -21 109h-219v141h166q-43 115 -43 228q0 182 122 285.5t314 103.5q125 0 209 -27l-20 -231q-98 27 -187 26q-109 0 -147.5 -51t-38.5 -113q0 -82 53 -221h311v-141h-262q14 -66 15 -113q0 -84 -46.5 -140t-140.5 -103h500 v-238h-854z" />
<glyph unicode="&#xa4;" d="M106 283l144 143q-43 82 -43 192.5t45 194.5l-146 148l119 118l144 -145q80 49 190 49q113 0 199 -49l143 145l119 -118l-148 -148q46 -80 46 -195q0 -113 -44 -192l146 -143l-119 -119l-141 141q-80 -49 -201 -49q-109 0 -194 49l-140 -141zM416 618q0 -178 145 -178 q49 0 82 20.5t46 53.5t17.5 57t4.5 47q0 100 -47.5 141.5t-104.5 41.5q-49 0 -82 -25.5t-44 -64.5t-14 -58.5t-3 -34.5z" />
<glyph unicode="&#xa5;" d="M10 1323h283l272 -518l269 518h282l-350 -618h203v-140h-277v-102h277v-141h-277v-322h-262v322h-285v141h285v102h-285v140h207z" />
<glyph unicode="&#xa6;" horiz-adv-x="614" d="M207 276h201v-757h-201v757zM207 829v758h201v-758h-201z" />
<glyph unicode="&#xa7;" horiz-adv-x="989" d="M100 565q0 106 64.5 180t177.5 105q-160 100 -160 254q0 143 102.5 220t268.5 77q170 0 293 -70l-43 -198q-37 23 -108.5 39t-129.5 16q-129 0 -129 -82q0 -33 47 -63.5t114 -62.5t134.5 -72t114.5 -110.5t47 -160.5q0 -106 -65.5 -180t-176.5 -105q160 -102 160 -254 q0 -143 -102.5 -220t-268.5 -77q-170 0 -293 70l43 199q37 -23 109 -39.5t129 -16.5q129 0 129 82q0 33 -47 63.5t-114.5 62.5t-134 72t-114 110.5t-47.5 160.5zM356 590q0 -66 88 -125q74 6 133.5 39.5t59.5 107.5q0 68 -90 123q-74 -6 -132.5 -39.5t-58.5 -105.5z" />
<glyph unicode="&#xa8;" horiz-adv-x="819" d="M23 1321q0 63 45 107.5t108 44.5q66 0 113 -44.5t47 -107.5q0 -61 -47 -105.5t-113 -44.5q-63 0 -108 44.5t-45 105.5zM483 1321q0 63 45 107.5t109 44.5q66 0 113 -44.5t47 -107.5q0 -61 -47 -105.5t-113 -44.5q-63 0 -108.5 44.5t-45.5 105.5z" />
<glyph unicode="&#xa9;" horiz-adv-x="1609" d="M88 688q0 303 209 508t508 205t508 -204t209 -509q0 -299 -210 -508t-507 -209t-507 209t-210 508zM244 688q0 -242 160.5 -402.5t400.5 -160.5q242 0 401.5 160.5t159.5 402.5q0 240 -161 402.5t-400 162.5q-236 0 -398.5 -162.5t-162.5 -402.5zM436 673.5 q0 186.5 108.5 298t291.5 111.5q121 0 217 -51l-27 -166q-88 51 -184 52q-209 0 -209 -244q0 -90 50 -155.5t171 -65.5q115 0 201 43l14 -160q-90 -51 -231 -51q-180 0 -291 101t-111 287.5z" />
<glyph unicode="&#xaa;" horiz-adv-x="753" d="M68 842q0 66 39.5 116t106.5 77.5t123 42t118 22.5v51q0 51 -26 68.5t-85 17.5q-102 0 -223 -53l-29 135q137 82 299 82q246 0 246 -215v-363q0 -39 41 -39h39v-90q-29 -14 -158 -14q-51 0 -74.5 18.5t-29.5 67.5q-82 -92 -209 -92q-74 0 -126 41t-52 127zM260 868 q0 -55 51 -55q31 0 73 22.5t71 61.5v90q-195 -31 -195 -119z" />
<glyph unicode="&#xab;" horiz-adv-x="1206" d="M78 487l385 424l135 -125l-225 -299l225 -299l-135 -125zM567 487l385 424l135 -125l-225 -299l225 -299l-135 -125z" />
<glyph unicode="&#xac;" d="M92 686v184h922v-495h-189v311h-733z" />
<glyph unicode="&#xad;" horiz-adv-x="716" d="M72 428v172h573v-172h-573z" />
<glyph unicode="&#xae;" horiz-adv-x="1609" d="M88 688q0 303 209 508t508 205t508 -204t209 -509q0 -299 -210 -508t-507 -209t-507 209t-210 508zM244 688q0 -242 160.5 -402.5t400.5 -160.5q242 0 401.5 160.5t159.5 402.5q0 240 -161 402.5t-400 162.5q-236 0 -398.5 -162.5t-162.5 -402.5zM551 305v760h272 q256 0 256 -215q0 -168 -184 -203q61 -14 94 -72l76 -137q20 -37 51 -37h31v-104q-31 -8 -115 -8q-76 0 -117 78l-104 186q-23 43 -63 43h-19v-291h-178zM729 741h57q119 0 119 103q0 53 -27.5 71.5t-91.5 18.5h-57v-193z" />
<glyph unicode="&#xaf;" horiz-adv-x="819" d="M133 1208v195h553v-195h-553z" />
<glyph unicode="&#xb0;" d="M229 1026.5q0 147.5 96.5 236.5t238 89t237.5 -90.5t96 -237.5t-96 -236.5t-237.5 -89.5t-238 90.5t-96.5 238zM391 1026q0 -82 50.5 -133t122 -51t121.5 50t50 132t-50 133t-121.5 51t-122 -50t-50.5 -132z" />
<glyph unicode="&#xb1;" d="M102 0v184h922v-184h-922zM102 598v197h359v325h201v-325h362v-197h-362v-291h-201v291h-359z" />
<glyph unicode="&#xb2;" horiz-adv-x="819" d="M72 670v102q172 125 293.5 254t121.5 215q0 92 -110 92q-106 0 -215 -84l-82 148q53 45 141 77.5t185 32.5q145 0 213.5 -67.5t68.5 -175.5q0 -113 -63.5 -208t-200.5 -220h291l-10 -166h-633z" />
<glyph unicode="&#xb3;" horiz-adv-x="819" d="M98 762l103 133q76 -80 194 -80q123 0 123 80q0 111 -196 111h-76v139q117 8 174 40t57 79q0 35 -26.5 57t-75.5 22q-115 0 -195 -83l-69 135q113 113 305 112q117 0 189.5 -53t72.5 -154q0 -152 -184 -206q221 -25 221 -209q0 -106 -80 -170t-244 -64q-182 0 -293 111z " />
<glyph unicode="&#xb4;" horiz-adv-x="819" d="M209 1188l125 352l278 -61l-301 -336z" />
<glyph unicode="&#xb5;" d="M127 -96v1079h250v-618q0 -174 147 -175q111 0 226 115v678h249v-983h-249v102q-127 -131 -314 -131q-25 0 -61 4v-69q0 -84 30.5 -130t102.5 -87l-100 -170q-281 68 -281 385z" />
<glyph unicode="&#xb6;" horiz-adv-x="1445" d="M98 961q0 412 498 411h762v-188h-172v-1356h-240v1358h-153v-1358h-240v723q-223 0 -339 111.5t-116 298.5zM322 963q0 -215 231 -215v438q-231 0 -231 -223z" />
<glyph unicode="&#xb7;" horiz-adv-x="520" d="M106 645q0 61 45.5 105.5t108.5 44.5q66 0 110 -43t44 -109q0 -61 -45.5 -105t-108.5 -44q-66 0 -110 43t-44 108z" />
<glyph unicode="&#xb8;" horiz-adv-x="819" d="M201 -440l39 100q53 -33 116 -33q80 0 80 54q0 68 -162 67l-22 53l156 199h147l-96 -119q96 -4 150.5 -45.5t54.5 -111.5q0 -86 -78 -145.5t-211 -59.5q-96 0 -174 41z" />
<glyph unicode="&#xb9;" horiz-adv-x="819" d="M147 670v139l179 14v496l-179 -21v146l281 47h109v-668l172 -14v-139h-562z" />
<glyph unicode="&#xba;" horiz-adv-x="800" d="M68 1032q0 178 85 273.5t246 95.5q164 0 249 -93.5t85 -271.5q0 -186 -89 -274t-245 -88q-154 0 -242.5 90t-88.5 268zM256 1032q0 -201 145 -201q143 0 144 201q0 113 -35 162t-109 49q-76 0 -110.5 -50t-34.5 -161z" />
<glyph unicode="&#xbb;" horiz-adv-x="1206" d="M119 188l225 299l-225 299l135 125l385 -424l-385 -424zM608 188l226 299l-226 299l135 125l385 -424l-385 -424z" />
<glyph unicode="&#xbc;" horiz-adv-x="2048" d="M102 514v139l179 15v495l-179 -20v145l281 47h109v-667l172 -15v-139h-562zM545 84l915 1268l148 -111l-918 -1270zM1237 176v115l483 536h140v-497h86v-154h-86v-176h-195v176h-428zM1464 330h201v211z" />
<glyph unicode="&#xbd;" horiz-adv-x="2048" d="M102 514v139l179 15v495l-179 -20v145l281 47h109v-667l172 -15v-139h-562zM467 84l915 1268l148 -111l-918 -1270zM1303 0v102q172 125 293.5 254t121.5 215q0 92 -110 93q-106 0 -215 -84l-82 147q53 45 141 78t184 33q145 0 214 -68t69 -176q0 -113 -63.5 -208 t-200.5 -220h291l-11 -166h-632z" />
<glyph unicode="&#xbe;" horiz-adv-x="2048" d="M102 590l103 133q76 -80 194 -80q123 0 123 80q0 111 -196 111h-76v139q117 8 174 39.5t57 79.5q0 35 -26.5 57t-75.5 22q-115 0 -195 -84l-69 136q113 113 305 112q117 0 189.5 -53t72.5 -154q0 -152 -184 -206q221 -25 221 -209q0 -106 -80 -170t-244 -64 q-182 0 -293 111zM539 84l915 1268l148 -111l-918 -1270zM1237 176v115l483 536h140v-497h86v-154h-86v-176h-195v176h-428zM1464 330h201v211z" />
<glyph unicode="&#xbf;" horiz-adv-x="806" d="M37 -94q0 74 36 139.5t87 113.5t102 92t87 96t36 106q0 55 -8 102h229q18 -55 19 -127q0 -78 -33 -144.5t-80 -111.5t-94 -86t-80 -86t-33 -92q0 -109 137 -109q117 0 248 76l80 -192q-57 -41 -156.5 -71t-199.5 -30q-172 0 -274.5 88t-102.5 236zM328 862q0 61 45 105.5 t108 44.5q66 0 110 -43t44 -109q0 -61 -45 -105t-109 -44q-66 0 -109.5 43t-43.5 108z" />
<glyph unicode="&#xc0;" horiz-adv-x="1349" d="M37 0l559 1372h160l557 -1372h-266l-132 332h-479l-131 -332h-268zM274 1653l242 186l262 -266l-76 -86zM518 543h313l-155 395z" />
<glyph unicode="&#xc1;" horiz-adv-x="1349" d="M37 0l559 1372h160l557 -1372h-266l-132 332h-479l-131 -332h-268zM518 543h313l-155 395zM563 1573l262 266l242 -186l-428 -166z" />
<glyph unicode="&#xc2;" horiz-adv-x="1349" d="M37 0l559 1372h160l557 -1372h-266l-132 332h-479l-131 -332h-268zM410 1520l184 290h166l182 -290l-100 -35l-166 123l-166 -123zM518 543h313l-155 395z" />
<glyph unicode="&#xc3;" horiz-adv-x="1349" d="M37 0l559 1372h160l557 -1372h-266l-132 332h-479l-131 -332h-268zM381 1534q49 276 178 276q41 0 139.5 -42t128.5 -42q49 0 80 80l88 -18q-49 -276 -178 -277q-41 0 -139 42t-129 42q-49 0 -80 -79zM518 543h313l-155 395z" />
<glyph unicode="&#xc4;" horiz-adv-x="1349" d="M37 0l559 1372h160l557 -1372h-266l-132 332h-479l-131 -332h-268zM289 1655q0 63 45 107t108 44q66 0 113 -44t47 -107q0 -61 -47 -105.5t-113 -44.5q-63 0 -108 44t-45 106zM518 543h313l-155 395zM750 1655q0 63 45 107t108 44q66 0 113 -44t47 -107q0 -61 -47 -105.5 t-113 -44.5q-63 0 -108 44t-45 106z" />
<glyph unicode="&#xc5;" horiz-adv-x="1349" d="M37 0l559 1372h160l557 -1372h-266l-132 332h-479l-131 -332h-268zM446 1657q0 98 66 156.5t164 58.5q96 0 162.5 -59.5t66.5 -155.5t-66.5 -154.5t-162.5 -58.5q-98 0 -164 58.5t-66 154.5zM518 543h313l-155 395zM598 1657q0 -92 80 -92q82 0 82 92q0 98 -82 98 q-80 0 -80 -98z" />
<glyph unicode="&#xc6;" horiz-adv-x="1869" d="M16 0l918 1372h833v-237h-561v-299h434v-230h-434v-368h551v-238h-815v334h-403l-220 -334h-303zM676 545h266v403z" />
<glyph unicode="&#xc7;" horiz-adv-x="1249" d="M88 668q0 360 185.5 546.5t500.5 186.5q229 0 379 -86l-41 -228q-158 86 -326 87q-227 0 -329.5 -136.5t-102.5 -347.5q0 -225 112 -358t339 -133q182 0 330 88l36 -219q-135 -84 -366 -97l-74 -90q96 -4 150.5 -46t54.5 -111q0 -86 -78 -145.5t-211 -59.5q-96 0 -174 41 l39 100q53 -33 117 -33q80 0 80 54q0 68 -162 67l-23 53l138 176q-270 31 -422 211.5t-152 479.5z" />
<glyph unicode="&#xc8;" horiz-adv-x="1067" d="M150 0v1372h804v-237h-540v-299h434v-230h-434v-368h551v-238h-815zM207 1653l242 186l262 -266l-76 -86z" />
<glyph unicode="&#xc9;" horiz-adv-x="1067" d="M150 0v1372h804v-237h-540v-299h434v-230h-434v-368h551v-238h-815zM319 1573l263 266l241 -186l-428 -166z" />
<glyph unicode="&#xca;" horiz-adv-x="1067" d="M150 0v1372h804v-237h-540v-299h434v-230h-434v-368h551v-238h-815zM287 1520l184 290h166l182 -290l-100 -35l-166 123l-166 -123z" />
<glyph unicode="&#xcb;" horiz-adv-x="1067" d="M150 0v1372h804v-237h-540v-299h434v-230h-434v-368h551v-238h-815zM152 1655q0 63 45 107t108 44q66 0 113 -44t47 -107q0 -61 -47 -105.5t-113 -44.5q-63 0 -108 44t-45 106zM612 1655q0 63 45 107t109 44q66 0 113 -44t47 -107q0 -61 -47 -105.5t-113 -44.5 q-63 0 -108.5 44t-45.5 106z" />
<glyph unicode="&#xcc;" horiz-adv-x="561" d="M-92 1653l242 186l262 -266l-76 -86zM150 0v1372h262v-1372h-262z" />
<glyph unicode="&#xcd;" horiz-adv-x="561" d="M150 0v1372h262v-1372h-262zM150 1573l262 266l241 -186l-428 -166z" />
<glyph unicode="&#xce;" horiz-adv-x="561" d="M14 1520l185 290h166l182 -290l-101 -35l-165 123l-166 -123zM150 0v1372h262v-1372h-262z" />
<glyph unicode="&#xcf;" horiz-adv-x="561" d="M-104 1655q0 63 45 107t108 44q66 0 113 -44t47 -107q0 -61 -47 -105.5t-113 -44.5q-63 0 -108 44t-45 106zM150 0v1372h262v-1372h-262zM356 1655q0 63 45 107t109 44q66 0 113 -44t47 -107q0 -61 -47 -105.5t-113 -44.5q-63 0 -108.5 44t-45.5 106z" />
<glyph unicode="&#xd0;" horiz-adv-x="1456" d="M27 647v144h166v581h481q694 0 694 -684q0 -139 -35 -258t-109.5 -218t-204.5 -155.5t-306 -56.5h-520v647h-166zM455 238h188q449 0 449 450q0 446 -439 447h-198v-344h243v-144h-243v-409z" />
<glyph unicode="&#xd1;" horiz-adv-x="1413" d="M150 0v1372h282l574 -823v823h258v-1372h-189l-665 973v-973h-260zM399 1534q49 276 179 276q41 0 139 -42t129 -42q49 0 80 80l88 -18q-49 -276 -178 -277q-41 0 -139.5 42t-129.5 42q-49 0 -80 -79z" />
<glyph unicode="&#xd2;" horiz-adv-x="1443" d="M88 686.5q0 319.5 160 517t471 197.5q317 0 477 -198.5t160 -514.5q0 -324 -162 -520.5t-475 -196.5t-472 198t-159 517.5zM354 686q0 -485 365 -485q186 0 278.5 117.5t92.5 369.5q0 483 -371 483q-365 0 -365 -485zM397 1653l242 186l262 -266l-76 -86z" />
<glyph unicode="&#xd3;" horiz-adv-x="1443" d="M88 686.5q0 319.5 160 517t471 197.5q317 0 477 -198.5t160 -514.5q0 -324 -162 -520.5t-475 -196.5t-472 198t-159 517.5zM354 686q0 -485 365 -485q186 0 278.5 117.5t92.5 369.5q0 483 -371 483q-365 0 -365 -485zM500 1573l262 266l242 -186l-429 -166z" />
<glyph unicode="&#xd4;" horiz-adv-x="1443" d="M88 686.5q0 319.5 160 517t471 197.5q317 0 477 -198.5t160 -514.5q0 -324 -162 -520.5t-475 -196.5t-472 198t-159 517.5zM354 686q0 -485 365 -485q186 0 278.5 117.5t92.5 369.5q0 483 -371 483q-365 0 -365 -485zM455 1520l184 290h166l182 -290l-100 -35l-166 123 l-166 -123z" />
<glyph unicode="&#xd5;" horiz-adv-x="1443" d="M88 686.5q0 319.5 160 517t471 197.5q317 0 477 -198.5t160 -514.5q0 -324 -162 -520.5t-475 -196.5t-472 198t-159 517.5zM354 686q0 -485 365 -485q186 0 278.5 117.5t92.5 369.5q0 483 -371 483q-365 0 -365 -485zM422 1534q49 276 178 276q41 0 139.5 -42t128.5 -42 q49 0 80 80l88 -18q-49 -276 -178 -277q-41 0 -139 42t-129 42q-49 0 -80 -79z" />
<glyph unicode="&#xd6;" horiz-adv-x="1443" d="M88 686.5q0 319.5 160 517t471 197.5q317 0 477 -198.5t160 -514.5q0 -324 -162 -520.5t-475 -196.5t-472 198t-159 517.5zM336 1655q0 63 45 107t108 44q66 0 113 -44t47 -107q0 -61 -47 -105.5t-113 -44.5q-63 0 -108 44t-45 106zM354 686q0 -485 365 -485 q186 0 278.5 117.5t92.5 369.5q0 483 -371 483q-365 0 -365 -485zM797 1655q0 63 45 107t108 44q66 0 113 -44t47 -107q0 -61 -47 -105.5t-113 -44.5q-63 0 -108 44t-45 106z" />
<glyph unicode="&#xd7;" d="M154 344l264 266l-264 267l145 141l262 -264l264 264l146 -141l-266 -267l266 -266l-146 -141l-264 264l-262 -264z" />
<glyph unicode="&#xd8;" horiz-adv-x="1443" d="M76 -70l174 236q-162 188 -162 520q0 319 160 517t471 198q213 0 364 -98l103 139h192l-180 -244q158 -190 158 -510q0 -324 -162 -520.5t-475 -196.5q-209 0 -352 92l-99 -133h-192zM354 686q0 -184 56 -301l530 723q-84 63 -221 63q-365 0 -365 -485zM510 260 q84 -59 209 -59q186 0 278.5 117.5t92.5 369.5q0 176 -52 291z" />
<glyph unicode="&#xd9;" horiz-adv-x="1421" d="M139 492v880h264v-833q0 -328 306 -328q156 0 232.5 86t76.5 223v852h264v-899q0 -236 -163.5 -369t-413.5 -133q-242 0 -404 131t-162 390zM367 1653l241 186l262 -266l-75 -86z" />
<glyph unicode="&#xda;" horiz-adv-x="1421" d="M139 492v880h264v-833q0 -328 306 -328q156 0 232.5 86t76.5 223v852h264v-899q0 -236 -163.5 -369t-413.5 -133q-242 0 -404 131t-162 390zM549 1573l262 266l242 -186l-428 -166z" />
<glyph unicode="&#xdb;" horiz-adv-x="1421" d="M139 492v880h264v-833q0 -328 306 -328q156 0 232.5 86t76.5 223v852h264v-899q0 -236 -163.5 -369t-413.5 -133q-242 0 -404 131t-162 390zM444 1520l185 290h166l182 -290l-100 -35l-166 123l-166 -123z" />
<glyph unicode="&#xdc;" horiz-adv-x="1421" d="M139 492v880h264v-833q0 -328 306 -328q156 0 232.5 86t76.5 223v852h264v-899q0 -236 -163.5 -369t-413.5 -133q-242 0 -404 131t-162 390zM324 1655q0 63 45 107t108 44q66 0 113 -44t47 -107q0 -61 -47 -105.5t-113 -44.5q-63 0 -108 44t-45 106zM784 1655 q0 63 45 107t109 44q66 0 113 -44t47 -107q0 -61 -47 -105.5t-113 -44.5q-63 0 -108.5 44t-45.5 106z" />
<glyph unicode="&#xdd;" horiz-adv-x="1212" d="M37 1372h280l291 -579l287 579h281l-441 -821v-551h-262v547zM485 1573l263 266l241 -186l-428 -166z" />
<glyph unicode="&#xde;" horiz-adv-x="1144" d="M150 0v1372h262v-274h200q444 0 445 -385q0 -201 -130 -320t-392 -119h-121v-274h-264zM414 500h125q254 0 254 207q0 90 -52.5 121.5t-152.5 31.5h-174v-360z" />
<glyph unicode="&#xdf;" horiz-adv-x="1300" d="M20 791v192h144v39q0 238 142.5 351.5t381.5 113.5q188 0 312 -72t124 -205q0 -92 -48 -172t-104.5 -125t-104.5 -93t-48 -85t44 -68.5t105.5 -62.5t124 -69.5t106.5 -104t44 -151.5q0 -135 -103.5 -221.5t-293.5 -86.5q-90 0 -182.5 22.5t-141.5 51.5l49 205 q51 -31 133 -54.5t148 -23.5q141 0 141 84q0 39 -45 72.5t-109.5 63.5t-130 68t-110.5 104.5t-45 156.5q0 63 30.5 119.5t73.5 98.5t87 80t75 80t31 85q0 45 -46 71.5t-124 26.5q-266 0 -266 -276v-1006h-250v791h-144z" />
<glyph unicode="&#xe0;" horiz-adv-x="1040" d="M72 193q0 55 21.5 103t53 81t85 62.5t95.5 46t106.5 34t100 23.5t91.5 16v107q0 68 -34 95t-120 27q-144 1 -326 -75l-39 182q98 57 220.5 87t205.5 30q186 0 264 -77t78 -228v-547q0 -29 13.5 -40t46.5 -11h55v-107q-119 -23 -215 -22q-74 0 -107.5 27.5t-41.5 96.5 q-51 -57 -133 -95t-168 -38q-113 0 -182.5 59.5t-69.5 162.5zM264 1475l277 65l125 -352l-103 -45zM330 233q0 -35 22.5 -57t59.5 -22q45 0 107.5 33.5t105.5 86.5v146q-117 -20 -206 -67.5t-89 -119.5z" />
<glyph unicode="&#xe1;" horiz-adv-x="1040" d="M72 193q0 55 21.5 103t53 81t85 62.5t95.5 46t106.5 34t100 23.5t91.5 16v107q0 68 -34 95t-120 27q-144 1 -326 -75l-39 182q98 57 220.5 87t205.5 30q186 0 264 -77t78 -228v-547q0 -29 13.5 -40t46.5 -11h55v-107q-119 -23 -215 -22q-74 0 -107.5 27.5t-41.5 96.5 q-51 -57 -133 -95t-168 -38q-113 0 -182.5 59.5t-69.5 162.5zM330 233q0 -35 22.5 -57t59.5 -22q45 0 107.5 33.5t105.5 86.5v146q-117 -20 -206 -67.5t-89 -119.5zM367 1188l125 352l278 -61l-301 -336z" />
<glyph unicode="&#xe2;" horiz-adv-x="1040" d="M72 193q0 55 21.5 103t53 81t85 62.5t95.5 46t106.5 34t100 23.5t91.5 16v107q0 68 -34 95t-120 27q-144 1 -326 -75l-39 182q98 57 220.5 87t205.5 30q186 0 264 -77t78 -228v-547q0 -29 13.5 -40t46.5 -11h55v-107q-119 -23 -215 -22q-74 0 -107.5 27.5t-41.5 96.5 q-51 -57 -133 -95t-168 -38q-113 0 -182.5 59.5t-69.5 162.5zM248 1178l184 342h166l182 -342l-100 -35l-166 147l-166 -147zM330 233q0 -35 22.5 -57t59.5 -22q45 0 107.5 33.5t105.5 86.5v146q-117 -20 -206 -67.5t-89 -119.5z" />
<glyph unicode="&#xe3;" horiz-adv-x="1040" d="M72 193q0 55 21.5 103t53 81t85 62.5t95.5 46t106.5 34t100 23.5t91.5 16v107q0 68 -34 95t-120 27q-144 1 -326 -75l-39 182q98 57 220.5 87t205.5 30q186 0 264 -77t78 -228v-547q0 -29 13.5 -40t46.5 -11h55v-107q-119 -23 -215 -22q-74 0 -107.5 27.5t-41.5 96.5 q-51 -57 -133 -95t-168 -38q-113 0 -182.5 59.5t-69.5 162.5zM199 1202q49 276 178 277q41 0 139 -42t129 -42q49 0 80 80l88 -19q-49 -276 -178 -276q-41 0 -139.5 42t-128.5 42q-49 0 -80 -80zM330 233q0 -35 22.5 -57t59.5 -22q45 0 107.5 33.5t105.5 86.5v146 q-117 -20 -206 -67.5t-89 -119.5z" />
<glyph unicode="&#xe4;" horiz-adv-x="1040" d="M72 193q0 55 21.5 103t53 81t85 62.5t95.5 46t106.5 34t100 23.5t91.5 16v107q0 68 -34 95t-120 27q-144 1 -326 -75l-39 182q98 57 220.5 87t205.5 30q186 0 264 -77t78 -228v-547q0 -29 13.5 -40t46.5 -11h55v-107q-119 -23 -215 -22q-74 0 -107.5 27.5t-41.5 96.5 q-51 -57 -133 -95t-168 -38q-113 0 -182.5 59.5t-69.5 162.5zM121 1321q0 63 45 107.5t108 44.5q66 0 113 -44.5t47 -107.5q0 -61 -47 -105.5t-113 -44.5q-63 0 -108 44.5t-45 105.5zM330 233q0 -35 22.5 -57t59.5 -22q45 0 107.5 33.5t105.5 86.5v146q-117 -20 -206 -67.5 t-89 -119.5zM582 1321q0 63 45 107.5t108 44.5q66 0 113 -44.5t47 -107.5q0 -61 -47 -105.5t-113 -44.5q-63 0 -108 44.5t-45 105.5z" />
<glyph unicode="&#xe5;" horiz-adv-x="1040" d="M72 193q0 55 21.5 103t53 81t85 62.5t95.5 46t106.5 34t100 23.5t91.5 16v107q0 68 -34 95t-120 27q-144 1 -326 -75l-39 182q98 57 220.5 87t205.5 30q186 0 264 -77t78 -228v-547q0 -29 13.5 -40t46.5 -11h55v-107q-119 -23 -215 -22q-74 0 -107.5 27.5t-41.5 96.5 q-51 -57 -133 -95t-168 -38q-113 0 -182.5 59.5t-69.5 162.5zM291 1333q0 98 65.5 156.5t163.5 58.5q96 0 163 -59t67 -155.5t-67 -155t-163 -58.5q-98 0 -163.5 58.5t-65.5 154.5zM330 233q0 -35 22.5 -57t59.5 -22q45 0 107.5 33.5t105.5 86.5v146q-117 -20 -206 -67.5 t-89 -119.5zM442 1333q0 -92 80 -92q82 0 82 92q0 98 -82 99q-80 -1 -80 -99z" />
<glyph unicode="&#xe6;" horiz-adv-x="1576" d="M72 193q0 55 21.5 103t53 81t85 62.5t95.5 46t106.5 34t100 23.5t91.5 16v107q0 72 -37 97t-123 25q-123 1 -320 -75l-39 182q100 57 221.5 87t204.5 30q188 0 271 -99q123 98 317 99q174 0 274.5 -95.5t100.5 -273.5q0 -117 -25 -190h-596v-2q0 -127 70 -196t199 -69 q156 0 311 84l39 -186q-55 -41 -169 -77t-218 -36q-268 0 -395 172q-168 -172 -383 -172q-106 0 -181 55.5t-75 166.5zM330 233q0 -35 22.5 -57t59.5 -22q51 0 118.5 38.5t110.5 100.5q-14 53 -20 125q-117 -20 -204 -67.5t-87 -117.5zM889 618h346q2 6 2 52q0 131 -135 131 q-162 0 -213 -183z" />
<glyph unicode="&#xe7;" horiz-adv-x="925" d="M72 492q0 244 132 382t331 138q182 0 311 -88l-47 -185q-119 55 -224 56q-123 0 -185 -83t-62 -220q0 -303 252 -304q125 0 245 64l39 -186q-113 -82 -293 -93l-73 -92q96 -4 150 -46t54 -111q0 -86 -77.5 -145.5t-210.5 -59.5q-96 0 -174 41l39 100q53 -33 116 -33 q80 0 80 54q0 68 -162 67l-22 53l141 181q-164 31 -262 158.5t-98 351.5z" />
<glyph unicode="&#xe8;" horiz-adv-x="1030" d="M72 463q0 256 132 402.5t369 146.5q174 0 274.5 -95.5t100.5 -273.5q1 -116 -24 -190h-596v-2q0 -127 69.5 -196t198.5 -69q156 0 311 84l39 -186q-55 -41 -168.5 -77t-218.5 -36q-215 0 -351 122t-136 370zM254 1475l276 65l125 -352l-102 -45zM340 618h348q2 6 2 52 q0 131 -135 131q-164 0 -215 -183z" />
<glyph unicode="&#xe9;" horiz-adv-x="1030" d="M72 463q0 256 132 402.5t369 146.5q174 0 274.5 -95.5t100.5 -273.5q1 -116 -24 -190h-596v-2q0 -127 69.5 -196t198.5 -69q156 0 311 84l39 -186q-55 -41 -168.5 -77t-218.5 -36q-215 0 -351 122t-136 370zM340 618h348q2 6 2 52q0 131 -135 131q-164 0 -215 -183z M426 1188l125 352l278 -61l-301 -336z" />
<glyph unicode="&#xea;" horiz-adv-x="1030" d="M72 463q0 256 132 402.5t369 146.5q174 0 274.5 -95.5t100.5 -273.5q1 -116 -24 -190h-596v-2q0 -127 69.5 -196t198.5 -69q156 0 311 84l39 -186q-55 -41 -168.5 -77t-218.5 -36q-215 0 -351 122t-136 370zM272 1178l185 342h166l182 -342l-100 -35l-166 147l-166 -147z M340 618h348q2 6 2 52q0 131 -135 131q-164 0 -215 -183z" />
<glyph unicode="&#xeb;" horiz-adv-x="1030" d="M72 463q0 256 132 402.5t369 146.5q174 0 274.5 -95.5t100.5 -273.5q1 -116 -24 -190h-596v-2q0 -127 69.5 -196t198.5 -69q156 0 311 84l39 -186q-55 -41 -168.5 -77t-218.5 -36q-215 0 -351 122t-136 370zM156 1321q0 63 45 107.5t108 44.5q66 0 113 -44.5t47 -107.5 q0 -61 -47 -105.5t-113 -44.5q-63 0 -108 44.5t-45 105.5zM340 618h348q2 6 2 52q0 131 -135 131q-164 0 -215 -183zM616 1321q0 63 45.5 107.5t108.5 44.5q66 0 113 -44.5t47 -107.5q0 -61 -47 -105.5t-113 -44.5q-63 0 -108.5 44.5t-45.5 105.5z" />
<glyph unicode="&#xec;" horiz-adv-x="503" d="M-25 1475l277 65l125 -352l-103 -45zM127 0v961l250 51v-1012h-250z" />
<glyph unicode="&#xed;" horiz-adv-x="503" d="M127 0v961l250 51v-1012h-250zM127 1188l125 352l278 -61l-301 -336z" />
<glyph unicode="&#xee;" horiz-adv-x="503" d="M-14 1178l184 342h166l182 -342l-100 -35l-166 147l-166 -147zM127 0v961l250 51v-1012h-250z" />
<glyph unicode="&#xef;" horiz-adv-x="503" d="M-133 1321q0 63 45 107.5t108 44.5q66 0 113 -44.5t47 -107.5q0 -61 -47 -105.5t-113 -44.5q-63 0 -108 44.5t-45 105.5zM127 0v961l250 51v-1012h-250zM328 1321q0 63 45 107.5t108 44.5q66 0 113 -44.5t47 -107.5q0 -61 -47 -105.5t-113 -44.5q-63 0 -108 44.5 t-45 105.5z" />
<glyph unicode="&#xf0;" horiz-adv-x="1062" d="M72 461q0 229 131 366.5t329 137.5q55 0 111 -11q-53 96 -131 166l-240 -100v160l103 43q-74 45 -150 75l74 205q170 -49 328 -176l207 88v-160l-91 -38q242 -270 242 -650q0 -260 -123 -428t-342 -168q-199 0 -323.5 131t-124.5 359zM326 465q0 -125 49 -203t151 -78 q59 0 101.5 37t64 97.5t30.5 122t9 126.5q0 82 -12 156q-76 27 -148 27q-113 0 -179 -69t-66 -216z" />
<glyph unicode="&#xf1;" horiz-adv-x="1124" d="M127 0v963l250 49v-144q127 143 323 144q152 0 231 -94.5t79 -245.5v-672h-250v608q0 84 -40 129t-114 45q-116 1 -229 -116v-666h-250zM258 1202q49 276 178 277q41 0 139.5 -42t129.5 -42q48 0 79 80l88 -19q-49 -276 -178 -276q-41 0 -139 42t-129 42q-49 0 -80 -80z " />
<glyph unicode="&#xf2;" horiz-adv-x="1093" d="M72 483q0 258 120.5 393.5t352.5 135.5q233 0 355 -133.5t122 -389.5q0 -264 -126 -391t-351 -127q-219 0 -346 129t-127 383zM250 1475l276 65l125 -352l-102 -45zM328 485q0 -139 54 -224t165 -85q113 0 166 86t53 223q0 156 -55.5 239t-163.5 83q-111 0 -165 -84 t-54 -238z" />
<glyph unicode="&#xf3;" horiz-adv-x="1093" d="M72 483q0 258 120.5 393.5t352.5 135.5q233 0 355 -133.5t122 -389.5q0 -264 -126 -391t-351 -127q-219 0 -346 129t-127 383zM328 485q0 -139 54 -224t165 -85q113 0 166 86t53 223q0 156 -55.5 239t-163.5 83q-111 0 -165 -84t-54 -238zM393 1188l125 352l279 -61 l-301 -336z" />
<glyph unicode="&#xf4;" horiz-adv-x="1093" d="M72 483q0 258 120.5 393.5t352.5 135.5q233 0 355 -133.5t122 -389.5q0 -264 -126 -391t-351 -127q-219 0 -346 129t-127 383zM281 1178l184 342h166l182 -342l-100 -35l-166 147l-166 -147zM328 485q0 -139 54 -224t165 -85q113 0 166 86t53 223q0 156 -55.5 239 t-163.5 83q-111 0 -165 -84t-54 -238z" />
<glyph unicode="&#xf5;" horiz-adv-x="1093" d="M72 483q0 258 120.5 393.5t352.5 135.5q233 0 355 -133.5t122 -389.5q0 -264 -126 -391t-351 -127q-219 0 -346 129t-127 383zM240 1202q49 276 178 277q41 0 139 -42t129 -42q49 0 80 80l88 -19q-49 -276 -178 -276q-41 0 -139.5 42t-128.5 42q-49 0 -80 -80zM328 485 q0 -139 54 -224t165 -85q113 0 166 86t53 223q0 156 -55.5 239t-163.5 83q-111 0 -165 -84t-54 -238z" />
<glyph unicode="&#xf6;" horiz-adv-x="1093" d="M72 483q0 258 120.5 393.5t352.5 135.5q233 0 355 -133.5t122 -389.5q0 -264 -126 -391t-351 -127q-219 0 -346 129t-127 383zM160 1321q0 63 45 107.5t108 44.5q66 0 113 -44.5t47 -107.5q0 -61 -47 -105.5t-113 -44.5q-63 0 -108 44.5t-45 105.5zM328 485 q0 -139 54 -224t165 -85q113 0 166 86t53 223q0 156 -55.5 239t-163.5 83q-111 0 -165 -84t-54 -238zM621 1321q0 63 45 107.5t108 44.5q66 0 113 -44.5t47 -107.5q0 -61 -47 -105.5t-113 -44.5q-63 0 -108 44.5t-45 105.5z" />
<glyph unicode="&#xf7;" d="M102 520v199h922v-199h-922zM428 283q0 57 39 97t94 40q57 0 97 -40t40 -97q0 -55 -40 -94t-97 -39q-55 0 -94 39t-39 94zM428 960.5q0 57.5 39 96.5t94 39q57 0 97 -39t40 -96.5t-40 -96.5t-97 -39q-55 0 -94 39t-39 96.5z" />
<glyph unicode="&#xf8;" horiz-adv-x="1093" d="M63 -51l121 168q-113 131 -112 366q0 258 120.5 393.5t352.5 135.5q139 0 246 -51l53 73h186l-121 -168q113 -135 113 -377q0 -264 -126 -391t-351 -127q-141 0 -242 52l-53 -74h-187zM328 485q0 -82 18 -143l311 434q-46 31 -110 31q-111 0 -165 -84t-54 -238zM436 207 q43 -31 111 -31q113 0 166 86t53 223q0 88 -18 156z" />
<glyph unicode="&#xf9;" horiz-adv-x="1105" d="M106 311v672h250v-618q0 -174 148 -175q111 0 225 115v678h250v-983h-250v102q-127 -131 -313 -131q-152 0 -231 94.5t-79 245.5zM233 1475l277 65l125 -352l-103 -45z" />
<glyph unicode="&#xfa;" horiz-adv-x="1105" d="M106 311v672h250v-618q0 -174 148 -175q111 0 225 115v678h250v-983h-250v102q-127 -131 -313 -131q-152 0 -231 94.5t-79 245.5zM442 1188l125 352l279 -61l-301 -336z" />
<glyph unicode="&#xfb;" horiz-adv-x="1105" d="M106 311v672h250v-618q0 -174 148 -175q111 0 225 115v678h250v-983h-250v102q-127 -131 -313 -131q-152 0 -231 94.5t-79 245.5zM281 1178l184 342h166l182 -342l-100 -35l-166 147l-166 -147z" />
<glyph unicode="&#xfc;" horiz-adv-x="1105" d="M106 311v672h250v-618q0 -174 148 -175q111 0 225 115v678h250v-983h-250v102q-127 -131 -313 -131q-152 0 -231 94.5t-79 245.5zM160 1321q0 63 45 107.5t108 44.5q66 0 113 -44.5t47 -107.5q0 -61 -47 -105.5t-113 -44.5q-63 0 -108 44.5t-45 105.5zM621 1321 q0 63 45 107.5t108 44.5q66 0 113 -44.5t47 -107.5q0 -61 -47 -105.5t-113 -44.5q-63 0 -108 44.5t-45 105.5z" />
<glyph unicode="&#xfd;" horiz-adv-x="1040" d="M10 -442l41 180q55 -25 127 -25q82 0 135.5 79t112.5 247l-389 944h266l240 -616l211 616h256l-404 -1096q-63 -174 -153.5 -271t-249.5 -97q-117 0 -193 39zM430 1188l125 352l279 -61l-302 -336z" />
<glyph unicode="&#xfe;" horiz-adv-x="1122" d="M127 -453v1891l250 49v-594q106 119 274 119q180 0 290 -135.5t110 -370.5q0 -246 -127 -390.5t-351 -144.5q-102 0 -196 47v-471h-250zM377 236q86 -57 186 -58q106 0 169 79t63 230q0 133 -48.5 219.5t-152.5 86.5q-123 0 -217 -117v-440z" />
<glyph unicode="&#xff;" horiz-adv-x="1040" d="M10 -442l41 180q55 -25 127 -25q82 0 135.5 79t112.5 247l-389 944h266l240 -616l211 616h256l-404 -1096q-63 -174 -153.5 -271t-249.5 -97q-117 0 -193 39zM150 1321q0 63 45 107.5t108 44.5q66 0 113 -44.5t47 -107.5q0 -61 -47 -105.5t-113 -44.5q-63 0 -108 44.5 t-45 105.5zM610 1321q0 63 45 107.5t109 44.5q66 0 113 -44.5t47 -107.5q0 -61 -47 -105.5t-113 -44.5q-63 0 -108.5 44.5t-45.5 105.5z" />
<glyph unicode="&#x131;" horiz-adv-x="503" d="M127 0v961l250 51v-1012h-250z" />
<glyph unicode="&#x141;" horiz-adv-x="1087" d="M20 512v152l162 43v665h264v-594l289 78v-151l-289 -78v-389h560v-238h-824v555z" />
<glyph unicode="&#x142;" horiz-adv-x="507" d="M16 600v166l111 43v629l250 49v-580l121 49v-165l-121 -50v-741h-250v643z" />
<glyph unicode="&#x152;" horiz-adv-x="1812" d="M88 684q0 307 160 497.5t483 190.5h979v-237h-561v-299h434v-230h-434v-368h551v-238h-969q-324 0 -483.5 180t-159.5 504zM354 684q0 -213 91.5 -333t310.5 -120h129v908h-152q-90 0 -158.5 -30t-109.5 -75t-66.5 -107.5t-35 -121t-9.5 -121.5z" />
<glyph unicode="&#x153;" horiz-adv-x="1724" d="M72 483q0 258 120.5 393.5t352.5 135.5q238 0 354 -146q129 145 369 146q174 0 274 -95.5t100 -273.5q0 -117 -24 -190h-596v-2q0 -127 69.5 -196t198.5 -69q156 0 312 84l38 -186q-55 -41 -168.5 -77t-218.5 -36q-231 0 -362 133q-113 -133 -346 -133q-219 0 -346 129 t-127 383zM328 485q0 -145 55 -227t163.5 -82t164 84t55.5 225q0 322 -219 322t-219 -322zM1034 618h348q2 6 2 52q0 131 -135 131q-164 0 -215 -183z" />
<glyph unicode="&#x160;" horiz-adv-x="999" d="M63 76l33 223q74 -49 174.5 -80t182.5 -31q94 0 152.5 48.5t58.5 119.5q0 70 -58.5 125.5t-143.5 98.5t-169 92t-142.5 134t-58.5 198q0 186 122 291.5t306 105.5q199 0 357 -88l-39 -223q-139 88 -297 88q-86 0 -141.5 -37t-55.5 -105q0 -59 60.5 -108t145.5 -91 t170 -94.5t145.5 -142.5t60.5 -209q0 -186 -130 -303t-339 -117q-213 0 -394 105zM266 1792l101 35l165 -123l166 123l101 -35l-185 -291h-165z" />
<glyph unicode="&#x161;" horiz-adv-x="884" d="M61 61l50 197q59 -35 153 -60.5t170 -25.5q57 0 92 21.5t35 62.5q0 51 -39 78.5t-172 79.5q-137 53 -198.5 111.5t-61.5 179.5q0 145 104.5 226t268.5 81q178 0 313 -76l-49 -195q-115 57 -248 58q-135 0 -135 -82q0 -37 40 -59.5t144 -61.5q143 -53 214 -127.5 t71 -189.5q0 -145 -111.5 -226.5t-275.5 -81.5q-90 0 -194.5 26t-170.5 64zM172 1495l100 35l166 -148l166 148l101 -35l-185 -342h-166z" />
<glyph unicode="&#x178;" horiz-adv-x="1212" d="M37 1372h280l291 -579l287 579h281l-441 -821v-551h-262v547zM219 1655q0 63 45 107t109 44q66 0 112.5 -44t46.5 -107q0 -61 -46.5 -105.5t-112.5 -44.5q-63 0 -108.5 44t-45.5 106zM680 1655q0 63 45 107t109 44q66 0 112.5 -44t46.5 -107q0 -61 -46.5 -105.5 t-112.5 -44.5q-63 0 -108.5 44t-45.5 106z" />
<glyph unicode="&#x17d;" horiz-adv-x="1253" d="M98 0v182l668 951h-629v239h985v-188l-678 -946h701v-238h-1047zM360 1792l101 35l166 -123l166 123l100 -35l-184 -291h-166z" />
<glyph unicode="&#x17e;" horiz-adv-x="1044" d="M82 0v164l508 610h-479v209h833v-166l-512 -610h531v-207h-881zM264 1495l101 35l165 -148l166 148l101 -35l-185 -342h-166z" />
<glyph unicode="&#x192;" d="M82 -287l68 189q20 -8 45 -8q94 0 129.5 60t50.5 189l57 557h-164v142h181l8 80q12 125 57 214t112.5 134t136 63.5t150.5 18.5q61 0 107 -13l-35 -200h-31q-129 0 -183 -46t-71 -175l-8 -76h242v-142h-256l-62 -589q-23 -213 -122 -318.5t-248 -105.5q-94 0 -164 26z " />
<glyph unicode="&#x2c6;" horiz-adv-x="819" d="M143 1178l185 342h166l182 -342l-101 -35l-165 147l-166 -147z" />
<glyph unicode="&#x2c7;" horiz-adv-x="819" d="M143 1495l101 35l166 -148l165 148l101 -35l-184 -342h-166z" />
<glyph unicode="&#x2d8;" horiz-adv-x="819" d="M133 1473l115 20q39 -154 161.5 -154t161.5 154l115 -20q0 -141 -74.5 -226.5t-201.5 -85.5t-202 85t-75 227z" />
<glyph unicode="&#x2d9;" horiz-adv-x="819" d="M246 1320.5q0 65.5 46 112t114 46.5q70 0 117.5 -46.5t47.5 -112t-47.5 -110.5t-117.5 -45q-68 0 -114 45t-46 110.5z" />
<glyph unicode="&#x2da;" horiz-adv-x="819" d="M180 1333q0 98 65.5 156.5t164.5 58.5q96 0 162.5 -59t66.5 -155.5t-66.5 -155t-162.5 -58.5q-98 0 -164 58.5t-66 154.5zM332 1333q0 -92 80 -92q82 0 82 92q0 98 -82 99q-80 -1 -80 -99z" />
<glyph unicode="&#x2db;" horiz-adv-x="819" d="M203 -313q0 100 78 187t182 126h121q-84 -61 -134.5 -141t-50.5 -152t70 -72q53 0 104 35l33 -100q-88 -51 -205 -51q-94 0 -146 43t-52 125z" />
<glyph unicode="&#x2dc;" horiz-adv-x="819" d="M102 1202q49 276 179 277q41 0 139 -42t129 -42q49 0 80 80l88 -19q-49 -276 -178 -276q-41 0 -139.5 42t-129.5 42q-49 0 -80 -80z" />
<glyph unicode="&#x2dd;" horiz-adv-x="819" d="M80 1159l100 367l242 -62l-258 -327zM395 1159l101 367l241 -62l-258 -327z" />
<glyph unicode="&#x3c0;" horiz-adv-x="1222" d="M57 754v229h1108v-229h-221v-449q0 -90 23.5 -115.5t99.5 -25.5h31v-162q-53 -14 -176 -14t-181.5 62.5t-58.5 234.5v469h-174v-471q0 -178 29 -283h-265q-27 98 -26 283v471h-189z" />
<glyph unicode="&#x2000;" horiz-adv-x="936" />
<glyph unicode="&#x2001;" horiz-adv-x="1872" />
<glyph unicode="&#x2002;" horiz-adv-x="936" />
<glyph unicode="&#x2003;" horiz-adv-x="1872" />
<glyph unicode="&#x2004;" horiz-adv-x="624" />
<glyph unicode="&#x2005;" horiz-adv-x="468" />
<glyph unicode="&#x2006;" horiz-adv-x="312" />
<glyph unicode="&#x2007;" horiz-adv-x="312" />
<glyph unicode="&#x2008;" horiz-adv-x="234" />
<glyph unicode="&#x2009;" horiz-adv-x="374" />
<glyph unicode="&#x200a;" horiz-adv-x="102" />
<glyph unicode="&#x2010;" horiz-adv-x="716" d="M72 428v172h573v-172h-573z" />
<glyph unicode="&#x2011;" horiz-adv-x="716" d="M72 428v172h573v-172h-573z" />
<glyph unicode="&#x2012;" horiz-adv-x="716" d="M72 428v172h573v-172h-573z" />
<glyph unicode="&#x2013;" horiz-adv-x="1228" d="M72 428v172h1085v-172h-1085z" />
<glyph unicode="&#x2014;" horiz-adv-x="1843" d="M72 428v172h1700v-172h-1700z" />
<glyph unicode="&#x2018;" horiz-adv-x="559" d="M98 1040q0 92 56.5 194.5t173.5 190.5l143 -92q-111 -137 -111 -260q0 -102 29 -184h-264q-27 61 -27 151z" />
<glyph unicode="&#x2019;" horiz-adv-x="559" d="M88 958q111 137 111 261q0 102 -29 184h264q27 -61 27 -152q0 -92 -56.5 -194.5t-173.5 -190.5z" />
<glyph unicode="&#x201a;" horiz-adv-x="555" d="M68 -236q111 137 110 261q0 102 -28 184h264q23 -53 22 -152q0 -92 -55 -194.5t-170 -190.5z" />
<glyph unicode="&#x201c;" horiz-adv-x="927" d="M98 1040q0 92 56.5 194.5t173.5 190.5l143 -92q-111 -137 -111 -260q0 -102 29 -184h-264q-27 61 -27 151zM471 1040q0 92 55 194.5t170 190.5l144 -92q-111 -137 -111 -260q0 -102 29 -184h-264q-23 53 -23 151z" />
<glyph unicode="&#x201d;" horiz-adv-x="927" d="M88 956q111 137 111 261q0 102 -29 184h264q23 -53 23 -152q0 -92 -55.5 -194.5t-170.5 -190.5zM457 956q111 137 110 261q0 102 -28 184h264q27 -61 26 -152q0 -92 -56 -194.5t-173 -190.5z" />
<glyph unicode="&#x201e;" horiz-adv-x="927" d="M68 -236q111 137 110 261q0 102 -28 184h264q23 -53 22 -152q0 -92 -55 -194.5t-170 -190.5zM436 -236q111 137 111 261q0 102 -29 184h264q27 -61 27 -152q0 -92 -56 -194.5t-173 -190.5z" />
<glyph unicode="&#x2020;" horiz-adv-x="1120" d="M82 754v217l364 -10l-10 411h248l-10 -411l364 10v-217l-364 14l10 -940h-248l10 940z" />
<glyph unicode="&#x2021;" horiz-adv-x="1120" d="M82 229v217l364 -14v336l-364 -14v217l364 -10l-10 411h248l-10 -411l364 10v-217l-364 14v-336l364 14v-217l-364 11l10 -412h-248l10 412z" />
<glyph unicode="&#x2022;" horiz-adv-x="825" d="M113 647q0 127 86 214t211 87q129 0 215 -87t86 -214q0 -123 -87 -210t-214 -87q-125 0 -211 87t-86 210z" />
<glyph unicode="&#x2026;" horiz-adv-x="1536" d="M102 123q0 61 45.5 105t108.5 44q66 0 110 -43t44 -108q0 -61 -45.5 -105.5t-108.5 -44.5q-66 0 -110 43t-44 109zM614 123q0 61 45.5 105t108.5 44q66 0 110 -43t44 -108q0 -61 -45.5 -105.5t-108.5 -44.5q-66 0 -110 43t-44 109zM1126 123q0 61 45.5 105t108.5 44 q66 0 110 -43t44 -108q0 -61 -45.5 -105.5t-108.5 -44.5q-66 0 -110 43t-44 109z" />
<glyph unicode="&#x202f;" horiz-adv-x="374" />
<glyph unicode="&#x2030;" horiz-adv-x="2420" d="M57 1022q0 154 94.5 242t248 88t246.5 -89.5t93 -228.5q0 -158 -95 -245t-251 -87q-147 0 -241.5 87.5t-94.5 232.5zM276 1024q0 -61 27 -110.5t92 -49.5q125 0 125 166q0 158 -121 158q-123 0 -123 -164zM293 84l915 1268l148 -111l-918 -1270zM903 289 q0 154 94.5 241.5t248 87.5t246.5 -89t93 -228q0 -158 -95 -245t-251 -87q-147 0 -241.5 87t-94.5 233zM1122 291q0 -61 27 -110.5t92 -49.5q125 0 125 166q0 158 -121 158q-123 0 -123 -164zM1681 289q0 154 94.5 241.5t248 87.5t246.5 -89t93 -228q0 -158 -95 -245 t-251 -87q-147 0 -241.5 87t-94.5 233zM1901 291q0 -61 26.5 -110.5t91.5 -49.5q125 0 125 166q0 158 -121 158q-123 0 -122 -164z" />
<glyph unicode="&#x2039;" horiz-adv-x="716" d="M78 487l385 424l135 -125l-225 -299l225 -299l-135 -125z" />
<glyph unicode="&#x203a;" horiz-adv-x="716" d="M119 188l225 299l-225 299l135 125l385 -424l-385 -424z" />
<glyph unicode="&#x2044;" horiz-adv-x="409" d="M-326 84l916 1268l147 -111l-917 -1270z" />
<glyph unicode="&#x205f;" horiz-adv-x="468" />
<glyph unicode="&#x2070;" horiz-adv-x="819" d="M68 1073q0 201 90 317.5t254 116.5q166 0 252 -121.5t86 -306.5q0 -209 -94.5 -318.5t-252.5 -109.5q-154 0 -244.5 113t-90.5 309zM285 1073q0 -264 125 -264q61 0 91.5 59.5t30.5 204.5q0 276 -120 277q-63 0 -95 -63.5t-32 -213.5z" />
<glyph unicode="&#x2074;" horiz-adv-x="819" d="M43 846v115l483 536h140v-498h86v-153h-86v-176h-195v176h-428zM270 999h201v211z" />
<glyph unicode="&#x2075;" horiz-adv-x="819" d="M88 762l102 133q35 -35 93.5 -57.5t107.5 -22.5q57 0 89 28.5t32 76.5q0 104 -221 104h-150l43 467h467l-10 -154h-291l-10 -163q186 0 277.5 -67t91.5 -187q0 -119 -89.5 -194t-236.5 -75q-156 0 -295 111z" />
<glyph unicode="&#x2076;" horiz-adv-x="819" d="M88 983q0 199 155.5 345.5t389.5 178.5l45 -155q-258 -47 -342 -185q49 12 104 13q139 0 217 -66.5t78 -181.5q0 -117 -83 -199t-230 -82q-158 0 -246 88t-88 244zM289 965q0 -31 9 -63t43 -63.5t89 -31.5q49 0 82 29.5t33 85.5q0 14 -3 28.5t-14.5 36t-38 34.5t-67.5 13 q-74 0 -131 -18q-2 -16 -2 -51z" />
<glyph unicode="&#x2077;" horiz-adv-x="819" d="M96 1337l13 154h620v-119l-334 -702h-235l362 667h-426z" />
<glyph unicode="&#x2078;" horiz-adv-x="819" d="M96 881q0 143 137 217q-61 41 -85.5 83t-24.5 103q0 106 85 164.5t206 58.5q127 0 205.5 -58t78.5 -163q0 -121 -114 -192q139 -82 139 -199q0 -111 -84 -177.5t-227 -66.5q-141 0 -228.5 62t-87.5 168zM291 891q0 -35 31.5 -57.5t89.5 -22.5q61 0 88.5 24.5t27.5 57.5 t-23.5 52.5t-86.5 49.5q-11 6 -17 9q-111 -31 -110 -113zM313 1278q0 -27 21.5 -48.5t87.5 -53.5q90 47 90 108q0 35 -27.5 51.5t-66.5 16.5q-105 0 -105 -74z" />
<glyph unicode="&#x2079;" horiz-adv-x="819" d="M82 1227q0 117 83 198.5t230 81.5q158 0 246 -88t88 -243q0 -199 -155.5 -345.5t-389.5 -179.5l-45 156q256 47 340 184q-45 -12 -102 -12q-139 0 -217 66.5t-78 181.5zM272 1237q0 -14 3.5 -28.5t14.5 -36t37.5 -35t67.5 -13.5q66 0 131 17q0 10 1 26.5t1 26.5 q0 31 -9 62.5t-43 63.5t-89 32q-49 0 -82 -30t-33 -85z" />
<glyph unicode="&#x20ac;" d="M98 469v141h105v103h-105v141h119q37 227 164 362.5t338 135.5q184 0 305 -76l-66 -223q-104 76 -213 75q-209 0 -260 -274h355v-141h-369q-2 -18 -2 -51q0 -35 2 -52h369v-141h-357q45 -270 260 -270q129 0 230 75l55 -221q-127 -82 -301 -82q-444 0 -512 498h-117z" />
<glyph unicode="&#x2122;" horiz-adv-x="1835" d="M57 1231v141h678v-141h-256v-619h-168v619h-254zM885 612v760h178l242 -532l233 532h178v-760h-166v439l-192 -439h-117l-197 439v-439h-159z" />
<glyph unicode="&#x2126;" horiz-adv-x="1462" d="M98 0v250h281q-45 29 -86 67.5t-88 103t-76 161t-29 209.5q0 266 167 438t464 172t464 -172t167 -438q0 -113 -26.5 -206t-77 -160t-86 -101.5t-85.5 -73.5h277v-250h-545v260q143 90 209 211t66 313q0 72 -17.5 136.5t-56.5 123t-112.5 93t-176 34.5t-176.5 -35.5 t-113 -95t-56 -123t-17 -133.5q0 -356 274 -524v-260h-545z" />
<glyph unicode="&#x2202;" horiz-adv-x="1099" d="M68 385q0 217 128 336t328 119q135 0 213 -58q-2 82 -14 159t-38 159t-77 131t-121 49q-115 0 -223 -86l-121 162q129 131 361 131q137 0 235.5 -67.5t149.5 -181.5t73.5 -236.5t22.5 -260.5q0 -147 -28.5 -280t-88 -245t-164 -178.5t-241.5 -66.5q-184 0 -289.5 112 t-105.5 302zM322 387q0 -43 8 -83t44 -80t95 -40q92 0 160.5 100.5t93.5 274.5q-72 55 -191 55q-113 0 -161.5 -67.5t-48.5 -159.5z" />
<glyph unicode="&#x2206;" horiz-adv-x="1316" d="M49 0v166l526 1206h166l527 -1206v-166h-1219zM330 223h659l-334 748z" />
<glyph unicode="&#x220f;" horiz-adv-x="1529" d="M68 1139v233h1394v-233h-223v-1375h-262v1375h-424v-1375h-262v1375h-223z" />
<glyph unicode="&#x2211;" horiz-adv-x="1124" d="M47 -84l442 653l-428 650v153h996v-233h-627l358 -561l-372 -582h641v-234h-1010v154z" />
<glyph unicode="&#x2212;" d="M102 522v197h922v-197h-922z" />
<glyph unicode="&#x221a;" d="M37 864h235l174 -463l396 1168h248l-560 -1569h-153z" />
<glyph unicode="&#x221e;" horiz-adv-x="1581" d="M92 639q0 174 98.5 280.5t239.5 106.5q221 0 352 -258q145 258 375 258q139 0 235.5 -106.5t96.5 -280.5t-98.5 -280.5t-239.5 -106.5q-221 0 -354 258q-141 -258 -373 -258q-139 0 -235.5 106.5t-96.5 280.5zM279 639q0 -82 43 -140.5t120.5 -58.5t128 50.5t95.5 142.5 q-102 207 -226 207q-74 0 -117.5 -59.5t-43.5 -141.5zM915 645q96 -207 226 -207q74 0 118 59.5t44 141.5t-43 140.5t-121 58.5t-127 -50.5t-97 -142.5z" />
<glyph unicode="&#x222b;" horiz-adv-x="649" d="M16 -291h35q111 0 144.5 58.5t33.5 216.5q0 117 -14 266l-49 502q-16 174 -16 286q0 227 93 338t289 111q39 0 66 -10l14 -181h-41q-106 0 -139 -61t-33 -195q0 -127 17 -297l49 -495q14 -141 14 -285q0 -444 -364 -444q-49 0 -84 10z" />
<glyph unicode="&#x2248;" d="M102 307q31 113 87.5 193t144.5 80q76 0 234.5 -59.5t199.5 -59.5q45 0 70 26.5t41 83.5l145 -43q-31 -113 -87 -192.5t-144 -79.5q-76 0 -235 59.5t-200 59.5q-45 0 -69.5 -26.5t-40.5 -84.5zM102 696q31 113 87.5 193t144.5 80q76 0 234.5 -59.5t199.5 -59.5 q45 0 70 27t41 84l145 -43q-31 -113 -87 -193t-144 -80q-76 0 -235 59.5t-200 59.5q-45 0 -69.5 -26.5t-40.5 -84.5z" />
<glyph unicode="&#x2260;" d="M102 313v197h279l143 225h-422v197h549l97 151h223l-97 -151h150v-197h-276l-144 -225h420v-197h-545l-96 -153h-223l96 153h-154z" />
<glyph unicode="&#x2264;" d="M102 0v184h922v-184h-922zM143 686v102l754 400l86 -174l-557 -277l557 -276l-86 -174z" />
<glyph unicode="&#x2265;" d="M102 0v184h922v-184h-922zM143 461l557 276l-557 277l86 174l754 -400v-102l-754 -399z" />
<glyph unicode="&#x25ca;" d="M49 662l477 690h74l477 -690l-477 -691h-74zM272 662l291 -433l291 433l-291 432z" />
<glyph unicode="&#xe000;" horiz-adv-x="985" d="M0 985h985v-985h-985v985z" />
<glyph unicode="&#xf8ff;" horiz-adv-x="7444" d="M143 -111h383q6 -45 49 -69.5t97 -24.5q129 0 187.5 74t84.5 246q-141 -131 -328 -131q-184 0 -294.5 111.5t-110.5 289.5q0 233 171 423.5t415 190.5q186 0 262 -135h4l14 107h342l-137 -875q-47 -299 -211 -436t-438 -137q-119 0 -225.5 34.5t-185.5 120.5t-79 211z M571 449q0 -78 49.5 -126.5t139.5 -48.5q109 0 183.5 74t74.5 182q0 78 -50 128.5t-139 50.5q-109 0 -183.5 -75t-74.5 -185zM1518 -166h38v-311h-38v311zM1520 397q0 229 164.5 415.5t404.5 186.5q86 0 162 -32.5t116 -94.5l17 99h342l-154 -971h-342l17 111h-2 q-111 -139 -314 -140q-188 0 -299.5 122t-111.5 304zM1651 -166h37v-45h-37v45zM1651 -252h37v-225h-37v225zM1780 -166h39v-110q25 29 61 28q47 0 71.5 -33.5t24.5 -78.5q0 -51 -26.5 -86t-71.5 -35q-41 0 -61 32v-28h-37v311zM1817 -365q0 -86 59 -86q31 0 46 28t15 58 q0 86 -59 86q-61 0 -61 -86zM1876 444q0 -80 49 -128t139 -48q109 0 182.5 72t73.5 182q0 78 -50 129t-138 51q-106 0 -181 -73.5t-75 -184.5zM2040 -252h33v-35q20 39 49 39q20 0 39 -12l-13 -35q-12 8 -28 8q-43 0 -43 -71v-119h-37v225zM2195 -365q0 53 28 85t77 32 t77.5 -30.5t28.5 -81.5q0 -121 -106 -121q-104 2 -105 116zM2234 -365q0 -86 66 -86q68 0 67 89q0 39 -19 61t-48 22q-66 0 -66 -86zM2462 -410l37 7q6 -47 59 -48q51 0 51 35q0 20 -34.5 28.5t-70.5 24t-36 52.5q0 63 82 63t90 -61l-37 -6q-12 37 -49 36q-49 0 -49 -28 q0 -4 1 -7t2 -5.5t3 -4.5t6 -4l6 -3q2 -1 8 -3t9.5 -3t11.5 -2t12 -3q43 -10 63.5 -24.5t20.5 -45.5q0 -33 -25.5 -51t-64.5 -18q-84 -1 -96 71zM2753 -346h51v-53h-51v53zM2781 0l152 971h342l-19 -129h2q133 158 334 157q307 0 307 -297q0 -43 -10 -118l-92 -584h-342 l72 455q16 109 16 147q0 125 -127 125q-178 0 -215 -227l-78 -500h-342zM2918 -252h33v-31q29 35 70 35q45 0 63 -39q25 39 68 39q70 0 70 -74v-155h-37v145q0 51 -41 51q-55 0 -56 -63v-133h-36v147q0 49 -41 49q-55 0 -56 -75v-121h-37v225zM3299 -252h39v-143 q0 -53 45 -54q59 0 60 70v127h39v-225h-35v33q-25 -37 -70 -37q-78 0 -78 82v147zM3367 -223l29 59h49l-45 -59h-33zM3551 -410l37 7q6 -47 59 -48q51 0 52 35q0 20 -35 28.5t-71 24t-36 52.5q0 63 82 63t90 -61l-36 -6q-12 37 -50 36q-49 0 -49 -28q0 -4 1 -7t2 -5.5 t3 -4.5t6.5 -4t6.5 -3t8 -3l9 -3q3 -1 11.5 -2t12.5 -3q43 -10 63.5 -24.5t20.5 -45.5q0 -33 -26 -51t-65 -18q-84 -1 -96 71zM3813 -166h39v-45h-39v45zM3813 -252h39v-225h-39v225zM3924 -364.5q0 53.5 25.5 85t76.5 31.5q78 0 90 -69l-36 -7q-10 45 -54 45q-61 0 -61 -86 t61 -86q46 1 58 56l37 -4q-12 -82 -95 -82q-51 0 -76.5 31.5t-25.5 85zM4035 395q0 227 166.5 415.5t404.5 188.5q86 0 162 -32.5t116 -94.5l109 691h342l-246 -1563h-342l17 111h-4q-53 -70 -138.5 -105t-175.5 -35q-186 0 -298.5 121t-112.5 303zM4170 -418 q0 37 27.5 52.5t71.5 20.5t58 11v12q0 43 -55 43q-47 0 -57 -43l-37 7q14 68 98 67q90 0 90 -71v-84q0 -55 11 -74h-39q-5 8 -9 28q-39 -33 -81 -32q-78 0 -78 63zM4211 -416q0 -37 45 -37q31 0 51 17.5t20 50.5v20q-12 -6 -43.5 -10t-52 -12t-20.5 -29zM4391 444 q0 -80 49 -128t139 -48q109 0 182.5 72t73.5 182q0 78 -50 129t-138 51q-106 0 -181 -73.5t-75 -184.5zM4477 -346h51v-53h-51v53zM4622 -252h39l64 -180l63 180h39l-84 -225h-37zM4891 -166h39v-45h-39v45zM4891 -252h39v-225h-39v225zM4999 -360q0 45 24.5 78.5t71.5 33.5 q37 0 62 -28v110h39v-311h-37v28q-20 -33 -62 -32q-45 0 -71.5 32.5t-26.5 88.5zM5038 -365q0 -86 61.5 -86t61.5 86q0 37 -16.5 61.5t-47.5 24.5q-59 0 -59 -86zM5263 -367q0 55 28 87t77 32t75.5 -32.5t26.5 -77.5v-17h-168q2 -31 20.5 -53.5t47.5 -22.5q49 1 59 48l41 -7 q-25 -72 -100 -71q-106 0 -107 114zM5302 0l248 1563h342l-115 -719h5q141 156 331 155q154 0 230.5 -80.5t76.5 -224.5q0 -53 -8 -102l-94 -592h-342l80 498q8 53 8 88q0 141 -127 141q-94 0 -146.5 -66.5t-68.5 -162.5l-78 -498h-342zM5304 -342h127q-6 63 -61 63 q-58 0 -66 -63zM5530 -365q0 53 27.5 85t76.5 32t78 -30.5t29 -81.5q-1 -121 -107 -121q-104 2 -104 116zM5568 -365q0 -86 66 -86q68 0 68 89q0 39 -19.5 61t-48.5 22q-66 0 -66 -86zM5839 -346h53v-53h-53v53zM5988 -364.5q0 53.5 26 85t77 31.5q78 0 90 -69l-37 -7 q-10 45 -53 45q-61 0 -61.5 -86t61.5 -86q45 1 57 56l37 -4q-12 -82 -94 -82q-51 0 -77 31.5t-26 85zM6236 -418q0 37 27.5 52.5t72 20.5t58.5 11v12q0 43 -55 43q-47 0 -58 -43l-37 7q14 68 99 67q90 0 90 -71v-84q0 -55 10 -74h-39q-4 8 -8 28q-39 -33 -82 -32 q-78 0 -78 63zM6277 -416q0 -37 45 -37q31 0 51.5 17.5t20.5 50.5v20q-12 -6 -44 -10t-52.5 -12t-20.5 -29zM6494 -252h33v29q0 61 61 61q25 0 37 -4l-6 -33q-12 2 -26 2q-27 0 -27 -34v-21h43v-31h-43v-194h-39v194h-33v31zM6525 0l154 971h342l-154 -971h-342zM6660 -367 q0 55 27.5 87t77 32t76 -32.5t26.5 -77.5v-17h-168q2 -31 20.5 -53.5t47.5 -22.5q49 1 59 48l41 -7q-25 -72 -100 -71q-106 0 -107 114zM6701 -342h127q-6 63 -61 63q-58 0 -66 -63zM6713 1309q0 84 66.5 151.5t157.5 67.5q72 0 117.5 -46t45.5 -116q0 -86 -67.5 -153.5 t-155.5 -67.5q-72 0 -118 47t-46 117zM6744 -223l27 59h51l-47 -59h-31zM7027 127q0 59 40 96t97 37t97 -37t40 -96t-40 -97t-97 -38t-97 38t-40 97zM7064 127q0 -45 29.5 -76t70.5 -31t70.5 31t29.5 76t-29.5 74.5t-70.5 29.5t-70.5 -29.5t-29.5 -74.5zM7111 51v150h57 q57 0 57 -43q0 -37 -39 -41l41 -66h-32l-35 64h-21v-64h-28zM7139 139h27q31 0 31 21q0 18 -31 18h-27v-39z" />
<glyph unicode="&#xfb01;" horiz-adv-x="1148" d="M20 791v192h142v84q0 117 34.5 202t94 131t125 66.5t137.5 20.5q78 0 113 -12l-29 -199h-25q-121 0 -160.5 -54.5t-39.5 -160.5v-78h202v-192h-202v-791h-250v791h-142zM737 1320.5q0 65.5 46 112t114 46.5q70 0 118 -46.5t48 -112t-48 -110.5t-118 -45q-68 0 -114 45 t-46 110.5zM772 0v961l250 51v-1012h-250z" />
<glyph unicode="&#xfb02;" horiz-adv-x="1148" d="M20 791v192h142v84q0 117 34.5 202t94 131t125 66.5t137.5 20.5q78 0 113 -12l-29 -199h-25q-121 0 -160.5 -54.5t-39.5 -160.5v-78h202v-192h-202v-791h-250v791h-142zM772 0v1438l250 49v-1487h-250z" />
<glyph horiz-adv-x="1216" d="M51 0l477 1042h160l475 -1042h-258l-92 207h-414l-90 -207h-258zM483 401h246l-123 281z" />
<glyph horiz-adv-x="1058" d="M147 0v1042h379q379 0 379 -264q0 -74 -51 -135t-127 -80q246 -37 246 -250q0 -313 -400 -313h-426zM401 217h117q195 0 195 109q0 68 -50.5 92t-168.5 24h-93v-225zM401 631h78q170 0 170 104q0 94 -114 94h-134v-198z" />
<glyph horiz-adv-x="1095" d="M96 506q0 283 156 424t422 141q197 0 319 -67l-39 -207q-127 66 -268 65q-96 0 -164.5 -30.5t-102.5 -82t-48.5 -104.5t-14.5 -113q0 -344 344 -344q145 0 273 66l37 -207q-127 -76 -340 -76q-268 0 -421 139.5t-153 395.5z" />
<glyph horiz-adv-x="1232" d="M147 0v1042h416q311 0 442.5 -130t131.5 -382q0 -106 -27 -196t-86 -168t-165.5 -122t-254.5 -44h-457zM401 217h138q334 0 333 313q0 299 -311 299h-160v-612z" />
<glyph horiz-adv-x="956" d="M147 0v1042h682v-213h-428v-174h344v-213h-344v-229h439v-213h-693z" />
<glyph horiz-adv-x="894" d="M147 0v1042h678v-213h-424v-180h332v-213h-332v-436h-254z" />
<glyph horiz-adv-x="1218" d="M96 512q0 270 156 414.5t446 144.5q195 0 342 -70l-45 -204q-111 66 -286 65q-352 0 -353 -346q0 -139 84 -234.5t269 -95.5q66 0 106 15v155h-190v209h442v-532q-180 -61 -379 -62q-272 0 -432 136.5t-160 404.5z" />
<glyph horiz-adv-x="1247" d="M147 0v1042h254v-378h445v378h254v-1042h-254v444h-445v-444h-254z" />
<glyph horiz-adv-x="546" d="M147 0v1042h252v-1042h-252z" />
<glyph horiz-adv-x="563" d="M-4 -6q119 49 143.5 91t24.5 185v772h252v-786q0 -201 -68.5 -291t-243.5 -149z" />
<glyph horiz-adv-x="1171" d="M147 0v1042h256v-1042h-256zM416 549l342 493h297l-365 -487l260 -367q27 -41 76 -41h49v-147q-86 -14 -160 -14q-129 0 -196 102z" />
<glyph horiz-adv-x="937" d="M147 0v1042h254v-827h437v-215h-691z" />
<glyph horiz-adv-x="1445" d="M147 0v1042h275l303 -626l299 626h274v-1042h-249v580l-271 -580h-110l-271 573v-573h-250z" />
<glyph horiz-adv-x="1245" d="M147 0v1042h275l424 -573v573h252v-1042h-195l-500 678v-678h-256z" />
<glyph horiz-adv-x="1261" d="M96 518q0 252 135.5 402.5t397.5 150.5q268 0 402 -152.5t134 -398.5q0 -250 -136 -399.5t-400 -149.5t-398.5 149.5t-134.5 397.5zM354 518q0 -158 73 -245t202 -87q281 0 280 334q0 172 -74.5 255t-205.5 83q-129 0 -202 -87t-73 -253z" />
<glyph horiz-adv-x="1024" d="M147 0v1042h406q174 0 275.5 -80.5t101.5 -238.5q0 -156 -106.5 -245t-327.5 -89h-93v-389h-256zM403 598h99q57 0 94 12.5t51.5 36t18.5 38.5t4 38q-2 106 -131 106h-136v-231z" />
<glyph horiz-adv-x="1261" d="M96 518q0 252 135.5 402.5t397.5 150.5q268 0 402 -152.5t134 -398.5q0 -195 -82 -330t-243 -188q88 -102 144 -140t122 -38h24v-178q-37 -13 -135 -13q-59 0 -120.5 30t-121 87t-99.5 104.5t-95 120.5q-229 18 -346 166t-117 377zM354 518q0 -158 73 -245t202 -87 q281 0 280 334q0 172 -74.5 255t-205.5 83q-129 0 -202 -87t-73 -253z" />
<glyph horiz-adv-x="1110" d="M147 0v1042h373q68 0 121 -6t108.5 -25.5t92.5 -51t60.5 -87t23.5 -131.5q0 -90 -69 -167.5t-202 -98.5q66 -18 92.5 -34.5t55.5 -63.5l106 -176q31 -53 66 -54h53v-147q-55 -18 -162 -18q-113 0 -178 112l-160 271q-27 43 -86 43h-39v-408h-256zM403 616h115 q147 0 148 107q0 66 -39 86t-121 20h-103v-213z" />
<glyph horiz-adv-x="892" d="M74 53l37 209q53 -35 142 -59.5t155 -24.5q51 0 83.5 10.5t46 31t17.5 35.5t4 36q0 16 -5 29.5t-16.5 25.5t-20.5 21.5t-28.5 19.5t-31 15.5t-35 16.5t-33.5 15q-53 25 -80.5 39t-74 45t-70 60.5t-43 76.5t-19.5 103q0 158 100.5 235.5t260.5 77.5q197 0 307 -61 l-39 -203q-104 57 -246 57q-139 0 -139 -90q0 -23 12.5 -42t42 -38.5t51 -31t67.5 -34t63 -30.5q70 -37 110.5 -65.5t78.5 -88t38 -133.5q0 -154 -98 -247t-299 -93q-217 0 -338 82z" />
<glyph horiz-adv-x="1167" d="M109 829v213h950v-213h-348v-829h-254v829h-348z" />
<glyph horiz-adv-x="1259" d="M137 391v651h254v-606q0 -246 232 -246q131 0 187 66t56 158v628h254v-673q0 -184 -142 -291t-357 -107q-205 0 -344.5 105.5t-139.5 314.5z" />
<glyph horiz-adv-x="1175" d="M51 1042h275l262 -639l266 639h268l-465 -1042h-153z" />
<glyph horiz-adv-x="1650" d="M51 1042h266l215 -624l164 487l-45 137h264l193 -624l225 624h264l-423 -1042h-166l-195 567l-205 -567h-166z" />
<glyph horiz-adv-x="1202" d="M86 0l336 541l-305 501h274l211 -362l205 362h278l-307 -487l338 -555h-282l-234 408l-231 -408h-283z" />
<glyph horiz-adv-x="1069" d="M51 1042h273l213 -395l204 395h277l-354 -606v-436h-261v428z" />
<glyph horiz-adv-x="1118" d="M113 0v170l520 659h-488v213h834v-170l-535 -659h553v-213h-884z" />
<glyph horiz-adv-x="1216" d="M51 0l477 1042h160l475 -1042h-258l-92 207h-414l-90 -207h-258zM467 1229l125 352l278 -61l-301 -336zM483 401h246l-123 281z" />
<glyph horiz-adv-x="1216" d="M51 0l477 1042h160l475 -1042h-258l-92 207h-414l-90 -207h-258zM367 1516l276 65l125 -352l-102 -45zM483 401h246l-123 281z" />
<glyph horiz-adv-x="1216" d="M51 0l477 1042h160l475 -1042h-258l-92 207h-414l-90 -207h-258zM342 1219l184 342h166l182 -342l-100 -35l-166 147l-166 -147zM483 401h246l-123 281z" />
<glyph horiz-adv-x="1216" d="M51 0l477 1042h160l475 -1042h-258l-92 207h-414l-90 -207h-258zM309 1243q49 276 178 277q41 0 139.5 -42t129.5 -42q49 0 80 80l88 -19q-49 -276 -179 -276q-41 0 -139 42t-129 42q-49 0 -80 -80zM483 401h246l-123 281z" />
<glyph horiz-adv-x="1216" d="M51 0l477 1042h160l475 -1042h-258l-92 207h-414l-90 -207h-258zM221 1362q0 63 45 107t109 44q66 0 113 -44t47 -107q0 -61 -47 -105.5t-113 -44.5q-63 0 -108.5 44t-45.5 106zM483 401h246l-123 281zM682 1362q0 63 45 107t109 44q66 0 112.5 -44t46.5 -107 q0 -61 -46.5 -105.5t-112.5 -44.5q-63 0 -108.5 44t-45.5 106z" />
<glyph horiz-adv-x="1216" d="M51 0l477 1042h160l475 -1042h-258l-92 207h-414l-90 -207h-258zM375 1374q0 98 65.5 156.5t163.5 58.5q96 0 163 -59.5t67 -155.5t-67 -154.5t-163 -58.5q-98 0 -163.5 58.5t-65.5 154.5zM483 401h246l-123 281zM526 1374q0 -92 80 -92q82 0 82 92q0 98 -82 99 q-80 -1 -80 -99z" />
<glyph horiz-adv-x="1095" d="M96 506q0 283 156 424t422 141q197 0 319 -67l-39 -207q-127 66 -268 65q-96 0 -164.5 -30.5t-102.5 -82t-48.5 -104.5t-14.5 -113q0 -344 344 -344q145 0 273 66l37 -207q-119 -68 -322 -76l-72 -90q96 -4 150.5 -46t54.5 -111q0 -86 -77.5 -145.5t-211.5 -59.5 q-96 0 -174 41l39 100q53 -33 117 -33q80 0 80 54q0 68 -162 67l-22 53l139 179q-213 29 -333 165t-120 361z" />
<glyph horiz-adv-x="956" d="M147 0v1042h682v-213h-428v-174h344v-213h-344v-229h439v-213h-693zM338 1229l125 352l278 -61l-301 -336z" />
<glyph horiz-adv-x="956" d="M147 0v1042h682v-213h-428v-174h344v-213h-344v-229h439v-213h-693zM205 1516l276 65l125 -352l-102 -45z" />
<glyph horiz-adv-x="956" d="M147 0v1042h682v-213h-428v-174h344v-213h-344v-229h439v-213h-693zM215 1219l184 342h166l183 -342l-101 -35l-166 147l-166 -147z" />
<glyph horiz-adv-x="956" d="M100 1362q0 63 45 107t109 44q66 0 113 -44t47 -107q0 -61 -47 -105.5t-113 -44.5q-63 0 -108.5 44t-45.5 106zM147 0v1042h682v-213h-428v-174h344v-213h-344v-229h439v-213h-693zM561 1362q0 63 45 107t109 44q66 0 112.5 -44t46.5 -107q0 -61 -46.5 -105.5 t-112.5 -44.5q-63 0 -108.5 44t-45.5 106z" />
<glyph horiz-adv-x="546" d="M147 0v1042h252v-1042h-252zM164 1229l125 352l278 -61l-301 -336z" />
<glyph horiz-adv-x="546" d="M-20 1516l276 65l125 -352l-102 -45zM147 0v1042h252v-1042h-252z" />
<glyph horiz-adv-x="546" d="M8 1219l185 342h165l183 -342l-101 -35l-166 147l-165 -147zM147 0v1042h252v-1042h-252z" />
<glyph horiz-adv-x="546" d="M-113 1362q0 63 45 107t109 44q66 0 113 -44t47 -107q0 -61 -47 -105.5t-113 -44.5q-63 0 -108.5 44t-45.5 106zM147 0v1042h252v-1042h-252zM348 1362q0 63 45 107t109 44q66 0 113 -44t47 -107q0 -61 -47 -105.5t-113 -44.5q-63 0 -108.5 44t-45.5 106z" />
<glyph horiz-adv-x="546" d="M147 0v1042h252v-1042h-252z" />
<glyph horiz-adv-x="964" d="M47 371v147l127 31v493h254v-430l248 62v-146l-248 -63v-250h436v-215h-690v401z" />
<glyph horiz-adv-x="1245" d="M147 0v1042h275l424 -573v573h252v-1042h-195l-500 678v-678h-256zM322 1243q49 276 178 277q41 0 139 -42t129 -42q49 0 80 80l88 -19q-49 -276 -178 -276q-41 0 -139.5 42t-129.5 42q-49 0 -79 -80z" />
<glyph horiz-adv-x="1261" d="M96 518q0 252 135.5 402.5t397.5 150.5q268 0 402 -152.5t134 -398.5q0 -250 -136 -399.5t-400 -149.5t-398.5 149.5t-134.5 397.5zM354 518q0 -158 73 -245t202 -87q281 0 280 334q0 172 -74.5 255t-205.5 83q-129 0 -202 -87t-73 -253zM453 1229l125 352l278 -61 l-301 -336z" />
<glyph horiz-adv-x="1261" d="M96 518q0 252 135.5 402.5t397.5 150.5q268 0 402 -152.5t134 -398.5q0 -250 -136 -399.5t-400 -149.5t-398.5 149.5t-134.5 397.5zM354 518q0 -158 73 -245t202 -87q281 0 280 334q0 172 -74.5 255t-205.5 83q-129 0 -202 -87t-73 -253zM397 1516l277 65l125 -352 l-103 -45z" />
<glyph horiz-adv-x="1261" d="M96 518q0 252 135.5 402.5t397.5 150.5q268 0 402 -152.5t134 -398.5q0 -250 -136 -399.5t-400 -149.5t-398.5 149.5t-134.5 397.5zM354 518q0 -158 73 -245t202 -87q281 0 280 334q0 172 -74.5 255t-205.5 83q-129 0 -202 -87t-73 -253zM365 1219l184 342h166l182 -342 l-100 -35l-166 147l-166 -147z" />
<glyph horiz-adv-x="1261" d="M96 518q0 252 135.5 402.5t397.5 150.5q268 0 402 -152.5t134 -398.5q0 -250 -136 -399.5t-400 -149.5t-398.5 149.5t-134.5 397.5zM332 1243q49 276 178 277q41 0 139.5 -42t128.5 -42q49 0 80 80l88 -19q-49 -276 -178 -276q-41 0 -139.5 42t-128.5 42q-49 0 -80 -80z M354 518q0 -158 73 -245t202 -87q281 0 280 334q0 172 -74.5 255t-205.5 83q-129 0 -202 -87t-73 -253z" />
<glyph horiz-adv-x="1261" d="M96 518q0 252 135.5 402.5t397.5 150.5q268 0 402 -152.5t134 -398.5q0 -250 -136 -399.5t-400 -149.5t-398.5 149.5t-134.5 397.5zM244 1362q0 63 45 107t108 44q66 0 113 -44t47 -107q0 -61 -47 -105.5t-113 -44.5q-63 0 -108 44t-45 106zM354 518q0 -158 73 -245 t202 -87q281 0 280 334q0 172 -74.5 255t-205.5 83q-129 0 -202 -87t-73 -253zM705 1362q0 63 45 107t108 44q66 0 113 -44t47 -107q0 -61 -47 -105.5t-113 -44.5q-63 0 -108 44t-45 106z" />
<glyph horiz-adv-x="1261" d="M72 -53l149 184q-125 139 -125 387q0 252 135.5 402.5t397.5 150.5q178 0 299 -70l78 95h198l-157 -195q119 -145 118 -381q0 -250 -136 -399.5t-400 -149.5q-160 0 -287 64l-72 -88h-198zM354 518q0 -104 33 -182l393 483q-63 39 -151 39q-129 0 -202 -87t-73 -253z M492 219q57 -33 137 -33q281 0 280 334q0 102 -28 176z" />
<glyph horiz-adv-x="892" d="M74 53l37 209q53 -35 142 -59.5t155 -24.5q51 0 83.5 10.5t46 31t17.5 35.5t4 36q0 16 -5 29.5t-16.5 25.5t-20.5 21.5t-28.5 19.5t-31 15.5t-35 16.5t-33.5 15q-53 25 -80.5 39t-74 45t-70 60.5t-43 76.5t-19.5 103q0 158 100.5 235.5t260.5 77.5q197 0 307 -61 l-39 -203q-104 57 -246 57q-139 0 -139 -90q0 -23 12.5 -42t42 -38.5t51 -31t67.5 -34t63 -30.5q70 -37 110.5 -65.5t78.5 -88t38 -133.5q0 -154 -98 -247t-299 -93q-217 0 -338 82zM184 1536l101 35l166 -148l165 148l101 -35l-185 -342h-165z" />
<glyph horiz-adv-x="1259" d="M137 391v651h254v-606q0 -246 232 -246q131 0 187 66t56 158v628h254v-673q0 -184 -142 -291t-357 -107q-205 0 -344.5 105.5t-139.5 314.5zM510 1227l125 352l278 -61l-301 -336z" />
<glyph horiz-adv-x="1259" d="M137 391v651h254v-606q0 -246 232 -246q131 0 187 66t56 158v628h254v-673q0 -184 -142 -291t-357 -107q-205 0 -344.5 105.5t-139.5 314.5zM328 1516l276 65l125 -352l-102 -45z" />
<glyph horiz-adv-x="1259" d="M137 391v651h254v-606q0 -246 232 -246q131 0 187 66t56 158v628h254v-673q0 -184 -142 -291t-357 -107q-205 0 -344.5 105.5t-139.5 314.5zM362 1219l185 342h166l182 -342l-100 -35l-166 147l-166 -147z" />
<glyph horiz-adv-x="1259" d="M137 391v651h254v-606q0 -246 232 -246q131 0 187 66t56 158v628h254v-673q0 -184 -142 -291t-357 -107q-205 0 -344.5 105.5t-139.5 314.5zM246 1362q0 63 45 107t108 44q66 0 113 -44t47 -107q0 -61 -47 -105.5t-113 -44.5q-63 0 -108 44t-45 106zM707 1362 q0 63 45 107t108 44q66 0 113 -44t47 -107q0 -61 -47 -105.5t-113 -44.5q-63 0 -108 44t-45 106z" />
<glyph horiz-adv-x="1069" d="M51 1042h273l213 -395l204 395h277l-354 -606v-436h-261v428zM438 1229l125 352l279 -61l-301 -336z" />
<glyph horiz-adv-x="1069" d="M51 1042h273l213 -395l204 395h277l-354 -606v-436h-261v428zM152 1362q0 63 45 107t108 44q66 0 113 -44t47 -107q0 -61 -47 -105.5t-113 -44.5q-63 0 -108 44t-45 106zM612 1362q0 63 45 107t109 44q66 0 113 -44t47 -107q0 -61 -47 -105.5t-113 -44.5q-63 0 -108.5 44 t-45.5 106z" />
<glyph horiz-adv-x="1118" d="M113 0v170l520 659h-488v213h834v-170l-535 -659h553v-213h-884zM301 1536l100 35l166 -148l166 148l101 -35l-185 -342h-166z" />
<glyph horiz-adv-x="1261" d="M61 477v139h115v426h416q311 0 442 -130t131 -382q0 -106 -26.5 -196t-86 -168t-166 -122t-253.5 -44h-457v477h-115zM430 217h137q334 0 334 313q0 299 -311 299h-160v-213h205v-139h-205v-260z" />
<glyph horiz-adv-x="1024" d="M147 0v1042h256v-196h150q174 0 275.5 -81t101.5 -239q0 -156 -106.5 -244.5t-327.5 -88.5h-93v-193h-256zM403 401h99q57 0 94 12.5t51.5 36t18.5 39t4 37.5q-2 106 -131 107h-136v-232z" />
<glyph horiz-adv-x="1626" d="M31 0l778 1042h690v-213h-428v-174h344v-213h-344v-229h438v-213h-692v221h-328l-161 -221h-297zM629 414h188v256z" />
<glyph horiz-adv-x="1576" d="M96 520q0 238 136.5 380t410.5 142h807v-213h-428v-174h344v-215h-344v-227h438v-213h-819q-274 0 -409.5 135t-135.5 385zM354 520q0 -143 65.5 -229t244.5 -86h104v629h-125q-74 0 -130 -25t-85 -58.5t-47.5 -80.5t-22.5 -81t-4 -69z" />
<glyph horiz-adv-x="1785" d="M74 53l37 209q53 -35 142 -59.5t155 -24.5q51 0 83.5 10.5t46 31t17.5 35.5t4 36q0 16 -5 29.5t-16.5 25.5t-20.5 21.5t-28.5 19.5t-31 15.5t-35 16.5t-33.5 15q-53 25 -80.5 39t-74 45t-70 60.5t-43 76.5t-19.5 103q0 158 100.5 235.5t260.5 77.5q197 0 307 -61 l-39 -203q-104 57 -246 57q-139 0 -139 -90q0 -23 12.5 -42t42 -38.5t51 -31t67.5 -34t63 -30.5q70 -37 110.5 -65.5t78.5 -88t38 -133.5q0 -154 -98 -247t-299 -93q-217 0 -338 82zM967 53l37 209q53 -35 142 -59.5t154 -24.5q51 0 84 10.5t46.5 31t17.5 35.5t4 36 q0 16 -5 29.5t-16.5 25.5t-20.5 21.5t-28.5 19.5t-31 15.5t-35 16.5t-33.5 15q-53 25 -80.5 39t-74 45t-70 60.5t-43 76.5t-19.5 103q0 158 100.5 235.5t260.5 77.5q197 0 307 -61l-39 -203q-104 57 -246 57q-139 0 -139 -90q0 -23 12.5 -42t42 -38.5t51 -31t67.5 -34 t63 -30.5q70 -37 110.5 -65.5t78.5 -88t38 -133.5q0 -154 -98 -247t-299 -93q-217 0 -338 82z" />
<glyph horiz-adv-x="1441" d="M147 0v1042h678v-213h-424v-180h332v-213h-332v-436h-254zM1042 0v1042h252v-1042h-252z" />
<glyph horiz-adv-x="1832" d="M147 0v1042h678v-213h-424v-180h332v-213h-332v-436h-254zM1042 0v1042h254v-827h437v-215h-691z" />
<glyph horiz-adv-x="1214" d="M63 270q0 98 70 187.5t180 150.5q-102 117 -102 219q0 131 97.5 187.5t232.5 56.5q145 0 231 -62.5t86 -172.5q0 -160 -192 -275l108 -119q51 66 92 150h264q-98 -160 -217 -307l37 -39q61 -70 117 -70h37v-178q-66 -12 -129 -12q-109 0 -197 102l-18 21 q-143 -137 -328 -138q-174 0 -271.5 83t-97.5 216zM309 281q0 -53 38 -78t87 -25q96 0 187 86l-168 189q-143 -86 -144 -172zM463 825q0 -37 61 -108q96 61 97 119q0 23 -21.5 37t-52.5 14q-84 -1 -84 -62z" />
<glyph d="M94 510q0 252 121 395.5t348 143.5q229 0 349 -147.5t120 -391.5q0 -127 -31.5 -226.5t-80 -156.5t-114 -94t-125 -49.5t-122.5 -12.5q-215 0 -340 139.5t-125 399.5zM362 510q0 -35 4.5 -71t20.5 -99.5t61 -102t113 -38.5q27 0 51.5 7t63.5 33.5t63.5 96.5t24.5 174 q0 139 -49 225t-152 86q-98 0 -149.5 -81t-51.5 -230z" />
<glyph d="M215 0v186l256 17v600l-256 -33v193l383 75h135v-835l240 -17v-186h-758z" />
<glyph d="M125 0v129q129 88 212 148.5t177 141.5t141 149.5t47 127.5q0 125 -147 125q-168 0 -307 -143l-113 203q174 168 426 168q180 0 287.5 -89.5t107.5 -244.5q0 -254 -354 -502h399l-12 -213h-864z" />
<glyph d="M115 -170l149 190q113 -131 260 -131q102 0 149.5 51.5t47.5 118.5q0 98 -82 150.5t-236 52.5h-84v191q344 25 345 227q0 68 -40 108.5t-116 40.5q-66 0 -145.5 -39.5t-133.5 -101.5l-98 180q160 182 424 183q160 0 261.5 -85t101.5 -245q0 -242 -256 -328 q135 -16 221 -105t86 -222q-2 -176 -123 -286t-342 -110q-233 0 -389 160z" />
<glyph d="M49 20v144l676 874h170v-809h143v-209h-143v-317h-252v317h-594zM379 229h264v340z" />
<glyph d="M125 -170l147 188q115 -131 267 -131q102 0 149 52.5t47 132.5q0 109 -78.5 166t-275.5 57h-191l62 725h649l-14 -211h-426l-23 -307h23q233 0 377.5 -103.5t144.5 -308.5q0 -188 -125 -305t-330 -117q-236 0 -403 162z" />
<glyph d="M117 504q0 330 221 559t557 289l55 -209q-395 -80 -520 -348q90 29 176 28q193 0 302.5 -107.5t109.5 -291.5q0 -186 -122 -319.5t-327 -133.5q-215 0 -333.5 144.5t-118.5 388.5zM371 496q0 -74 16 -138.5t67.5 -118t131.5 -53.5q84 0 137 60.5t53 161.5q1 213 -194 213 q-115 0 -207 -33q-4 -61 -4 -92z" />
<glyph d="M119 809l14 211h862v-156l-497 -1167h-291l526 1112h-614z" />
<glyph d="M127 332q0 242 217 362q-96 72 -137 141.5t-41 178.5q0 162 114.5 250t282.5 88q182 0 294 -81t112 -245q0 -213 -197 -338q115 -72 170 -146.5t55 -189.5q0 -168 -124.5 -274.5t-305.5 -106.5q-207 0 -323.5 96.5t-116.5 264.5zM373 342q0 -74 52 -114t136 -40 q106 0 148.5 54.5t42.5 103.5q0 68 -37 104.5t-138 95.5q-18 11 -28 17q-82 -31 -129 -89t-47 -132zM416 993q0 -88 162 -192q141 80 141 203q0 70 -41 101.5t-105 31.5q-157 -1 -157 -144z" />
<glyph d="M109 596q0 186 121.5 319.5t326.5 133.5q215 0 334 -144.5t119 -388.5q0 -330 -221.5 -559t-557.5 -289l-55 209q395 82 520 346q-84 -27 -176 -26q-193 0 -302 107.5t-109 291.5zM350 598q0 -76 43 -137.5t152 -61.5q123 0 205 31q6 45 6 94q0 74 -16.5 138.5t-67.5 118 t-131 53.5q-88 0 -139.5 -63.5t-51.5 -172.5z" />
<glyph horiz-adv-x="1079" d="M72 662q0 317 120.5 503.5t346.5 186.5q229 0 349 -189.5t120 -500.5q0 -332 -126 -511.5t-343 -179.5q-215 0 -341 178.5t-126 512.5zM340 662q0 -51 1 -87t6 -97.5t18.5 -103.5t34 -86t56.5 -66.5t83 -22.5q104 0 152 110.5t48 352.5q0 66 -2 114.5t-13 119.5 t-31.5 116t-59.5 78.5t-94 33.5q-100 0 -149.5 -107.5t-49.5 -354.5z" />
<glyph horiz-adv-x="759" d="M37 1067v193l387 75h135v-1335h-262v1100z" />
<glyph horiz-adv-x="1036" d="M68 0v129q313 303 445 488.5t132 349.5q0 72 -37 114.5t-110 42.5q-156 0 -308 -155l-112 202q166 180 426 181q184 0 289.5 -94.5t105.5 -272.5q0 -201 -107.5 -382t-310.5 -390h463l-12 -213h-864z" />
<glyph horiz-adv-x="1015" d="M68 131l149 191q113 -131 260 -132q102 0 149.5 51.5t47.5 118.5q0 98 -82 150.5t-236 52.5h-84v191q344 25 344 227q0 68 -39.5 108.5t-115.5 40.5q-66 0 -145.5 -39.5t-133.5 -101.5l-98 180q160 182 424 183q160 0 261 -85t101 -245q0 -242 -256 -328 q135 -16 221.5 -105t86.5 -222q-2 -176 -123 -286t-342 -110q-233 0 -389 160z" />
<glyph horiz-adv-x="1077" d="M39 317v144l676 874h170v-809h143v-209h-143v-317h-252v317h-594zM369 526h264v340z" />
<glyph horiz-adv-x="1013" d="M68 133l147 189q115 -131 266 -132q102 0 149.5 52.5t47.5 132.5q0 109 -79 166t-275 57h-191l62 725h649l-15 -211h-426l-22 -307h22q233 0 378 -103.5t145 -308.5q0 -188 -125 -305t-330 -117q-236 0 -403 162z" />
<glyph horiz-adv-x="1056" d="M72 504q0 330 221 559t557 289l55 -209q-395 -80 -520 -348q90 29 176 28q193 0 302.5 -107.5t109.5 -291.5q0 -186 -122 -319.5t-327 -133.5q-215 0 -333.5 144.5t-118.5 388.5zM326 496q0 -74 16 -138.5t67.5 -118t131.5 -53.5q84 0 137 60.5t53 161.5q1 213 -194 213 q-115 0 -207 -33q-4 -61 -4 -92z" />
<glyph horiz-adv-x="1036" d="M74 1112l14 211h862v-156l-497 -1167h-291l526 1112h-614z" />
<glyph horiz-adv-x="1056" d="M92 332q0 242 217 362q-96 72 -137 141.5t-41 178.5q0 162 114.5 250t282.5 88q182 0 294 -81t112 -245q0 -213 -197 -338q115 -72 170.5 -146.5t55.5 -189.5q0 -168 -125 -274.5t-306 -106.5q-207 0 -323.5 96.5t-116.5 264.5zM338 342q0 -74 52 -114t136 -40 q106 0 148.5 54.5t42.5 103.5q0 68 -37 104.5t-137 95.5q-18 11 -29 17q-82 -31 -129 -89t-47 -132zM381 993q0 -88 162 -192q141 80 141 203q0 70 -41 101.5t-104 31.5q-158 -1 -158 -144z" />
<glyph horiz-adv-x="1056" d="M74 899q0 186 121.5 319.5t326.5 133.5q215 0 334 -144.5t119 -388.5q0 -330 -221.5 -559t-556.5 -289l-56 209q395 82 521 346q-84 -27 -177 -26q-193 0 -302 107.5t-109 291.5zM315 901q0 -76 43 -137.5t152 -61.5q121 0 205 31q6 45 6 94q0 74 -16.5 138.5t-67.5 118 t-131 53.5q-88 0 -139.5 -63.5t-51.5 -172.5z" />
<glyph horiz-adv-x="1089" d="M76 510q0 252 120.5 395.5t348.5 143.5q229 0 349 -147.5t120 -391.5q0 -127 -32 -226.5t-80 -156.5t-113.5 -94t-125 -49.5t-122.5 -12.5q-215 0 -340 139.5t-125 399.5zM344 510q0 -35 4 -71t20.5 -99.5t61.5 -102t113 -38.5q27 0 51 7t63 33.5t63.5 96.5t24.5 174 q0 139 -49 225t-151 86q-98 0 -149.5 -81t-51.5 -230z" />
<glyph horiz-adv-x="755" d="M49 770v193l383 75h135v-1038h-262v803z" />
<glyph horiz-adv-x="1038" d="M61 0v129q131 90 212 149.5t177.5 140.5t143.5 149.5t47 127.5q0 125 -149 125q-168 0 -308 -143l-112 203q174 168 426 168q182 0 289.5 -89.5t107.5 -244.5q0 -252 -356 -502h401l-12 -213h-867z" />
<glyph horiz-adv-x="1015" d="M68 -170l149 190q113 -131 260 -131q102 0 149.5 51.5t47.5 118.5q0 98 -82 150.5t-236 52.5h-84v191q344 25 344 227q0 68 -39.5 108.5t-115.5 40.5q-66 0 -145.5 -39.5t-133.5 -101.5l-98 180q160 182 424 183q160 0 261 -85t101 -245q0 -242 -256 -328 q135 -16 221.5 -105t86.5 -222q-2 -176 -123 -286t-342 -110q-233 0 -389 160z" />
<glyph horiz-adv-x="1077" d="M39 20v144l676 874h170v-809h143v-209h-143v-317h-252v317h-594zM369 229h264v340z" />
<glyph horiz-adv-x="1013" d="M68 -170l147 188q115 -131 266 -131q102 0 149.5 52.5t47.5 132.5q0 109 -79 166t-275 57h-191l62 725h649l-15 -211h-426l-22 -307h22q233 0 378 -103.5t145 -308.5q0 -188 -125 -305t-330 -117q-236 0 -403 162z" />
<glyph horiz-adv-x="1056" d="M82 504q0 330 221 559t557 289l55 -209q-395 -80 -520 -348q90 29 176 28q193 0 302.5 -107.5t109.5 -291.5q0 -186 -122 -319.5t-326 -133.5q-215 0 -334 144.5t-119 388.5zM336 496q0 -74 16.5 -138.5t67.5 -118t131 -53.5q84 0 137 60.5t53 161.5q1 213 -194 213 q-115 0 -207 -33q-4 -61 -4 -92z" />
<glyph horiz-adv-x="1036" d="M84 809l14 211h863v-156l-498 -1167h-291l526 1112h-614z" />
<glyph horiz-adv-x="1056" d="M92 332q0 242 217 362q-96 72 -137 141.5t-41 178.5q0 162 114.5 250t282.5 88q182 0 294 -81t112 -245q0 -213 -197 -338q115 -72 170.5 -146.5t55.5 -189.5q0 -168 -125 -274.5t-306 -106.5q-207 0 -323.5 96.5t-116.5 264.5zM338 342q0 -74 52 -114t136 -40 q106 0 148.5 54.5t42.5 103.5q0 68 -37 104.5t-137 95.5q-18 11 -29 17q-82 -31 -129 -89t-47 -132zM381 993q0 -88 162 -192q141 80 141 203q0 70 -41 101.5t-104 31.5q-158 -1 -158 -144z" />
<glyph horiz-adv-x="1056" d="M74 596q0 186 121.5 319.5t326.5 133.5q215 0 334 -144.5t119 -388.5q0 -330 -221.5 -559t-556.5 -289l-56 209q395 82 521 346q-84 -27 -177 -26q-193 0 -302 107.5t-109 291.5zM315 598q0 -76 43 -137.5t152 -61.5q121 0 205 31q6 45 6 94q0 74 -16.5 138.5t-67.5 118 t-131 53.5q-88 0 -139.5 -63.5t-51.5 -172.5z" />
<glyph horiz-adv-x="819" d="M158 1573l262 266l242 -186l-429 -166z" />
<glyph horiz-adv-x="819" d="M158 1653l241 186l263 -266l-76 -86z" />
<glyph horiz-adv-x="819" d="M143 1520l185 290h166l182 -290l-101 -35l-165 123l-166 -123z" />
<glyph horiz-adv-x="819" d="M102 1534q49 276 179 276q41 0 139 -42t129 -42q49 0 80 80l88 -18q-49 -276 -178 -277q-41 0 -139.5 42t-129.5 42q-49 0 -80 -79z" />
<glyph horiz-adv-x="819" d="M23 1655q0 63 45 107t108 44q66 0 113 -44t47 -107q0 -61 -47 -105.5t-113 -44.5q-63 0 -108 44t-45 106zM483 1655q0 63 45 107t109 44q66 0 113 -44t47 -107q0 -61 -47 -105.5t-113 -44.5q-63 0 -108.5 44t-45.5 106z" />
<glyph horiz-adv-x="819" d="M180 1657q0 98 65.5 156.5t164.5 58.5q96 0 162.5 -59.5t66.5 -155.5t-66.5 -154.5t-162.5 -58.5q-98 0 -164 58.5t-66 154.5zM332 1657q0 -92 80 -92q82 0 82 92q0 98 -82 98q-80 0 -80 -98z" />
<glyph horiz-adv-x="819" d="M143 1792l101 35l166 -123l165 123l101 -35l-184 -291h-166z" />
<glyph horiz-adv-x="819" d="M133 1532v194h553v-194h-553z" />
<glyph horiz-adv-x="819" d="M133 1798l115 21q39 -154 161.5 -154t161.5 154l115 -21q0 -141 -74.5 -226t-201.5 -85t-202 85t-75 226z" />
<glyph horiz-adv-x="819" d="M27 1530l186 330l219 -117l-332 -256zM375 1530l186 330l219 -117l-331 -256z" />
<glyph horiz-adv-x="819" d="M246 1654.5q0 65.5 46 111.5t114 46q70 0 117.5 -46t47.5 -111.5t-47.5 -110.5t-117.5 -45q-68 0 -114 45t-46 110.5z" />
<glyph horiz-adv-x="819" d="M209 1229l125 352l278 -61l-301 -336z" />
<glyph horiz-adv-x="819" d="M209 1516l276 65l125 -352l-102 -45z" />
<glyph horiz-adv-x="819" d="M143 1219l185 342h166l182 -342l-101 -35l-165 147l-166 -147z" />
<glyph horiz-adv-x="819" d="M102 1243q49 276 179 277q41 0 139 -42t129 -42q49 0 80 80l88 -19q-49 -276 -178 -276q-41 0 -139.5 42t-129.5 42q-49 0 -80 -80z" />
<glyph horiz-adv-x="819" d="M23 1362q0 63 45 107t108 44q66 0 113 -44t47 -107q0 -61 -47 -105.5t-113 -44.5q-63 0 -108 44t-45 106zM483 1362q0 63 45 107t109 44q66 0 113 -44t47 -107q0 -61 -47 -105.5t-113 -44.5q-63 0 -108.5 44t-45.5 106z" />
<glyph horiz-adv-x="819" d="M180 1374q0 98 65.5 156.5t164.5 58.5q96 0 162.5 -59.5t66.5 -155.5t-66.5 -154.5t-162.5 -58.5q-98 0 -164 58.5t-66 154.5zM332 1374q0 -92 80 -92q82 0 82 92q0 98 -82 99q-80 -1 -80 -99z" />
<glyph horiz-adv-x="819" d="M143 1536l101 35l166 -148l165 148l101 -35l-184 -342h-166z" />
<glyph horiz-adv-x="819" d="M133 1249v195h553v-195h-553z" />
<glyph horiz-adv-x="819" d="M133 1513l115 21q39 -154 161.5 -154t161.5 154l115 -21q0 -141 -74.5 -226t-201.5 -85t-202 85t-75 226z" />
<glyph horiz-adv-x="819" d="M80 1200l100 367l242 -62l-258 -327zM395 1200l101 367l241 -62l-258 -327z" />
<glyph horiz-adv-x="819" d="M246 1361.5q0 65.5 46 112t114 46.5q70 0 117.5 -46.5t47.5 -112t-47.5 -110.5t-117.5 -45q-68 0 -114 45t-46 110.5z" />
</font>
</defs>
</svg>
