<?xml version="1.0" encoding="UTF-8" standalone="no"?>
<!-- Created with Inkscape (http://www.inkscape.org/) -->

<svg
   xmlns:dc="http://purl.org/dc/elements/1.1/"
   xmlns:cc="http://creativecommons.org/ns#"
   xmlns:rdf="http://www.w3.org/1999/02/22-rdf-syntax-ns#"
   xmlns:svg="http://www.w3.org/2000/svg"
   xmlns="http://www.w3.org/2000/svg"
   xmlns:xlink="http://www.w3.org/1999/xlink"
   xmlns:sodipodi="http://sodipodi.sourceforge.net/DTD/sodipodi-0.dtd"
   xmlns:inkscape="http://www.inkscape.org/namespaces/inkscape"
   width="278"
   height="200"
   id="svg3349"
   version="1.1"
   inkscape:version="0.48.1 r9760"
   sodipodi:docname="teaserDiaspora.svg">
  <defs
     id="defs3351">
    <linearGradient
       id="linearGradient4137">
      <stop
         id="stop4139"
         offset="0"
         style="stop-color:#9c5820;stop-opacity:1;" />
      <stop
         id="stop4141"
         offset="1"
         style="stop-color:#6a4221;stop-opacity:1;" />
    </linearGradient>
    <linearGradient
       inkscape:collect="always"
       xlink:href="#linearGradient4137"
       id="linearGradient4135"
       x1="3.5714285"
       y1="855.57648"
       x2="272.85715"
       y2="1047.7194"
       gradientUnits="userSpaceOnUse" />
    <style
       id="style4221"
       type="text/css">
   
    .fil0 {fill:black;fill-rule:nonzero}
   
  </style>
    <inkscape:path-effect
       is_visible="true"
       id="path-effect3872"
       effect="spiro" />
    <inkscape:path-effect
       is_visible="true"
       id="path-effect2936"
       effect="spiro" />
    <inkscape:path-effect
       is_visible="true"
       id="path-effect2940"
       effect="spiro" />
    <inkscape:path-effect
       effect="spiro"
       id="path-effect2944"
       is_visible="true" />
    <inkscape:perspective
       sodipodi:type="inkscape:persp3d"
       inkscape:vp_x="0 : 0.5 : 1"
       inkscape:vp_y="0 : 1000 : 0"
       inkscape:vp_z="1 : 0.5 : 1"
       inkscape:persp3d-origin="0.5 : 0.33333333 : 1"
       id="perspective4245" />
    <inkscape:perspective
       id="perspective4235"
       inkscape:persp3d-origin="372.04724 : 350.78739 : 1"
       inkscape:vp_z="744.09448 : 526.18109 : 1"
       inkscape:vp_y="0 : 1000 : 0"
       inkscape:vp_x="0 : 526.18109 : 1"
       sodipodi:type="inkscape:persp3d" />
  </defs>
  <sodipodi:namedview
     id="base"
     pagecolor="#ffffff"
     bordercolor="#666666"
     borderopacity="1.0"
     inkscape:pageopacity="0.0"
     inkscape:pageshadow="2"
     inkscape:zoom="2.8"
     inkscape:cx="214.75667"
     inkscape:cy="119.67558"
     inkscape:document-units="px"
     inkscape:current-layer="layer1"
     showgrid="false"
     showguides="true"
     inkscape:guide-bbox="true"
     inkscape:window-width="1627"
     inkscape:window-height="1001"
     inkscape:window-x="1024"
     inkscape:window-y="24"
     inkscape:window-maximized="1" />
  <metadata
     id="metadata3354">
    <rdf:RDF>
      <cc:Work
         rdf:about="">
        <dc:format>image/svg+xml</dc:format>
        <dc:type
           rdf:resource="http://purl.org/dc/dcmitype/StillImage" />
        <dc:title />
      </cc:Work>
    </rdf:RDF>
  </metadata>
  <g
     inkscape:label="Ebene 1"
     inkscape:groupmode="layer"
     id="layer1"
     transform="translate(0,-852.36218)">
    <rect
       style="fill:url(#linearGradient4135);fill-opacity:1;stroke-width:5;stroke-miterlimit:4;stroke-dasharray:none"
       id="rect3359"
       width="285.35715"
       height="205.71428"
       x="-3.9285715"
       y="850.2193" />
    <g
       transform="matrix(2.0341585,0,0,2.0341585,-449.50063,337.23887)"
       id="layer1-8"
       inkscape:label="Ebene 1"
       style="fill:#ffffff">
      <g
         id="g3274"
         style="fill:#ffffff">
        <path
           style="font-size:14px;font-style:normal;font-variant:normal;font-weight:bold;font-stretch:normal;text-align:end;line-height:100%;writing-mode:lr-tb;text-anchor:end;fill:#ffffff;fill-opacity:1;stroke:none;font-family:Sawasdee;-inkscape-font-specification:Sawasdee Bold"
           id="path3004"
           d="m 314.57896,292.00313 c 1.45877,3.31761 2.18813,6.79981 2.18818,10.44676 -5e-5,3.64695 -0.72941,7.1292 -2.18818,10.44676 -1.43528,3.29401 -3.38819,6.12921 -5.85862,8.50562 -2.44705,2.37637 -5.36459,4.27047 -8.75267,5.68216 -3.36465,1.41173 -6.89398,2.1176 -10.58792,2.1176 -3.71757,0 -7.28218,-0.70587 -10.6938,-2.1176 -3.38819,-1.41169 -6.3175,-3.30579 -8.78798,-5.68216 -2.447,-2.37641 -4.39991,-5.21161 -5.85868,-8.50562 -1.45876,-3.31756 -2.18817,-6.79981 -2.18817,-10.44676 0,-3.64695 0.72941,-7.12915 2.18817,-10.44676 1.45877,-3.31751 3.41168,-6.17624 5.85868,-8.5762 2.47048,-2.39991 5.39979,-4.30574 8.78798,-5.71747 3.41162,-1.41169 6.97623,-2.11755 10.6938,-2.11761 3.69394,6e-5 7.22327,0.70592 10.58792,2.11761 3.38808,1.41173 6.30562,3.31756 8.75267,5.71747 2.47043,2.39996 4.42334,5.25869 5.85862,8.5762 m -47.08095,10.44676 c 0,2.89405 0.56471,5.65866 1.69409,8.29384 1.15287,2.63523 2.69404,4.91753 4.6234,6.8469 1.95286,1.90582 4.28219,3.4234 6.988,4.55277 2.7293,1.12938 5.58804,1.6941 8.57625,1.6941 3.95275,0 7.5997,-0.95291 10.94085,-2.85874 3.36454,-1.92936 6.02327,-4.52928 7.97623,-7.7998 1.9528,-3.29397 2.92925,-6.87034 2.92931,-10.72907 -6e-5,-3.88222 -0.97651,-7.47032 -2.92931,-10.76438 -1.95296,-3.29402 -4.61169,-5.89394 -7.97623,-7.79976 -3.34115,-1.90582 -6.9881,-2.85873 -10.94085,-2.85879 -2.98821,6e-5 -5.83518,0.56477 -8.54093,1.6941 -2.70581,1.12943 -5.0352,2.647 -6.98806,4.55282 -1.95285,1.90583 -3.50579,4.18813 -4.65866,6.84685 -1.12938,2.63523 -1.69409,5.41162 -1.69409,8.32916"
           inkscape:connector-curvature="0" />
        <g
           id="flowRoot3831"
           style="font-size:14px;font-style:normal;font-variant:normal;font-weight:bold;font-stretch:normal;text-align:end;line-height:100%;writing-mode:lr-tb;text-anchor:end;fill:#ffffff;fill-opacity:1;stroke:none;font-family:Sawasdee;-inkscape-font-specification:Sawasdee Bold"
           inkscape:transform-center-y="-5.4669476"
           transform="matrix(7.6750651,0,0,7.6750651,-2993.8555,-1514.4258)">
          <path
             inkscape:connector-curvature="0"
             id="path4470"
             d="m 427.29492,234.51358 1.12793,0 0,1.36719 1.45606,-0.35547 0.25976,1.07324 -1.38086,0.32129 0.86133,1.26465 -0.90234,0.62891 -0.8545,-1.27149 -0.86132,1.27149 -0.90235,-0.62891 0.84766,-1.26465 -1.37402,-0.32129 0.2666,-1.07324 1.45605,0.35547 0,-1.36719"
             style="fill:#ffffff" />
        </g>
      </g>
    </g>
  </g>
</svg>
