<?xml version="1.0" encoding="UTF-8" standalone="no"?>
<!-- Created with Inkscape (http://www.inkscape.org/) -->

<svg
   xmlns:dc="http://purl.org/dc/elements/1.1/"
   xmlns:cc="http://creativecommons.org/ns#"
   xmlns:rdf="http://www.w3.org/1999/02/22-rdf-syntax-ns#"
   xmlns:svg="http://www.w3.org/2000/svg"
   xmlns="http://www.w3.org/2000/svg"
   xmlns:xlink="http://www.w3.org/1999/xlink"
   xmlns:sodipodi="http://sodipodi.sourceforge.net/DTD/sodipodi-0.dtd"
   xmlns:inkscape="http://www.inkscape.org/namespaces/inkscape"
   width="278"
   height="200"
   id="svg3349"
   version="1.1"
   inkscape:version="0.48.1 r9760"
   sodipodi:docname="teaserPage.svg">
  <defs
     id="defs3351"><linearGradient
   id="linearGradient4137">
  <stop
     id="stop4139"
     offset="0"
     style="stop-color:#9c5820;stop-opacity:1;" />
  <stop
     id="stop4141"
     offset="1"
     style="stop-color:#6a4221;stop-opacity:1;" />
</linearGradient>
<linearGradient
   inkscape:collect="always"
   xlink:href="#linearGradient4137"
   id="linearGradient4135"
   x1="3.5714285"
   y1="855.57648"
   x2="272.85715"
   y2="1047.7194"
   gradientUnits="userSpaceOnUse" />

 <style
   id="style4221"
   type="text/css">
   
    .fil0 {fill:black;fill-rule:nonzero}
   
  </style>

  <inkscape:path-effect
   is_visible="true"
   id="path-effect3872"
   effect="spiro" />
<inkscape:path-effect
   is_visible="true"
   id="path-effect2936"
   effect="spiro" />
<inkscape:path-effect
   is_visible="true"
   id="path-effect2940"
   effect="spiro" />
<inkscape:path-effect
   effect="spiro"
   id="path-effect2944"
   is_visible="true" />
<inkscape:perspective
   sodipodi:type="inkscape:persp3d"
   inkscape:vp_x="0 : 0.5 : 1"
   inkscape:vp_y="0 : 1000 : 0"
   inkscape:vp_z="1 : 0.5 : 1"
   inkscape:persp3d-origin="0.5 : 0.33333333 : 1"
   id="perspective4245" />
<inkscape:perspective
   id="perspective4235"
   inkscape:persp3d-origin="372.04724 : 350.78739 : 1"
   inkscape:vp_z="744.09448 : 526.18109 : 1"
   inkscape:vp_y="0 : 1000 : 0"
   inkscape:vp_x="0 : 526.18109 : 1"
   sodipodi:type="inkscape:persp3d" />
<clipPath
   id="clipPath3020">
  <path
     id="path3022"
     d="M 0,726.184 0,0 l 3913.5,0 0,726.184 -3913.5,0 z" />
</clipPath>
</defs>
  <sodipodi:namedview
     id="base"
     pagecolor="#ffffff"
     bordercolor="#666666"
     borderopacity="1.0"
     inkscape:pageopacity="0.0"
     inkscape:pageshadow="2"
     inkscape:zoom="2.8"
     inkscape:cx="102.85561"
     inkscape:cy="67.587295"
     inkscape:document-units="px"
     inkscape:current-layer="layer1"
     showgrid="false"
     showguides="true"
     inkscape:guide-bbox="true"
     inkscape:window-width="1627"
     inkscape:window-height="1001"
     inkscape:window-x="1024"
     inkscape:window-y="24"
     inkscape:window-maximized="1" />
  <metadata
     id="metadata3354">
    <rdf:RDF>
      <cc:Work
         rdf:about="">
        <dc:format>image/svg+xml</dc:format>
        <dc:type
           rdf:resource="http://purl.org/dc/dcmitype/StillImage" />
        <dc:title></dc:title>
      </cc:Work>
    </rdf:RDF>
  </metadata>
  <g
     inkscape:label="Ebene 1"
     inkscape:groupmode="layer"
     id="layer1"
     transform="translate(0,-852.36218)">
    <rect
       style="fill:url(#linearGradient4135);fill-opacity:1;stroke-width:5;stroke-miterlimit:4;stroke-dasharray:none"
       id="rect3359"
       width="285.35715"
       height="205.71428"
       x="-3.9285715"
       y="850.2193" />
    <g
       id="g3658"
       transform="matrix(2.1172095,0,0,-2.1172095,118.57524,987.5067)"
       style="fill:#ffffff">
      <path
         inkscape:connector-curvature="0"
         d="M 0,0 C 0.951,0.351 2.484,3.952 2.484,3.952 2.334,4.032 2.167,4.075 1.998,4.075 l -0.391,0 c -0.079,0 -0.16,-0.01 -0.236,-0.027 -6.08,-1.44 -11.732,-4.569 -16.347,-9.051 -0.2,-0.193 -0.312,-0.461 -0.312,-0.738 l 0,-3.678 c 0,-0.57 0.461,-1.029 1.03,-1.029 l 23.475,0 C 7.429,-1.261 0,0 0,0"
         style="fill:#ffffff;fill-opacity:1;fill-rule:nonzero;stroke:none"
         id="path3660" />
    </g>
    <g
       id="g3662"
       transform="matrix(2.6519839,0,0,-2.6519839,204.92035,1006.4776)"
       style="fill:#ffffff">
      <path
         inkscape:connector-curvature="0"
         d="m -5.8872764,3.1594126 c -3.6029499,3.4975683 -8.0002586,5.966064 -12.7288816,7.1460254 -0.120551,0.06387 -0.255472,0.09979 -0.394385,0.09979 l -0.428713,0 c -0.134921,0 -0.269044,-0.03273 -0.3872,-0.0966 l 7.98e-4,0 c 0,0 1.223072,-2.8748567 1.981503,-3.1550773 0,0 -5.92934,-1.0067184 -7.35599,-8.3411535 l 18.7396537,0 c 0.4550592,0 0.8222999,0.36644233 0.8222999,0.82150143 l 0,2.93632877 c 0,0.2211427 -0.090213,0.4351004 -0.249085,0.5891818"
         style="fill:#ffffff;fill-opacity:1;fill-rule:nonzero;stroke:none"
         id="path3664" />
    </g>
    <g
       id="g3666"
       transform="matrix(2.1172095,0,0,-2.1172095,118.57524,922.83865)"
       style="fill:#ffffff">
      <path
         inkscape:connector-curvature="0"
         d="m 0,0 c -1.156,-1.854 -1.834,-4.072 -1.834,-6.459 0,-1.326 0.212,-2.6 0.594,-3.787 -0.662,-0.313 -1.123,-1.016 -1.123,-1.834 0,-1.108 0.847,-2.006 1.894,-2.006 l 0.033,0 c 0.219,-2.947 1.611,-5.893 3.68,-7.928 l 0,-1.529 c 0,-0.107 0.025,-0.215 0.074,-0.312 0.274,-0.537 2.758,-5.237 5.885,-5.301 l 0.061,0 c 3.121,0 5.582,4.763 5.851,5.306 0.048,0.096 0.073,0.2 0.073,0.307 l 0,1.528 c 2.07,2.036 3.461,4.98 3.681,7.929 l 0.033,0 c 1.045,0 1.893,0.898 1.893,2.006 0,0.818 -0.461,1.521 -1.122,1.834 0.383,1.187 0.595,2.461 0.595,3.787 0,1.209 -0.174,2.374 -0.495,3.473 0.42,-0.854 0.696,-1.645 0.94,-2.173 0.154,-0.329 0.732,0 0.732,0 1.121,4.866 -2.957,7.895 -2.957,7.895 C 21.542,2.555 22.616,1.158 22.616,1.158 20.014,5.651 16.564,4.459 16.543,4.451 11.829,11.194 1.354,6.594 1.354,6.594 4.219,7.137 6.328,7.033 8.311,6.822 -1.341,7.295 -3.479,-2.617 -3.479,-2.617 -3.109,-1.447 -1.737,-0.607 0,0"
         style="fill:#ffffff;fill-opacity:1;fill-rule:nonzero;stroke:none"
         id="path3668" />
    </g>
    <g
       id="g2084"
       transform="matrix(0.51270301,0,0,-0.51270301,183.36639,915.477)"
       style="fill:#ffffff">
      <path
         inkscape:connector-curvature="0"
         d="m 0,0 c -0.428,-0.456 -0.887,-0.553 -1.197,-0.553 l -12.453,0 c -0.311,0 -0.771,0.097 -1.198,0.553 -0.331,0.355 -0.499,0.818 -0.499,1.376 0,0.567 0.163,1.042 0.486,1.409 0.429,0.486 0.895,0.588 1.211,0.588 l 1.414,0 0,10.379 -1.414,0 c -0.311,0 -0.771,0.096 -1.198,0.553 -0.331,0.355 -0.499,0.818 -0.499,1.377 0,0.566 0.163,1.039 0.486,1.406 0.429,0.488 0.895,0.59 1.211,0.59 l 10.431,0 c 0.337,0 0.61,-0.273 0.61,-0.608 l 0,-13.697 1.412,0 c 0.315,0 0.782,-0.102 1.209,-0.588 C 0.336,2.418 0.5,1.943 0.5,1.376 0.5,0.816 0.332,0.354 0,0 m -7.422,32.465 c 2.99,0 5.422,-2.434 5.422,-5.424 0,-2.99 -2.432,-5.423 -5.422,-5.423 -2.99,0 -5.424,2.433 -5.424,5.423 0,2.99 2.434,5.424 5.424,5.424 m -0.68,7.285 c -13.529,0 -24.534,-11.006 -24.534,-24.535 0,-13.529 11.005,-24.537 24.534,-24.537 13.53,0 24.537,11.008 24.537,24.537 0,13.529 -11.007,24.535 -24.537,24.535"
         style="fill:#ffffff;fill-opacity:1;fill-rule:nonzero;stroke:none"
         id="path2086" />
    </g>
  </g>
</svg>
